<svg width="25" height="24" viewBox="0 0 25 24" fill="none" xmlns="http://www.w3.org/2000/svg">
<g id="request 1">
<g id="Group">
<g id="Group_2">
<g id="Group_3">
<path id="Vector" fill-rule="evenodd" clip-rule="evenodd" d="M10.6963 7.68999V9.68999H12.6963V7.68999H10.6963ZM10.6963 7.68999V9.68999H12.6963V7.68999H10.6963ZM10.6963 9.68999H12.6963V7.68999H10.6963V9.68999Z" fill="#5370F6"/>
</g>
<g id="Group_4">
<path id="Vector_2" d="M11.5963 22.69C6.13629 22.69 1.69629 18.2 1.69629 12.69C1.69629 7.17999 6.18629 2.68999 11.6963 2.68999C12.2463 2.68999 12.6963 3.13999 12.6963 3.68999C12.6963 4.23999 12.2463 4.68999 11.6963 4.68999C7.28629 4.68999 3.69629 8.27999 3.69629 12.69C3.69629 17.1 7.23629 20.69 11.5963 20.69C16.0063 20.69 19.5963 17.1 19.5963 12.69C19.5963 12.14 20.0463 11.69 20.5963 11.69C21.1463 11.69 21.5963 12.14 21.5963 12.69C21.5963 18.21 17.1063 22.69 11.5963 22.69Z" fill="#5370F6"/>
</g>
<g id="Group_5">
<path id="Vector_3" d="M11.6963 17.69C11.1463 17.69 10.6963 17.24 10.6963 16.69V12.69C10.6963 12.14 11.1463 11.69 11.6963 11.69C12.2463 11.69 12.6963 12.14 12.6963 12.69V16.69C12.6963 17.24 12.2463 17.69 11.6963 17.69Z" fill="#5370F6"/>
</g>
</g>
<g id="Group_6">
<g id="Group_7">
<path id="Vector_4" d="M22.7768 5.74C22.7768 6.29 22.3368 6.74 21.7768 6.74H19.3568V9.16C19.3568 9.71 18.9068 10.16 18.3568 10.16C17.8068 10.16 17.3568 9.71 17.3568 9.16V6.74H14.9268C14.3768 6.74 13.9268 6.29 13.9268 5.74C13.9268 5.18 14.3768 4.74 14.9268 4.74H17.3568V2.31C17.3568 1.76 17.8068 1.31 18.3568 1.31C18.9068 1.31 19.3568 1.76 19.3568 2.31V4.74H21.7768C22.3368 4.74 22.7768 5.18 22.7768 5.74Z" fill="#5370F6"/>
</g>
<g id="Group_8">
<path id="Vector_5" d="M21.7768 6.74H19.3568V9.16C19.3568 9.71 18.9068 10.16 18.3568 10.16C17.8068 10.16 17.3568 9.71 17.3568 9.16V6.74H14.9268C14.3768 6.74 13.9268 6.29 13.9268 5.74C13.9268 5.18 14.3768 4.74 14.9268 4.74H17.3568V2.31C17.3568 1.76 17.8068 1.31 18.3568 1.31C18.9068 1.31 19.3568 1.76 19.3568 2.31V4.74H21.7768C22.3368 4.74 22.7768 5.18 22.7768 5.74C22.7768 6.29 22.3368 6.74 21.7768 6.74Z" fill="#5370F6"/>
</g>
</g>
</g>
</g>
</svg>
