<svg width="126" height="126" viewBox="0 0 126 126" fill="none" xmlns="http://www.w3.org/2000/svg">
<g clip-path="url(#clip0_3650_79849)">
<g style="mix-blend-mode:multiply" opacity="0.1">
<path d="M74.8905 126C103.117 126 126 124.87 126 123.477C126 122.083 103.117 120.954 74.8905 120.954C46.6635 120.954 23.781 122.083 23.781 123.477C23.781 124.87 46.6635 126 74.8905 126Z" fill="#212121"/>
</g>
<path d="M8.2535 51.1906C8.2535 25.2987 29.6457 4.27744 55.9945 4.27744C82.3477 4.27744 103.74 25.2987 103.74 51.1906C103.74 77.0825 82.3477 98.1082 55.9945 98.1082C29.6457 98.1082 8.24902 77.0869 8.24902 51.1906H8.2535Z" fill="#F3F7FF"/>
<mask id="mask0_3650_79849" style="mask-type:luminance" maskUnits="userSpaceOnUse" x="8" y="4" width="96" height="95">
<path d="M8.2535 51.1906C8.2535 25.2987 29.6457 4.27744 55.9945 4.27744C82.3477 4.27744 103.74 25.2987 103.74 51.1906C103.74 77.0825 82.3477 98.1082 55.9945 98.1082C29.6457 98.1082 8.24902 77.0869 8.24902 51.1906H8.2535Z" fill="white"/>
</mask>
<g mask="url(#mask0_3650_79849)">
<g opacity="0.8">
<path d="M81.498 46.2275L86.0834 50.7334L98.7209 38.3149L96.8331 31.4177L81.498 46.2232V46.2275Z" fill="#EDF1F9"/>
<path d="M39.4429 71.1261L52.416 83.8742L56.7284 79.7157L43.7329 66.9456L39.4429 71.1217V71.1261Z" fill="#EDF1F9"/>
<path d="M36.9062 87.7558L51.2751 101.875L55.9409 97.3741L41.5497 83.2324L36.9062 87.7558Z" fill="#EDF1F9"/>
<path d="M24.0852 87.2326L28.5945 91.6637L39.3487 81.0739L34.8126 76.6121L24.0852 87.2326Z" fill="#EDF1F9"/>
<path d="M67.7148 59.9031L72.3225 64.4309L78.997 57.9733C79.6188 57.3711 79.9677 56.5622 79.9677 55.705C79.9677 54.8434 79.6322 54.0346 79.0149 53.4279C77.7533 52.1883 75.6955 52.1795 74.4251 53.4103L67.7148 59.9031Z" fill="#EDF1F9"/>
<path d="M65.4444 62.1034L57.1567 70.2473L61.7656 74.7762L70.0532 66.6323L65.4444 62.1034Z" fill="#EDF1F9"/>
<path d="M60.3877 25.4482L66.2927 31.2068L70.2964 27.3868L62.6065 23.3425L60.3922 25.4526L60.3877 25.4482Z" fill="#EDF1F9"/>
<path d="M67.8672 18.2212L75.5481 22.0896L80.214 17.6365L72.5599 13.6099L67.8672 18.2212Z" fill="#EDF1F9"/>
</g>
<path d="M66.2656 36.016L76.5323 46.2101L89.2727 33.2817L75.9507 26.3669L66.2656 36.016Z" fill="#EDF1F9"/>
<path d="M52.3931 88.6657L60.2753 96.2927L71.034 96.385V70.8711L52.3931 88.6657Z" fill="#EDF1F9"/>
<path d="M9.39868 41.4668L9.80577 90.2658L14.7803 90.257L43.5671 62.2375L22.8639 41.4668H9.39868Z" fill="#EDF1F9"/>
<path d="M15.6392 15.3244L27.5699 26.9252V45.9111L45.862 63.9915V34.7851L73.9778 6.95897L74.1209 0.000244141L15.6571 0.268395L15.6392 15.3244Z" fill="#EDF1F9"/>
<path d="M80.1737 87.435L86.5037 93.7475C88.6286 95.8664 91.5184 97.0752 94.5425 97.106C100.949 97.1763 106.174 92.0771 106.142 85.7821L106.084 73.2978C106.035 63.2751 93.7015 58.2945 86.4947 65.3895L80.2229 71.5614C75.7763 75.9397 75.7494 83.0259 80.1692 87.435H80.1737Z" fill="#BCC7D3"/>
<path d="M4.41085 91.3824L0 87.0481L27.3777 60.1451C31.1265 56.4613 33.1887 51.5643 33.1887 46.3595V37.3743C33.1887 30.5298 35.8997 24.0942 40.8294 19.2543L58.8397 1.5564L63.2505 5.89076L45.2403 23.5887C41.4915 27.2725 39.4292 32.1695 39.4292 37.3743V46.3595C39.4292 53.2039 36.7183 59.6396 31.7885 64.4795L4.41085 91.3824Z" fill="#BCC7D3"/>
<path d="M60.2844 96.2797L34.553 70.9944" stroke="white" stroke-width="4.28"/>
<path d="M14.9146 90.389L43.5672 62.2375" stroke="white" stroke-width="4.28"/>
<path d="M52.5498 88.6833L102.317 39.7832" stroke="white" stroke-width="4.28"/>
<path d="M71.0342 70.8711V96.385" stroke="white" stroke-width="4.28"/>
<path d="M66.2656 36.0161L89.8543 12.8364" stroke="white" stroke-width="4.28"/>
<path d="M86.1636 55.6526L55.395 25.4175" stroke="white" stroke-width="4.28"/>
<path d="M89.2728 33.2818L62.0024 19.127" stroke="white" stroke-width="4.28"/>
<path d="M27.4491 45.9112V26.9253L15.6392 15.3245" stroke="white" stroke-width="4.28"/>
<path d="M52.21 70.2469L96.645 26.5691" stroke="white" stroke-width="4.28"/>
<path d="M75.946 5.22266L45.8618 34.7852V63.9916" stroke="white" stroke-width="4.28"/>
<path d="M61.7652 79.6323L22.9354 41.4758H9.39868" stroke="white" stroke-width="4.28"/>
</g>
<path d="M57.1173 54.7423C57.1173 54.7423 49.2261 43.7658 49.2261 39.8006V39.4534C49.2261 35.1761 52.7691 31.6946 57.1173 31.6946C61.4655 31.6946 65.0085 35.1761 65.0085 39.4534V39.8006C65.0085 43.7658 57.1128 54.7423 57.1128 54.7423H57.1173Z" fill="#D35630"/>
<path fill-rule="evenodd" clip-rule="evenodd" d="M60.6065 38.7455V43.0887C60.6065 43.3656 60.3828 43.5942 60.1099 43.5942H54.1289C53.8515 43.5942 53.6323 43.37 53.6323 43.0887V38.7455C53.6323 38.4774 53.7397 38.218 53.9276 38.0246L56.7682 35.1849C56.9606 34.9914 57.2737 34.9914 57.4706 35.1849L60.3112 38.0246C60.4991 38.2136 60.6065 38.473 60.6065 38.7455Z" fill="white"/>
<path d="M81.3906 84.1026L88.329 77.5791L96.8868 86.5028L89.9484 93.0263L81.3906 84.1026Z" fill="white"/>
<path d="M90.0694 92.49L96.2786 86.6523C97.3209 85.672 98.9761 85.7203 99.9558 86.7578L125.276 113.335C126.282 114.399 126.233 116.065 125.164 117.068L119.138 122.734C118.047 123.763 116.311 123.71 115.282 122.62L89.9665 96.0463C89.0047 95.0309 89.0539 93.4439 90.0739 92.4856L90.0694 92.49Z" fill="#485563"/>
<path d="M93.1738 89.5711L96.2784 86.6523C97.3207 85.672 98.9759 85.7203 99.9556 86.7578L125.276 113.335C126.282 114.399 126.233 116.065 125.164 117.068L122.175 119.749L93.1738 89.5668V89.5711Z" fill="#BCC7D3"/>
<path d="M21.4952 83.6235C39.7246 102.346 69.9475 103.005 89 85.0918C108.053 67.1784 108.724 37.4796 90.4941 18.7575C72.2647 0.0352712 42.0419 -0.624113 22.9894 17.2892C3.93681 35.2026 3.26579 64.9013 21.4952 83.6235ZM27.1318 21.5445C43.7955 5.87744 70.2248 6.4533 86.1683 22.8281C102.112 39.2028 101.526 65.1739 84.862 80.8409C68.1983 96.5079 41.769 95.9321 25.8255 79.5573C9.88206 63.1825 10.4681 37.2115 27.1318 21.5445Z" fill="#485563"/>
<g style="mix-blend-mode:overlay">
<path d="M55.99 11.7678C67.044 11.7678 77.3419 16.089 84.9826 23.9401C100.277 39.6467 99.7138 64.655 83.73 79.6803C76.228 86.7313 66.3819 90.6173 56.0034 90.6173C44.945 90.6173 34.6515 86.2961 27.0063 78.445C11.7115 62.7384 12.2752 37.7301 28.2589 22.7049C35.7609 15.6538 45.6071 11.7678 55.99 11.7678ZM55.99 10.1589C45.616 10.1589 35.2196 13.935 27.1316 21.5443C10.4679 37.2114 9.88186 63.1824 25.8253 79.5572C34.0297 87.9842 45.0031 92.2218 56.0034 92.2218C66.3774 92.2218 76.7738 88.4457 84.8618 80.8364C101.526 65.1694 102.112 39.1983 86.1681 22.8236C77.9637 14.3966 66.9903 10.1545 55.99 10.1589Z" fill="#EDF1F9"/>
</g>
</g>
<defs>
<clipPath id="clip0_3650_79849">
<rect width="126" height="126" fill="white"/>
</clipPath>
</defs>
</svg>
