<svg width="126" height="49" viewBox="0 0 126 49" fill="none" xmlns="http://www.w3.org/2000/svg">
<g clip-path="url(#clip0_1054_490)">
<mask id="mask0_1054_490" style="mask-type:luminance" maskUnits="userSpaceOnUse" x="0" y="0" width="29" height="49">
<path d="M2.77792 19.4515C1.43045 19.4638 0.333313 20.5707 0.333313 21.9149V38.7853C0.60837 44.0203 4.93202 48.2472 10.1921 48.4106C12.9829 48.5031 15.6191 47.4795 17.6186 45.5464C19.6182 43.6134 20.7215 41.0174 20.7215 38.2396V22.0074C20.7215 21.0023 20.1405 20.1113 19.3092 19.6981C19.2999 19.692 19.2875 19.6889 19.2783 19.6827C19.2474 19.6673 19.2164 19.6581 19.1855 19.6427C18.9043 19.5286 18.5953 19.4638 18.2738 19.4638C16.9233 19.4638 15.823 20.5614 15.823 21.9087L15.8076 36.9632C15.8076 37.327 15.7705 37.6847 15.6994 38.0269C15.4893 39.0689 14.9639 40.0185 14.1727 40.7708C13.1219 41.7728 11.7405 42.2846 10.2848 42.2167C9.65744 42.1859 9.06406 42.041 8.51394 41.8098C8.50158 41.8036 8.48922 41.8005 8.47686 41.7944C8.35015 41.7389 8.22343 41.6772 8.09981 41.6125C8.06273 41.5909 8.02255 41.5724 7.98546 41.5508C7.89584 41.5015 7.8093 41.4491 7.72586 41.3936C7.65478 41.3504 7.58679 41.3042 7.51879 41.2548C7.47553 41.224 7.43226 41.1901 7.38899 41.1562C7.28391 41.076 7.18193 40.9959 7.08303 40.9095C5.97971 39.9445 5.27816 38.5356 5.27816 36.9601V36.9231C5.27816 36.9016 5.27507 36.88 5.27507 36.8584H5.27816V33.1372H5.27507V21.9118C5.27507 21.2489 5.01856 20.6261 4.5457 20.1606C4.07904 19.7012 3.46402 19.4484 2.80883 19.4484C2.79956 19.4484 2.79337 19.4484 2.7841 19.4484M8.09054 20.6416V36.9262C8.11836 37.9683 8.76737 38.8809 9.66671 39.2447C9.71307 39.2632 9.75634 39.2786 9.8027 39.294C9.80888 39.294 9.81506 39.2971 9.82124 39.3002C10.0499 39.3711 10.291 39.4081 10.5413 39.4081C11.6385 39.4081 12.5687 38.6836 12.8809 37.6908C12.9519 37.4596 12.989 37.2191 12.989 36.9725L13.0045 21.8964C13.0045 20.4473 13.5855 19.097 14.6363 18.095C15.6871 17.093 17.0685 16.5781 18.5242 16.649C19.3308 16.686 20.0849 16.9111 20.7524 17.2749C20.7679 17.2841 20.7864 17.2934 20.8019 17.3026C20.907 17.3612 21.009 17.4229 21.1109 17.4907C21.1697 17.5277 21.2284 17.5647 21.284 17.6048C21.3335 17.6418 21.3829 17.6788 21.4324 17.7157C22.7087 18.6746 23.5401 20.1976 23.5401 21.9118V29.3728C26.5657 27.5599 28.4911 24.2611 28.4911 20.6446C28.4911 15.0335 23.9141 10.4675 18.2893 10.4675C12.6645 10.4675 8.08745 15.0335 8.08745 20.6446M14.7074 4.07634C14.7074 6.04949 16.3144 7.65267 18.2924 7.65267C20.2703 7.65267 21.8774 6.04949 21.8774 4.07634C21.8774 2.10319 20.2672 0.5 18.2924 0.5C16.3175 0.5 14.7074 2.10319 14.7074 4.07634Z" fill="white"/>
</mask>
<g mask="url(#mask0_1054_490)">
<path d="M28.4942 0.5H0.333313V48.5H28.4942V0.5Z" fill="#E4E7E9"/>
</g>
<path d="M49.2502 18.1227V23.1049C49.2502 25.932 47.3743 27.8466 43.9438 27.8466C40.5133 27.8466 38.6373 25.9351 38.6373 23.1049V18.1227H40.7976V22.9446C40.7976 24.8314 41.904 25.9629 43.9438 25.9629C45.9835 25.9629 47.0899 24.8314 47.0899 22.9446V18.1227H49.2502Z" fill="#E4E7E9"/>
<path d="M51.9668 27.5507V20.1298H54.0591V21.437C54.6679 20.4535 55.867 19.8616 57.2979 19.8616C59.5262 19.8616 60.6728 21.2767 60.6728 23.256V27.5507H58.5805V23.3886C58.5805 22.1769 57.9315 21.5172 56.6891 21.5172C55.5827 21.5172 54.6648 22.029 54.056 23.0926V27.5507H51.9637H51.9668Z" fill="#E4E7E9"/>
<path d="M63.0618 18.1905C63.0618 17.5585 63.5872 17.1269 64.332 17.1269C65.0768 17.1269 65.5744 17.5585 65.5744 18.1905C65.5744 18.8226 65.0613 19.2419 64.332 19.2419C63.6026 19.2419 63.0618 18.7979 63.0618 18.1905ZM65.3982 27.5507H63.3059V20.1298H65.3982V27.5507Z" fill="#E4E7E9"/>
<path d="M73.8632 27.1221C73.2296 27.5537 72.2963 27.8374 71.4186 27.8374C69.8517 27.8374 68.6371 26.9896 68.6371 25.3185V21.696H67.2587V20.1328H68.6371V18.4094H70.7294V20.1328H73.7952V21.696H70.7294V24.9547C70.7294 25.7101 71.2981 26.0985 72.0398 26.0985C72.5528 26.0985 73.0133 25.9105 73.4305 25.707L73.8632 27.1221Z" fill="#E4E7E9"/>
<path d="M80.1432 26.2588C81.4257 26.2588 82.2355 25.9228 83.005 25.3031L84.1269 26.5302C83.0884 27.4458 81.7503 27.8497 80.035 27.8497C76.9692 27.8497 75.2014 26.3143 75.2014 23.851C75.2014 21.3876 76.9568 19.8369 79.8867 19.8369C82.5878 19.8369 84.3957 21.2119 84.3957 23.8356C84.3957 24.0791 84.3834 24.1994 84.3432 24.3196H77.2133C77.4019 25.6515 78.4156 26.2588 80.1432 26.2588ZM77.3061 22.9846L82.3962 22.9569C82.0717 21.8932 81.2218 21.4215 79.899 21.4215C78.5763 21.4215 77.6028 21.9333 77.3061 22.9846Z" fill="#E4E7E9"/>
<path d="M93.2933 21.3414V17.5832H95.3856V27.5507H93.2933V26.3514C92.6845 27.1746 91.5781 27.8343 90.0544 27.8343C87.6902 27.8343 86.046 26.2712 86.046 23.8479C86.046 21.4247 87.6933 19.8616 90.0544 19.8616C91.5812 19.8616 92.6876 20.5213 93.2933 21.3414ZM93.2779 24.8839V22.809C92.6288 21.9611 91.6708 21.5973 90.5767 21.5973C88.9573 21.5973 88.0394 22.3927 88.0394 23.8449C88.0394 25.297 88.9573 26.0955 90.5767 26.0955C91.6708 26.0955 92.6288 25.7317 93.2779 24.8839Z" fill="#E4E7E9"/>
<path d="M49.3182 35.1535C49.3182 37.2407 47.6988 38.3444 45.2696 38.3444H40.9614V41.3874H38.8011V31.9594H45.2665C47.6957 31.9594 49.3151 33.0909 49.3151 35.1504M47.1178 35.1689C47.1178 34.0929 46.308 33.7692 45.0935 33.7692H40.9614V36.5717H45.0935C46.308 36.5717 47.1178 36.2479 47.1178 35.1719" fill="#E4E7E9"/>
<path d="M53.4657 31.423H51.3734V41.3905H53.4657V31.423Z" fill="#E4E7E9"/>
<path d="M64.3598 37.2407V39.9754C64.3598 40.5149 64.4556 40.9589 64.6967 41.3905H62.5488C62.3881 41.1223 62.2768 40.7831 62.2768 40.5149V40.5026C61.7112 41.1223 60.6172 41.6618 59.1863 41.6618C57.5947 41.6618 55.5271 41.0298 55.5271 39.1029C55.5271 37.176 57.5916 36.5563 59.1863 36.5563C60.6172 36.5563 61.7112 37.0804 62.2768 37.7155V37.2314C62.2768 35.8564 61.3713 35.2645 59.5911 35.2645C58.5775 35.2645 57.7677 35.4001 56.8777 35.8842L56.2565 34.5091C57.23 34.0097 58.6856 33.689 60.0084 33.689C62.7219 33.689 64.3567 34.9407 64.3567 37.2438M62.3201 39.0073C61.7669 38.1317 60.6605 37.9159 59.7024 37.9159C58.8371 37.9159 57.5699 38.1194 57.5699 39.1029C57.5699 40.0864 58.8402 40.3022 59.7024 40.3022C60.6605 40.3022 61.7669 40.074 62.3201 39.1984V39.0104V39.0073Z" fill="#E4E7E9"/>
<path d="M72.6888 40.9589C72.0553 41.3905 71.1219 41.6741 70.2442 41.6741C68.6773 41.6741 67.4627 40.8263 67.4627 39.1553V35.5327H66.0844V33.9696H67.4627V32.2462H69.555V33.9696H72.6208V35.5327H69.555V38.7915C69.555 39.5468 70.1237 39.9353 70.8654 39.9353C71.3784 39.9353 71.8389 39.7472 72.2561 39.5437L72.6888 40.9589Z" fill="#E4E7E9"/>
<path d="M77.1855 33.9696H80.3039V35.5327H77.2381V41.3905H75.1458V35.5327H73.7674V33.9696H75.1458V33.7938C75.1458 31.9749 76.4283 31.1393 78.0756 31.1393C78.8451 31.1393 79.7754 31.3274 80.3842 31.6388L79.9639 32.9183C79.4632 32.65 78.9935 32.5421 78.533 32.5421C77.7109 32.5421 77.1824 32.8258 77.1824 33.5534V33.9696H77.1855Z" fill="#E4E7E9"/>
<path d="M81.4536 37.6877C81.4536 35.209 83.2615 33.689 86.2068 33.689C89.1521 33.689 90.96 35.2121 90.96 37.6877C90.96 40.1634 89.1366 41.6865 86.2068 41.6865C83.277 41.6865 81.4536 40.1511 81.4536 37.6877ZM88.945 37.6877C88.945 36.1401 87.783 35.3847 86.2037 35.3847C84.6244 35.3847 83.4778 36.1401 83.4778 37.6877C83.4778 39.2354 84.6399 39.9908 86.2037 39.9908C87.7675 39.9908 88.945 39.2231 88.945 37.6877Z" fill="#E4E7E9"/>
<path d="M93.1697 41.3905V33.9696H95.262V35.5049C95.8678 34.3858 97.1534 33.8093 98.5843 33.8093V35.6005C96.9649 35.6005 95.7102 36.2325 95.262 37.5398V41.3905H93.1697Z" fill="#E4E7E9"/>
<path d="M115.014 37.0804V41.3905H112.934V37.1883C112.934 36.0291 112.353 35.357 111.138 35.357C110.072 35.357 109.274 35.9212 108.761 36.9201V39.923L108.774 41.3905H106.682V37.1883C106.682 36.0291 106.1 35.357 104.886 35.357C103.82 35.357 103.05 35.8965 102.522 36.88V41.3905H100.429V33.9696H102.522V35.2892C103.103 34.2933 104.209 33.6983 105.572 33.6983C107.179 33.6983 108.15 34.4937 108.542 35.6776C109.055 34.5061 110.257 33.6983 111.821 33.6983C114.009 33.6983 115.007 35.1658 115.007 37.0804" fill="#E4E7E9"/>
<path d="M125.667 39.1552C125.667 40.5827 124.304 41.6864 121.59 41.6864C119.659 41.6864 117.959 41.0667 116.961 40.2189L117.974 38.9795C118.744 39.6393 120.039 40.0956 121.646 40.0956C122.833 40.0956 123.738 39.8798 123.738 39.3001C123.738 38.7606 122.916 38.5602 121.334 38.4523C119.241 38.3043 117.242 37.7925 117.242 36.1369C117.242 34.6972 118.592 33.6736 121.402 33.6736C122.969 33.6736 124.412 34.173 125.33 34.7773L124.372 36.0969C123.615 35.5974 122.629 35.2614 121.294 35.2614C120.428 35.2614 119.201 35.397 119.201 36.0013C119.201 36.5655 120.215 36.6611 121.618 36.7412C123.955 36.8769 125.667 37.5613 125.667 39.1522" fill="#E4E7E9"/>
</g>
<defs>
<clipPath id="clip0_1054_490">
<rect width="125.333" height="48" fill="white" transform="translate(0.333313 0.5)"/>
</clipPath>
</defs>
</svg>
