<svg width="122" height="10" viewBox="0 0 122 10" fill="none" xmlns="http://www.w3.org/2000/svg">
<path d="M0.0559264 2.40964C38.7116 0.863454 79.0617 0.0401606 117.848 0L117.885 0.963855C89.5077 2.61044 58.0581 5.36145 29.5504 7.69076L0.111787 10L6.558e-05 8.01205C10.1667 7.40964 20.3148 6.84739 30.4814 6.34538C59.7897 4.83936 92.6545 3.39357 121.981 2.40964C93.2131 5.1004 59.7525 6.62651 30.5745 8.41365C20.4079 8.99598 10.2598 9.51807 0.0931669 10L-0.0185547 8.01205L29.4387 6.06426C58.0394 4.25703 89.4518 2.46988 117.829 0L117.866 0.963855C79.1921 2.04819 38.302 3.21285 0.0559264 2.40964Z" fill="#8CA3D9"/>
</svg>
