<svg width="136" height="37" viewBox="0 0 136 37" fill="none" xmlns="http://www.w3.org/2000/svg">
<rect x="0.5" y="1" width="135" height="35" rx="17.5" stroke="#2B3684"/>
<g clip-path="url(#clip0_1054_557)">
<path d="M40.0337 8.2905C40.0337 7.30168 40.8376 6.5 41.823 6.5C42.8084 6.5 43.6123 7.30447 43.6123 8.2905C43.6123 9.27654 42.8084 10.081 41.823 10.081C40.8376 10.081 40.0337 9.27654 40.0337 8.2905ZM43.0373 25.4022C43.0373 26.7933 42.4874 28.095 41.4881 29.0615C40.4887 30.0307 39.1739 30.5419 37.7782 30.4944C35.1515 30.4134 32.9909 28.2961 32.8541 25.6732V17.2235C32.8541 16.5503 33.4012 15.9972 34.074 15.9888C34.0768 15.9888 34.0824 15.9888 34.0852 15.9888C34.4118 15.9888 34.7188 16.1145 34.9533 16.3464C35.1878 16.581 35.319 16.8911 35.319 17.2235V22.8464V24.7095C35.319 24.7095 35.319 24.7318 35.319 24.743V24.7598C35.319 25.5475 35.6679 26.2542 36.2206 26.7374C36.2709 26.7821 36.3211 26.8212 36.3741 26.8603C36.3965 26.8771 36.4188 26.8939 36.4411 26.9106C36.4746 26.9358 36.5109 26.9581 36.5444 26.9804C36.5863 27.0084 36.6309 27.0335 36.6756 27.0587C36.6951 27.0698 36.7147 27.0782 36.7314 27.0894C36.7929 27.1229 36.8543 27.1536 36.9185 27.1788C36.924 27.1788 36.9324 27.1844 36.938 27.1872C37.2116 27.3045 37.5103 27.3771 37.8229 27.3911C38.5515 27.4246 39.2382 27.1676 39.7657 26.6676C40.1621 26.2905 40.4217 25.8129 40.5278 25.2933C40.5641 25.1201 40.5808 24.9441 40.5808 24.7598L40.5892 17.2179C40.5892 16.5419 41.1391 15.9944 41.8119 15.9944C41.9738 15.9944 42.1273 16.0279 42.2669 16.0838C42.2808 16.0894 42.2976 16.095 42.3115 16.1034C42.3171 16.1034 42.3227 16.1089 42.3283 16.1117C42.7414 16.3184 43.0317 16.7654 43.0317 17.2682V25.3994L43.0373 25.4022ZM44.447 20.9609V17.2235C44.447 16.3659 44.0311 15.6034 43.3946 15.1229C43.3695 15.1034 43.3444 15.0866 43.3192 15.067C43.2913 15.0475 43.2606 15.0279 43.2327 15.0084C43.1825 14.9749 43.1322 14.9441 43.0792 14.9134C43.0708 14.9078 43.0624 14.905 43.0541 14.8994C42.7191 14.7179 42.3422 14.6034 41.9403 14.5866C41.2117 14.5503 40.5222 14.8101 39.9974 15.3101C39.4726 15.8128 39.1823 16.4888 39.1823 17.2151L39.1739 24.7654C39.1739 24.8911 39.1544 25.0112 39.1209 25.1257C38.9646 25.6229 38.5012 25.986 37.9513 25.986C37.8257 25.986 37.7057 25.9665 37.5912 25.933C37.5884 25.933 37.5856 25.933 37.5828 25.9302C37.5605 25.9218 37.5382 25.9134 37.5158 25.905C37.0664 25.7235 36.7426 25.2682 36.7286 24.743V16.5866C36.7286 13.7765 39.0148 11.4888 41.823 11.4888C44.6312 11.4888 46.9174 13.7765 46.9174 16.5866C46.9174 18.3994 45.9572 20.0503 44.447 20.9581V20.9609Z" fill="#E4E7E9"/>
<path d="M57.6898 22.0028C57.6898 22.9804 56.7602 23.662 55.0044 23.662C53.751 23.662 52.7294 23.3072 51.9701 22.662L52.6233 21.8882C53.2318 22.4497 54.019 22.7123 55.0323 22.7123C56.0456 22.7123 56.5481 22.5195 56.5481 22.1089C56.5481 21.6983 56.0372 21.5838 54.8955 21.486C53.4775 21.3659 52.1599 21.053 52.1599 19.9888C52.1599 18.9245 53.2653 18.3854 54.7978 18.3854C55.8837 18.3854 56.8188 18.6564 57.4497 19.1452L56.8272 19.9329C56.2801 19.5139 55.6073 19.3435 54.8006 19.338C54.1279 19.3296 53.3044 19.4525 53.3044 19.905C53.3044 20.3296 54.0134 20.3743 54.9988 20.4525C56.5788 20.581 57.6925 20.9134 57.6925 22.0055L57.6898 22.0028Z" fill="#E4E7E9"/>
<path d="M62.8009 21.3212V22.7597C62.8009 23.0447 62.8511 23.2765 62.9767 23.5055H61.849C61.7652 23.3631 61.7066 23.1871 61.7066 23.0447V23.0363C61.4079 23.3631 60.8357 23.6452 60.082 23.6452C59.2446 23.6452 58.1615 23.3128 58.1615 22.296C58.1615 21.2793 59.2474 20.9553 60.082 20.9553C60.8329 20.9553 61.4079 21.2318 61.7066 21.5642V21.31C61.7066 20.5865 61.2321 20.2737 60.297 20.2737C59.7666 20.2737 59.3395 20.3435 58.8733 20.6005L58.5467 19.8771C59.0576 19.6145 59.8224 19.4441 60.5175 19.4441C61.9411 19.4441 62.8009 20.1033 62.8009 21.3156V21.3212ZM61.729 22.2514C61.4387 21.7905 60.858 21.6759 60.3528 21.6759C59.8978 21.6759 59.2334 21.7821 59.2334 22.2988C59.2334 22.8156 59.9006 22.9301 60.3528 22.9301C60.8552 22.9301 61.4387 22.81 61.729 22.3491V22.2486V22.2514Z" fill="#E4E7E9"/>
<path d="M63.9202 23.5056V18.257H65.0201V23.5056H63.9202Z" fill="#E4E7E9"/>
<path d="M68.5066 22.824C69.1793 22.824 69.6064 22.648 70.0084 22.3212L70.5974 22.9665C70.0502 23.4497 69.3496 23.662 68.4508 23.662C66.8429 23.662 65.9133 22.8548 65.9133 21.5559C65.9133 20.257 66.8345 19.4413 68.3726 19.4413C69.7906 19.4413 70.7397 20.1648 70.7397 21.5475C70.7397 21.676 70.7314 21.7402 70.7118 21.8017H66.9685C67.069 22.5028 67.5994 22.824 68.5066 22.824ZM67.0187 21.1006L69.6902 21.0866C69.5199 20.5251 69.0732 20.2765 68.3782 20.2765C67.6831 20.2765 67.1723 20.5475 67.016 21.1006H67.0187Z" fill="#E4E7E9"/>
<path d="M75.8007 22.3268C75.8007 23.0782 75.086 23.6592 73.6596 23.6592C72.6463 23.6592 71.7531 23.3324 71.2283 22.8855L71.7586 22.2318C72.1634 22.5782 72.8445 22.8212 73.6875 22.8212C74.31 22.8212 74.7874 22.7067 74.7874 22.4022C74.7874 22.1173 74.3547 22.0111 73.5256 21.9553C72.4258 21.8771 71.379 21.6089 71.379 20.7346C71.379 19.9748 72.088 19.4357 73.5619 19.4357C74.3854 19.4357 75.1419 19.6983 75.6248 20.0167L75.1223 20.7123C74.7259 20.4497 74.2067 20.2737 73.5061 20.2737C73.0539 20.2737 72.4063 20.3436 72.4063 20.6648C72.4063 20.9637 72.9366 21.0111 73.6764 21.0558C74.9018 21.1257 75.8034 21.4888 75.8034 22.3268H75.8007Z" fill="#E4E7E9"/>
<path d="M81.1825 21.243V23.5056H80.0827V21.3128C80.0827 20.6732 79.7421 20.3268 79.089 20.3268C78.5083 20.3268 78.0254 20.5977 77.7072 21.1564V23.5056H76.6074V18.257H77.7072V20.2849C78.0254 19.7681 78.6563 19.4553 79.4072 19.4553C80.5768 19.4553 81.1797 20.2011 81.1797 21.243H81.1825Z" fill="#E4E7E9"/>
<path d="M82.0116 21.5559C82.0116 20.2514 82.9607 19.4497 84.5071 19.4497C86.0536 19.4497 87.0027 20.2514 87.0027 21.5559C87.0027 22.8603 86.0452 23.662 84.5071 23.662C82.9691 23.662 82.0116 22.8547 82.0116 21.5559ZM85.9447 21.5559C85.9447 20.7402 85.3362 20.3436 84.5071 20.3436C83.6781 20.3436 83.0751 20.7402 83.0751 21.5559C83.0751 22.3715 83.6837 22.7681 84.5071 22.7681C85.3306 22.7681 85.9447 22.3631 85.9447 21.5559Z" fill="#E4E7E9"/>
<path d="M92.4041 19.5977V23.5055H91.3043V22.8184C90.9861 23.3351 90.3552 23.648 89.6043 23.648C88.4347 23.648 87.8317 22.9022 87.8317 21.8603V19.5977H88.9316V21.7905C88.9316 22.4301 89.2721 22.7765 89.9253 22.7765C90.5059 22.7765 90.9888 22.5055 91.3071 21.9469V19.5977H92.4069H92.4041Z" fill="#E4E7E9"/>
<path d="M97.7637 22.3268C97.7637 23.0782 97.0491 23.6592 95.6226 23.6592C94.6093 23.6592 93.7161 23.3324 93.1913 22.8855L93.7217 22.2318C94.1264 22.5782 94.8075 22.8212 95.6505 22.8212C96.273 22.8212 96.7504 22.7067 96.7504 22.4022C96.7504 22.1173 96.3177 22.0111 95.4886 21.9553C94.3888 21.8771 93.342 21.6089 93.342 20.7346C93.342 19.9748 94.051 19.4357 95.5249 19.4357C96.3484 19.4357 97.1049 19.6983 97.5878 20.0167L97.0853 20.7123C96.689 20.4497 96.1698 20.2737 95.4691 20.2737C95.0141 20.2737 94.3693 20.3436 94.3693 20.6648C94.3693 20.9637 94.8996 21.0111 95.6394 21.0558C96.8648 21.1257 97.7665 21.4888 97.7665 22.3268H97.7637Z" fill="#E4E7E9"/>
<path d="M100.912 22.824C101.585 22.824 102.012 22.648 102.414 22.3212L103.003 22.9665C102.456 23.4497 101.755 23.662 100.857 23.662C99.2488 23.662 98.3192 22.8548 98.3192 21.5559C98.3192 20.257 99.2404 19.4413 100.778 19.4413C102.197 19.4413 103.146 20.1648 103.146 21.5475C103.146 21.676 103.137 21.7402 103.118 21.8017H99.3744C99.4749 22.5028 100.005 22.824 100.912 22.824ZM99.4218 21.1006L102.093 21.0866C101.923 20.5251 101.476 20.2765 100.781 20.2765C100.086 20.2765 99.5754 20.5475 99.419 21.1006H99.4218Z" fill="#E4E7E9"/>
</g>
<defs>
<clipPath id="clip0_1054_557">
<rect width="70.2857" height="24" fill="white" transform="translate(32.8571 6.5)"/>
</clipPath>
</defs>
</svg>
