<svg width="26" height="32" viewBox="0 0 26 32" fill="none" xmlns="http://www.w3.org/2000/svg">
<path d="M11.4163 0.544467C12.1223 -0.181489 13.257 -0.181489 13.963 0.544466L24.3003 11.1748C24.9907 11.8847 25.3793 12.8533 25.3793 13.864V30.1109C25.3793 31.1542 24.5677 32 23.5665 32H1.81281C0.811623 32 0 31.1542 0 30.1109V13.864C0 12.8533 0.38862 11.8847 1.07899 11.1748L11.4163 0.544467Z" fill="#D35630"/>
<path d="M15.8069 15.1387C17.1594 15.1387 18.2558 14.0423 18.2558 12.6898C18.2558 11.3373 17.1594 10.2409 15.8069 10.2409C14.4545 10.2409 13.3581 11.3373 13.3581 12.6898C13.3581 14.0423 14.4545 15.1387 15.8069 15.1387Z" fill="white"/>
<path d="M14.3046 17.8102C14.0279 17.8102 13.8036 18.0095 13.8036 18.2554V27.1604C13.8036 27.4064 14.0279 27.6057 14.3046 27.6057H17.31C17.5866 27.6057 17.8109 27.4064 17.8109 27.1604V18.2554C17.8109 18.0095 17.5866 17.8102 17.31 17.8102H14.3046Z" fill="white"/>
</svg>
