<svg xmlns="http://www.w3.org/2000/svg" width="800" height="600" viewBox="0 0 800 600" fill="none">
    <g clip-path="url(#clip0_3386_4656)">
        <rect width="800" height="600" fill="#CCD1D5"/>
        <g clip-path="url(#clip1_3386_4656)">
            <g opacity="0.48">
                <path d="M412.994 355.775H253.533L325.196 130.525C327.702 122.653 338.824 122.653 341.33 130.525L412.994 355.758V355.775Z" fill="#A8B0B8"/>
                <path d="M678.807 244.717C678.807 288.751 644.49 325.912 600.456 325.912C556.422 325.912 522.969 288.751 522.969 244.717C522.969 200.683 556.422 166.519 600.456 166.519C644.49 166.519 678.807 200.683 678.807 244.717Z" fill="#E4E7E9"/>
                <path d="M600.473 327.604C556.812 327.604 521.293 290.41 521.293 244.717C521.293 222.928 529.368 202.748 544.013 187.917C558.708 173.036 578.769 164.825 600.473 164.825C645.354 164.825 680.517 199.92 680.517 244.717C680.517 289.513 644.609 327.604 600.473 327.604ZM600.473 168.211C557.252 168.211 524.679 201.106 524.679 244.717C524.679 288.327 558.674 324.218 600.473 324.218C642.273 324.218 677.131 288.548 677.131 244.717C677.131 200.885 643.458 168.211 600.473 168.211Z" fill="#545C66"/>
                <path d="M600.947 417.688H600.913C599.982 417.671 599.237 416.892 599.254 415.961C599.288 414.674 601.811 287.329 599.254 245.241C599.203 244.31 599.915 243.498 600.846 243.447C601.794 243.396 602.589 244.107 602.64 245.038C605.214 287.261 602.674 414.742 602.64 416.028C602.623 416.943 601.861 417.688 600.947 417.688Z" fill="#545C66"/>
                <path d="M601.828 272.786C601.438 272.786 601.049 272.651 600.727 272.38C600.016 271.77 599.932 270.704 600.524 269.993C601.337 269.044 620.383 246.646 630.168 239.892C630.947 239.367 631.996 239.553 632.521 240.332C633.046 241.094 632.86 242.16 632.081 242.685C622.651 249.169 603.284 271.956 603.097 272.176C602.759 272.566 602.285 272.769 601.811 272.769L601.828 272.786Z" fill="#545C66"/>
                <path d="M601.675 310.082C601.218 310.082 600.761 309.896 600.422 309.523C600.253 309.337 584.221 291.612 576.365 286.38C575.587 285.855 575.383 284.806 575.891 284.027C576.416 283.248 577.466 283.045 578.245 283.553C586.455 289.021 602.268 306.51 602.945 307.255C603.571 307.949 603.521 309.015 602.826 309.642C602.505 309.929 602.098 310.082 601.692 310.082H601.675Z" fill="#545C66"/>
                <path d="M378.254 145.627L247.844 276.036H532.602L402.192 145.627C395.573 139.007 384.856 139.007 378.254 145.627Z" fill="#545C66"/>
                <path d="M438.625 276.036C458.111 276.036 473.788 292.339 472.756 312.046C471.858 329.297 457.722 343.416 440.471 344.331C420.764 345.363 404.461 329.686 404.461 310.2C404.461 290.714 419.765 276.036 438.625 276.036H247.827V475.367H403.056C405.392 475.367 407.288 473.47 407.288 471.134V371.384C407.288 369.048 409.184 367.152 411.521 367.152H465.696C468.032 367.152 469.928 369.048 469.928 371.384V471.134C469.928 473.47 471.824 475.367 474.161 475.367H528.336C530.672 475.367 532.568 473.47 532.568 471.134V276.036H438.591H438.625Z" fill="#545C66"/>
                <path d="M203.251 320.629L247.844 276.036V308.253L219.368 336.729L203.251 320.629Z" fill="#545C66"/>
                <path d="M574.198 317.632L532.602 276.036V308.253L558.081 333.733C559.74 335.392 562.415 335.392 564.074 333.733L574.198 323.609C575.857 321.95 575.857 319.275 574.198 317.616V317.632Z" fill="#545C66"/>
                <path d="M273.069 383.862L125.104 374.381C122.378 374.212 120.55 371.486 121.413 368.896L192.061 156.851C194.346 149.656 204.521 149.656 206.823 156.851L277.319 378.428C278.216 381.221 275.998 384.048 273.069 383.862Z" fill="#E4E7E9"/>
                <path d="M273.323 385.555C273.205 385.555 273.069 385.555 272.951 385.555L124.985 376.074C123.157 375.956 121.515 375.025 120.499 373.501C119.466 371.977 119.212 370.115 119.788 368.371L190.452 156.31C191.722 152.331 195.244 149.758 199.442 149.758C203.641 149.758 207.162 152.331 208.432 156.327L278.927 377.903C279.52 379.748 279.147 381.763 277.962 383.286C276.845 384.708 275.135 385.538 273.34 385.538L273.323 385.555ZM273.171 382.169C274.018 382.22 274.779 381.881 275.287 381.221C275.795 380.561 275.947 379.731 275.694 378.935L205.198 157.359C204.216 154.244 201.575 153.144 199.425 153.144C197.275 153.144 194.651 154.244 193.652 157.359L123.021 369.421C122.767 370.149 122.886 370.945 123.309 371.588C123.749 372.231 124.443 372.637 125.205 372.671L273.154 382.152L273.171 382.169Z" fill="#545C66"/>
                <path d="M199.425 466.09H199.391C198.46 466.09 197.715 465.311 197.732 464.363C197.749 462.873 200.153 314.298 197.732 265.151C197.681 264.22 198.409 263.424 199.341 263.373C200.255 263.339 201.067 264.05 201.118 264.982C203.539 314.247 201.152 462.924 201.118 464.431C201.118 465.362 200.339 466.09 199.425 466.09Z" fill="#545C66"/>
                <path d="M200.458 332.87C200.204 332.87 199.967 332.819 199.73 332.7C198.883 332.294 198.528 331.278 198.934 330.449C203.184 321.612 227.224 301.245 228.24 300.382C228.951 299.772 230.017 299.874 230.627 300.585C231.236 301.296 231.135 302.362 230.424 302.972C230.186 303.175 205.926 323.728 201.982 331.922C201.694 332.531 201.084 332.887 200.458 332.887V332.87Z" fill="#545C66"/>
                <path d="M200.458 367.271C200.119 367.271 199.764 367.169 199.476 366.949C186.999 357.993 177.18 345.939 176.773 345.431C176.181 344.703 176.299 343.637 177.027 343.044C177.755 342.452 178.822 342.57 179.414 343.298C179.516 343.417 189.369 355.521 201.474 364.189C202.236 364.731 202.405 365.798 201.863 366.559C201.524 367.017 201.017 367.271 200.492 367.271H200.458Z" fill="#545C66"/>
                <path d="M348.491 407.039C344.614 406.92 340.89 407.462 337.385 408.545C331.663 384.81 310.332 367.152 284.852 367.152C254.972 367.152 230.745 391.379 230.745 421.26C230.745 426.22 231.473 430.977 232.709 435.548C222.111 436.005 213.663 444.724 213.663 455.441C213.663 466.157 222.348 475.113 233.149 475.35L347.018 475.367C347.188 475.35 347.34 475.367 347.509 475.367C366.962 475.367 382.605 459.131 381.64 439.459C380.776 421.852 366.132 407.53 348.508 407.039H348.491Z" fill="#A8B0B8"/>
                <path d="M252.754 430.233C251.941 430.233 251.23 429.657 251.095 428.827C247.641 409.189 260.812 390.397 280.451 386.943C281.365 386.791 282.245 387.4 282.415 388.315C282.567 389.229 281.957 390.109 281.043 390.278C263.233 393.41 251.298 410.442 254.43 428.235C254.582 429.149 253.973 430.029 253.058 430.199C252.957 430.199 252.855 430.216 252.771 430.216L252.754 430.233Z" fill="#545C66"/>
                <path d="M324.404 433.324C323.642 433.324 322.948 432.816 322.762 432.037C321.306 426.112 322.237 419.983 325.403 414.752C328.569 409.52 333.563 405.83 339.489 404.374C340.386 404.137 341.317 404.712 341.537 405.61C341.757 406.524 341.199 407.438 340.301 407.658C335.256 408.894 330.99 412.043 328.298 416.495C325.606 420.948 324.811 426.179 326.047 431.224C326.267 432.139 325.708 433.053 324.811 433.273C324.675 433.307 324.54 433.324 324.404 433.324Z" fill="#545C66"/>
            </g>
        </g>
    </g>
    <defs>
        <clipPath id="clip0_3386_4656">
            <rect width="800" height="600" fill="white"/>
        </clipPath>
        <clipPath id="clip1_3386_4656">
            <rect width="561" height="350.733" fill="white" transform="translate(119.5 124.634)"/>
        </clipPath>
    </defs>
</svg>
