<svg width="150" height="120" viewBox="0 0 150 120" fill="none" xmlns="http://www.w3.org/2000/svg">
<path d="M0.477295 44.335C0.477295 78.131 42.2444 120 80.5332 120C118.822 120 134.714 85.3735 145.734 53.4305C157.029 20.6858 142.433 -9.83149 110.431 2.99724C69.7197 19.3144 0.477295 10.5373 0.477295 44.335Z" fill="#E4EAF0"/>
<path d="M126.282 106.433C126.282 109.808 123.544 112.541 120.173 112.541L31.5347 112.511C28.165 112.511 25.4325 109.771 25.4341 106.393L25.458 50.5308C25.4548 47.1496 28.1906 44.4165 31.5619 44.4165L120.202 44.4485C123.575 44.4517 126.309 47.1912 126.304 50.5676L126.285 106.433H126.282Z" fill="#FFBE62"/>
<path d="M124.683 45.7783C124.683 50.3068 123.549 56.2836 120.179 56.2836L31.541 56.2532C28.1713 56.2532 27.2418 50.2764 27.2434 45.7447L71.9028 6.53042C71.9028 6.53042 74.7646 3.69008 76.5038 3.68848C78.449 3.68688 81.2678 6.53522 81.2678 6.53522L124.683 45.7783Z" fill="#FFBE62"/>
<g style="mix-blend-mode:multiply">
<path d="M124.683 45.7783C124.683 50.3068 123.549 56.2836 120.179 56.2836L31.541 56.2532C28.1713 56.2532 27.2418 50.2764 27.2434 45.7447L71.9028 6.53042C71.9028 6.53042 74.7646 3.69008 76.5038 3.68848C78.449 3.68688 81.2678 6.53522 81.2678 6.53522L124.683 45.7783Z" fill="#FFBE62"/>
</g>
<path d="M116.955 96.6611C116.952 99.7575 114.446 102.265 111.357 102.27L40.3421 102.239C37.2518 102.239 34.7461 99.7254 34.7493 96.6307L34.7764 20.6584C34.778 17.5637 37.2854 15.0546 40.374 15.0562L111.391 15.085C114.481 15.085 116.984 17.5941 116.984 20.6904L116.955 96.6611Z" fill="#F4F7FA"/>
<path d="M109.101 58.5674C109.101 59.5019 108.344 60.2588 107.413 60.2588H44.3222C43.3896 60.2588 42.6326 59.5019 42.6326 58.5674C42.6326 57.6329 43.3896 56.876 44.3222 56.876H107.413C108.346 56.876 109.101 57.6329 109.101 58.5674Z" fill="#8F9DAB"/>
<path d="M72.3549 66.2368C72.3549 67.1729 71.5979 67.9298 70.6652 67.9298H44.3222C43.3896 67.9298 42.6326 67.1713 42.6326 66.2368C42.6326 65.3023 43.3896 64.5454 44.3222 64.5454H70.6652C71.5979 64.5454 72.3549 65.3023 72.3549 66.2368Z" fill="#8F9DAB"/>
<path d="M123.797 105.08C123.793 108.376 121.198 111.055 117.995 111.053L33.7385 111.02C30.5365 111.023 27.9333 108.339 27.9397 105.043L72.1008 74.7882C72.1008 74.7882 74.7487 72.6983 76.4032 72.7031C78.2494 72.7015 80.605 74.537 80.605 74.537L123.8 105.08H123.797Z" fill="#8F9DAB"/>
<g style="mix-blend-mode:multiply">
<path d="M126.282 106.434C126.282 109.809 123.544 112.542 120.173 112.542L31.5347 112.511C28.165 112.511 25.4325 109.772 25.4341 106.394L25.458 50.5311C25.4548 47.1499 26.8443 46.185 27.6124 45.6665L71.8917 73.2858C71.8917 73.2858 75.2998 75.4685 76.991 75.4685C79.4536 75.4685 82.2516 73.4411 82.2516 73.4411L124.193 45.6025C124.75 46.9275 126.309 47.1915 126.304 50.5695L126.285 106.435L126.282 106.434Z" fill="#8F9DAB"/>
</g>
<path d="M126.282 106.434C126.282 109.808 123.544 112.541 120.173 112.541L31.5347 112.511C28.165 112.511 25.4325 109.772 25.4341 106.394L25.458 50.5309C25.4548 47.1497 26.6686 46.2664 27.5853 45.4375L71.8933 75.4363C71.8933 75.4363 74.5396 77.2781 76.234 77.2781C77.9269 77.2781 80.8415 75.1706 80.8415 75.1706L124.369 45.4887C125.236 46.2728 126.309 47.1897 126.303 50.5661L126.283 106.432L126.282 106.434Z" fill="#FFBE62"/>
<g style="mix-blend-mode:multiply">
<path d="M126.291 105.565C126.29 108.943 125.542 111.549 122.171 111.549L33.5343 111.517C30.1613 111.516 25.4421 109.274 25.4453 105.896L70.4129 74.4361C70.4129 74.4361 75.0459 77.7741 76.7419 77.7725C78.4348 77.7725 82.3443 74.1753 82.3443 74.1753L126.293 105.563L126.291 105.565Z" fill="#FFBE62"/>
</g>
<path d="M126.292 106.434C126.292 109.808 123.556 112.542 120.184 112.542L31.5445 112.511C28.1748 112.511 25.4438 109.772 25.4438 106.394L71.9031 75.4363C71.9031 75.4363 74.6899 73.2985 76.4291 73.2969C78.3742 73.2969 80.8528 75.1707 80.8528 75.1707L126.292 106.434Z" fill="#FFBE62"/>
<path d="M72.1998 25.1537C72.1998 26.7987 70.8695 28.1317 69.2278 28.1317H45.7626C44.1209 28.1317 42.7905 26.7987 42.7905 25.1537C42.7905 23.5087 44.1209 22.1758 45.7626 22.1758H69.2278C70.8695 22.1758 72.1998 23.5087 72.1998 25.1537Z" fill="#8F9DAB"/>
<path d="M109.101 25.1537C109.101 26.7987 107.769 28.1317 106.129 28.1317H98.8769C97.2335 28.1317 95.9048 26.7987 95.9048 25.1537C95.9048 23.5087 97.2335 22.1758 98.8769 22.1758H106.129C107.769 22.1758 109.101 23.5087 109.101 25.1537Z" fill="#8F9DAB"/>
<path d="M109.101 36.187C109.101 37.1215 108.344 37.88 107.413 37.88H44.3222C43.3896 37.88 42.6326 37.1215 42.6326 36.187C42.6326 35.2525 43.3896 34.4956 44.3222 34.4956H107.413C108.346 34.4956 109.101 35.2525 109.101 36.187Z" fill="#8F9DAB"/>
<path d="M109.101 43.4967C109.101 44.4312 108.344 45.1881 107.413 45.1881H44.3222C43.3896 45.1881 42.6326 44.4312 42.6326 43.4967C42.6326 42.5622 43.3896 41.8037 44.3222 41.8037H107.413C108.346 41.8037 109.101 42.5622 109.101 43.4967Z" fill="#8F9DAB"/>
<path d="M109.101 51.2573C109.101 52.1918 108.344 52.9487 107.413 52.9487H44.3222C43.3896 52.9487 42.6326 52.1918 42.6326 51.2573C42.6326 50.3228 43.3896 49.5659 44.3222 49.5659H107.413C108.346 49.5659 109.101 50.3228 109.101 51.2573Z" fill="#8F9DAB"/>
<g style="mix-blend-mode:multiply">
<path d="M124.368 45.4888L124.191 45.6008C124.785 50.0861 124.86 95.9972 124.611 104.368C124.534 106.938 125.234 111.053 116.267 111.415C110.463 111.649 35.2972 111.961 28.2495 111.543C29.1981 112.153 30.3241 112.511 31.5362 112.511L120.175 112.542C123.546 112.542 126.283 109.808 126.283 106.434L126.302 50.5678C126.309 47.1898 125.236 46.2729 124.368 45.4904V45.4888Z" fill="#FFBE62"/>
</g>
<g style="mix-blend-mode:multiply">
<path d="M126.271 41.4532C123.529 37.8528 120.052 36.0766 116.316 36.0766C116.554 35.3101 116.586 34.4588 116.363 33.6123C115.754 31.3032 113.485 29.8999 111.292 30.4791C109.099 31.0584 107.815 33.4011 108.422 35.7102C108.659 36.6095 109.149 37.3712 109.788 37.9312C104.701 41.09 102.5 47.8956 105.046 57.5656C107.307 66.1538 102.437 72.7546 102.437 72.7546C102.437 72.7546 102.468 72.7354 102.532 72.6986C102.484 72.7882 102.468 72.8714 102.488 72.945C102.794 74.1067 111.567 72.7962 122.085 70.0167C123.529 69.6358 124.929 69.2454 126.272 68.8549V41.4549L126.271 41.4532Z" fill="#F4F7FA"/>
</g>
<path d="M126.79 62.1742C137.307 59.3941 145.584 56.1983 145.278 55.0362C144.972 53.874 136.199 55.1856 125.682 57.9657C115.166 60.7458 106.889 63.9416 107.195 65.1038C107.501 66.2659 116.274 64.9543 126.79 62.1742Z" fill="black"/>
<path d="M127.009 60.9076C129.6 60.4 131.451 58.7061 131.142 57.124C130.834 55.542 128.483 54.671 125.891 55.1786C123.299 55.6862 121.448 57.3802 121.757 58.9622C122.066 60.5442 124.417 61.4152 127.009 60.9076Z" fill="#D35630"/>
<g style="mix-blend-mode:multiply">
<path d="M124.757 61.057C125.008 60.1465 125.726 59.1144 126.585 58.676C127.93 57.9879 129.278 57.6646 130.79 57.6534C130.974 57.6534 131.156 57.6646 131.333 57.6902C131.351 57.4886 131.337 57.287 131.287 57.0886C130.901 55.5236 128.51 54.7683 125.947 55.402C123.383 56.0357 121.617 57.8199 122.004 59.3848C122.249 60.385 123.315 61.0522 124.718 61.2411C124.731 61.1803 124.742 61.1163 124.758 61.0587L124.757 61.057Z" fill="#D35630"/>
</g>
<path d="M118.201 31.0033C120.394 30.4237 121.678 28.0814 121.07 25.7716C120.462 23.4618 118.192 22.0593 115.999 22.6389C113.806 23.2186 112.522 25.5609 113.13 27.8707C113.738 30.1804 116.009 31.583 118.201 31.0033Z" fill="#D35630"/>
<g style="mix-blend-mode:multiply">
<path d="M118.201 31.0033C120.394 30.4237 121.678 28.0814 121.07 25.7716C120.462 23.4618 118.192 22.0593 115.999 22.6389C113.806 23.2186 112.522 25.5609 113.13 27.8707C113.738 30.1804 116.009 31.583 118.201 31.0033Z" fill="#D35630"/>
</g>
<path d="M145.015 54.9121C145.015 54.9121 137.528 51.5789 135.268 42.9891C132.232 31.4565 125.328 26.8015 117.956 28.6274V28.6242C117.921 28.6338 117.886 28.6434 117.849 28.653C117.814 28.6626 117.777 28.6706 117.742 28.6802C117.742 28.6802 117.742 28.6802 117.742 28.6834C110.431 30.738 106.716 38.1997 109.752 49.7323C112.014 58.3205 107.143 64.9213 107.143 64.9213C107.143 64.9213 111.461 62.2266 125.697 58.4645C139.931 54.7025 145.015 54.9121 145.015 54.9121Z" fill="#D35630"/>
<g style="mix-blend-mode:multiply">
<path d="M116.634 60.5004C114.161 60.6572 110.727 61.7069 111.846 59.0266C114.488 52.6979 109.595 46.2043 110.861 38.5826C111.216 36.4479 111.589 34.0717 112.621 32.145C112.915 31.5962 113.277 31.0953 113.694 30.644C109.186 34.0028 107.348 40.5876 109.754 49.7327C112.016 58.3209 107.145 64.9217 107.145 64.9217C107.145 64.9217 110.38 62.9039 120.474 59.9227C119.209 60.2028 117.928 60.4188 116.638 60.5004H116.634Z" fill="#D35630"/>
</g>
<path opacity="0.4" d="M130.191 35.1579C131.761 37.7854 131.915 43.1572 131.009 43.7013C130.102 44.2454 129.22 40.008 126.909 37.1277C124.995 34.7402 124.503 32.5592 125.408 32.0151C126.315 31.471 128.621 32.5304 130.191 35.1579Z" fill="white"/>
</svg>
