<svg width="17" height="16" viewBox="0 0 17 16" fill="none" xmlns="http://www.w3.org/2000/svg">
<g id="request_done_fill 1">
<g id="Group">
<path id="Vector" fill-rule="evenodd" clip-rule="evenodd" d="M13.8691 5.15331L13.2824 5.73998C12.9491 6.07331 12.5024 6.25998 12.0291 6.25998C11.5558 6.25998 11.1091 6.07331 10.7758 5.73998L9.93578 4.89998C9.63578 4.59998 9.46911 4.19998 9.46911 3.77331C9.46911 3.34665 9.63578 2.94665 9.93578 2.64665C10.2358 2.34665 10.6358 2.17998 11.0624 2.17998H11.0958C10.1358 1.63998 9.02245 1.33331 7.84245 1.33331C4.16245 1.33331 1.17578 4.31998 1.17578 7.99998C1.17578 11.68 4.16245 14.6666 7.84245 14.6666C11.5224 14.6666 14.5091 11.68 14.5091 7.99998C14.5091 6.97998 14.2824 6.01998 13.8691 5.15331ZM8.50911 10.6733C8.50911 11.04 8.20911 11.34 7.84245 11.34C7.47578 11.34 7.17578 11.04 7.17578 10.6733V8.00665C7.17578 7.63998 7.47578 7.33998 7.84245 7.33998C8.20911 7.33998 8.50911 7.63998 8.50911 8.00665V10.6733ZM8.50911 6.00665H7.17578V4.67331H8.50911V6.00665Z" fill="#06890C"/>
<g id="Group_2">
<g id="Group_3">
<path id="Vector_2" d="M15.276 2.34666L13.356 4.25999L12.576 5.03333C12.4227 5.17999 12.2293 5.25999 12.0293 5.25999C11.8293 5.25999 11.636 5.17999 11.4827 5.03333L10.6427 4.19333C10.416 3.95999 10.416 3.58666 10.6427 3.35333C10.7627 3.23999 10.9093 3.17999 11.0627 3.17999C11.216 3.17999 11.3693 3.23999 11.4827 3.35333L12.0293 3.89999L12.596 3.33333L14.436 1.49999C14.5493 1.38666 14.7027 1.32666 14.856 1.32666C15.0093 1.32666 15.156 1.38666 15.276 1.49999C15.5027 1.73333 15.5027 2.10666 15.276 2.34666Z" fill="#06890C"/>
</g>
</g>
</g>
</g>
</svg>
