<svg width="136" height="37" viewBox="0 0 136 37" fill="none" xmlns="http://www.w3.org/2000/svg">
<rect x="0.5" y="1" width="135" height="35" rx="17.5" stroke="#2B3684"/>
<g clip-path="url(#clip0_1054_538)">
<path d="M90.6134 13L89.0396 14.7325H90.4627L93.11 13H90.6134Z" fill="#E4E7E9"/>
<path d="M54.631 13L53.0631 14.7325H54.4862L57.1335 13H54.631Z" fill="#E4E7E9"/>
<path d="M34.4959 18.874C33.9351 18.6045 33.5612 18.3845 33.3924 18.2415C33.2235 18.0985 33.127 17.961 33.109 17.8455C33.0909 17.7245 33.109 17.532 33.1632 17.2735C33.1994 17.081 33.2657 16.9435 33.3683 16.8445C33.4647 16.7565 33.5974 16.7015 33.7542 16.7015C33.9532 16.7015 34.0617 16.7565 34.0919 16.861C34.122 16.96 34.0979 17.213 34.0256 17.609L33.9351 18.0655H36.4497L36.5462 17.576C36.6306 17.147 36.6608 16.8335 36.6547 16.6355C36.6427 16.4375 36.5462 16.2175 36.3593 15.9865C36.1723 15.75 35.8829 15.563 35.4728 15.4145C35.0688 15.277 34.5562 15.2055 33.9411 15.2055C33.326 15.2055 32.7532 15.2935 32.2527 15.4695C31.7521 15.6455 31.3662 15.8875 31.1069 16.212C30.8476 16.542 30.6486 17.037 30.522 17.7135C30.4315 18.192 30.4436 18.61 30.5582 18.9565C30.6727 19.303 31.1069 19.6935 31.8547 20.117C32.7471 20.6175 33.2416 20.92 33.326 21.0245C33.4105 21.129 33.4105 21.3875 33.326 21.789C33.2718 22.0805 33.1934 22.273 33.0969 22.3665C33.0004 22.4545 32.8497 22.504 32.6507 22.504C32.4637 22.504 32.3491 22.4325 32.319 22.3005C32.2768 22.1685 32.3069 21.8715 32.3914 21.415L32.4939 20.876H29.9793L29.9009 21.283C29.7682 21.9925 29.7561 22.5205 29.8828 22.8725C30.0034 23.2245 30.3049 23.4995 30.7752 23.703C31.2456 23.9065 31.8426 24.011 32.5602 24.011C33.2175 24.011 33.7843 23.912 34.2849 23.725C34.7793 23.5325 35.1653 23.263 35.4246 22.911C35.6899 22.559 35.8949 22.0365 36.0216 21.3435C36.1422 20.733 36.106 20.2545 35.913 19.93C35.714 19.6 35.2437 19.259 34.4959 18.8905" fill="#E4E7E9"/>
<path d="M26.0717 21.547C25.9873 21.9705 25.9089 22.229 25.8305 22.3335C25.7581 22.427 25.6375 22.482 25.4566 22.482C25.2697 22.482 25.1551 22.4105 25.1189 22.2895C25.0827 22.1575 25.1069 21.8825 25.1913 21.437C25.2636 21.052 25.3601 20.7605 25.4687 20.5515C25.5832 20.3535 25.8968 20.095 26.4094 19.7925L26.0717 21.5415V21.547ZM29.0205 15.6565C28.5923 15.3485 27.9049 15.189 26.94 15.189C26.1441 15.189 25.4626 15.3265 24.9079 15.596C24.3591 15.8655 23.9611 16.1845 23.7259 16.542C23.4907 16.8995 23.3098 17.4055 23.1892 18.06L23.0747 18.632H25.74L25.9089 17.741C25.9993 17.268 26.0838 16.9765 26.1501 16.8665C26.2224 16.751 26.3491 16.696 26.5421 16.696C26.7109 16.696 26.8134 16.762 26.8617 16.8995C26.9039 17.026 26.8858 17.323 26.8014 17.763C26.735 18.1205 26.6566 18.3515 26.5662 18.467C26.4817 18.577 25.939 18.808 24.944 19.138C24.0154 19.4405 23.4184 19.71 23.153 19.941C22.8877 20.172 22.6948 20.601 22.5741 21.239L22.4415 21.9375C22.2787 22.7955 22.3751 23.351 22.737 23.604C23.1048 23.857 23.533 23.9835 24.0274 23.9835C24.4073 23.9835 24.745 23.912 25.0526 23.758C25.3481 23.604 25.6194 23.373 25.8546 23.076L25.7099 23.8295H28.4657L29.2918 19.567C29.5632 18.1645 29.6898 17.2405 29.6838 16.7895C29.6718 16.344 29.4547 15.959 29.0265 15.6455" fill="#E4E7E9"/>
<path d="M49.7525 16.3C49.7223 15.981 49.5716 15.717 49.3062 15.508C49.0349 15.2935 48.661 15.189 48.1726 15.189C47.7866 15.189 47.4248 15.266 47.0992 15.431C46.7675 15.5795 46.4781 15.816 46.2127 16.124L46.4117 15.343H43.5293L41.889 23.835H44.7172L45.8328 18.0985C45.9534 17.455 46.0559 17.0645 46.1343 16.9215C46.2188 16.773 46.3575 16.696 46.5565 16.696C46.7554 16.696 46.8519 16.7565 46.87 16.883C46.8881 17.015 46.8338 17.367 46.7313 17.9555L45.5916 23.835H48.4258L49.5716 17.884C49.7163 17.147 49.7766 16.6135 49.7525 16.3Z" fill="#E4E7E9"/>
<path d="M90.2215 17.686L89.4616 21.5965C89.3953 21.9705 89.3169 22.207 89.2446 22.3115C89.1662 22.4215 89.0516 22.482 88.8827 22.482C88.7139 22.482 88.6234 22.4105 88.5873 22.295C88.5571 22.174 88.5752 21.9155 88.6536 21.514L89.3953 17.686C89.4797 17.257 89.5642 16.9765 89.6365 16.8665C89.7149 16.751 89.8355 16.696 90.0044 16.696C90.1732 16.696 90.2757 16.7565 90.2999 16.8665C90.33 16.9765 90.2998 17.257 90.2215 17.686ZM93.0557 16.982C93.0255 16.685 92.9049 16.4045 92.712 16.124C92.513 15.8435 92.2114 15.6235 91.7833 15.453C91.3612 15.277 90.8365 15.189 90.1973 15.189C89.4375 15.189 88.7923 15.3265 88.2556 15.596C87.7189 15.8655 87.3088 16.223 87.0375 16.6685C86.7661 17.1085 86.5551 17.73 86.3983 18.5165L85.9762 20.689C85.8375 21.415 85.7832 21.9485 85.8194 22.317C85.8495 22.6745 85.9641 22.9825 86.151 23.2355C86.344 23.494 86.6455 23.681 87.0556 23.8075C87.4656 23.934 87.9842 23.9945 88.6114 23.9945C89.1722 23.9945 89.6848 23.923 90.1431 23.78C90.6074 23.6315 91.0054 23.4005 91.337 23.098C91.6747 22.7845 91.922 22.449 92.0727 22.097C92.2235 21.734 92.3743 21.1785 92.525 20.4085L92.923 18.335C93.0376 17.7355 93.0798 17.279 93.0496 16.9875" fill="#E4E7E9"/>
<path d="M42.3292 17.2295L42.691 15.343H38.0779L37.7462 17.048H39.6639L36.5583 22.0585L36.2206 23.835H41.0508L41.3825 22.13H39.29L42.3292 17.2295Z" fill="#E4E7E9"/>
<path d="M20.0655 13.473L19.3479 17.1855H18.4615L19.1791 13.473H16.2243L14.2222 23.835H17.1771L18.0153 19.4845H18.9017L18.0635 23.835H21.0123L23.0204 13.473H20.0655Z" fill="#E4E7E9"/>
<path d="M69.6281 21.547C69.5437 21.9705 69.4653 22.229 69.393 22.3335C69.3206 22.427 69.194 22.482 69.0131 22.482C68.8322 22.482 68.7116 22.4105 68.6754 22.2895C68.6392 22.1575 68.6633 21.8825 68.7477 21.437C68.8201 21.052 68.9105 20.7605 69.0251 20.5515C69.1397 20.3535 69.4412 20.095 69.9598 19.7925L69.6281 21.5415V21.547ZM72.5769 15.6565C72.1548 15.3485 71.4553 15.189 70.5025 15.189C69.7005 15.189 69.0251 15.3265 68.4764 15.596C67.9216 15.8655 67.5236 16.1845 67.2944 16.542C67.0593 16.8995 66.8784 17.4055 66.7517 18.06L66.6432 18.632H69.2965L69.4714 17.741C69.5618 17.268 69.6462 16.9765 69.7126 16.8665C69.7789 16.751 69.9116 16.696 70.1045 16.696C70.2734 16.696 70.3819 16.762 70.4241 16.8995C70.4724 17.026 70.4483 17.323 70.3638 17.763C70.2975 18.1205 70.2191 18.3515 70.1287 18.467C70.0382 18.577 69.4955 18.808 68.5005 19.138C67.5718 19.4405 66.9748 19.71 66.7095 19.941C66.4442 20.172 66.2512 20.601 66.1306 21.239L65.9979 21.9375C65.8351 22.7955 65.9316 23.351 66.2994 23.604C66.6613 23.857 67.0954 23.9835 67.5899 23.9835C67.9698 23.9835 68.3075 23.912 68.6151 23.758C68.9166 23.604 69.1819 23.373 69.4171 23.076L69.2724 23.8295H72.0282L72.8543 19.567C73.1257 18.1645 73.2584 17.2405 73.2403 16.7895C73.2342 16.344 73.0111 15.959 72.583 15.6455" fill="#E4E7E9"/>
<path d="M77.3047 21.052C77.172 21.7505 77.0756 22.1575 77.0092 22.2895C76.9429 22.4105 76.8042 22.482 76.5931 22.482C76.4002 22.482 76.2916 22.4105 76.2735 22.295C76.2554 22.1685 76.3037 21.7835 76.4363 21.1125L77.558 15.3375H74.7177L73.6082 21.063C73.4695 21.7945 73.3911 22.284 73.379 22.526C73.3609 22.768 73.3971 23.0045 73.4936 23.2355C73.578 23.4665 73.7529 23.6425 74.0062 23.7745C74.2594 23.912 74.5971 23.9835 75.0192 23.9835C75.3931 23.9835 75.7429 23.912 76.0564 23.769C76.37 23.626 76.6534 23.406 76.9067 23.1255L76.7198 23.8295H79.6022L81.2425 15.3375H78.4082L77.3047 21.0465V21.052Z" fill="#E4E7E9"/>
<path d="M85.1862 16.894H85.952L86.2113 15.552H85.4455L85.7048 14.2155H82.8645L82.6052 15.552H81.9962L81.7369 16.894H82.3459L81.5138 21.206C81.3509 22.0475 81.2726 22.5865 81.2786 22.812C81.2906 23.043 81.3811 23.241 81.556 23.417C81.7309 23.5985 81.954 23.7085 82.2193 23.7635C82.4846 23.8075 82.9429 23.835 83.5882 23.835H84.7279L84.9932 22.4655C84.5289 22.4655 84.2696 22.4325 84.2213 22.3665C84.1731 22.3115 84.2033 21.998 84.3118 21.437L85.1862 16.894Z" fill="#E4E7E9"/>
<path d="M58.8943 13.473L56.8923 23.835H59.8109L61.813 13.473H58.8943Z" fill="#E4E7E9"/>
<path d="M53.4007 21.547C53.3163 21.9705 53.244 22.229 53.1656 22.3335C53.0932 22.427 52.9726 22.482 52.7917 22.482C52.6108 22.482 52.4902 22.4105 52.454 22.2895C52.4118 22.1575 52.4419 21.8825 52.5203 21.437C52.5927 21.052 52.6892 20.7605 52.7977 20.5515C52.9123 20.3535 53.2198 20.095 53.7324 19.7925L53.3947 21.5415L53.4007 21.547ZM56.3495 15.6565C55.9274 15.3485 55.2339 15.189 54.2751 15.189C53.4791 15.189 52.7977 15.3265 52.2429 15.596C51.6942 15.8655 51.2962 16.1845 51.067 16.542C50.8319 16.8995 50.6509 17.4055 50.5243 18.06L50.4158 18.632H53.0691L53.244 17.741C53.3404 17.268 53.4188 16.9765 53.4852 16.8665C53.5515 16.751 53.6842 16.696 53.8771 16.696C54.0399 16.696 54.1485 16.762 54.1967 16.8995C54.245 17.026 54.2269 17.323 54.1364 17.763C54.0701 18.1205 53.9917 18.3515 53.9013 18.467C53.8168 18.577 53.2741 18.808 52.2791 19.138C51.3505 19.4405 50.7535 19.71 50.4881 19.941C50.2228 20.172 50.0298 20.601 49.9092 21.239L49.7766 21.9375C49.6077 22.7955 49.7042 23.351 50.072 23.604C50.4339 23.857 50.868 23.9835 51.3625 23.9835C51.7424 23.9835 52.0861 23.912 52.3816 23.758C52.6892 23.604 52.9605 23.373 53.1837 23.076L53.0389 23.8295H55.8008L56.6209 19.567C56.8923 18.1645 57.0249 17.2405 57.0129 16.7895C57.0008 16.344 56.7837 15.959 56.3556 15.6455" fill="#E4E7E9"/>
<path d="M113.378 15.5355C113.07 15.3045 112.672 15.189 112.178 15.189C111.852 15.189 111.544 15.244 111.237 15.3485C110.935 15.453 110.64 15.6015 110.356 15.805L110.809 13.473H107.975L105.972 23.835H108.807L109.977 17.774C110.061 17.3505 110.145 17.0645 110.236 16.9105C110.32 16.7675 110.453 16.696 110.628 16.696C110.803 16.696 110.923 16.7675 110.947 16.905C110.978 17.0425 110.947 17.3615 110.845 17.862L109.693 23.835H112.533L113.661 17.983C113.818 17.18 113.884 16.6355 113.866 16.333C113.848 16.036 113.685 15.7665 113.384 15.5355" fill="#E4E7E9"/>
<path d="M118.944 15.343L117.84 21.052C117.701 21.745 117.599 22.1575 117.539 22.2895C117.472 22.4105 117.334 22.482 117.128 22.482C116.929 22.482 116.827 22.4105 116.803 22.295C116.785 22.1685 116.839 21.7835 116.966 21.1125L118.081 15.343H115.247L114.144 21.0685C113.999 21.8 113.92 22.2895 113.908 22.5315C113.89 22.7735 113.926 23.01 114.017 23.241C114.107 23.472 114.282 23.648 114.535 23.78C114.795 23.9175 115.132 23.989 115.555 23.989C115.928 23.989 116.272 23.9175 116.586 23.7745C116.905 23.626 117.189 23.4115 117.442 23.131L117.255 23.835H120.138L121.784 15.343H118.95H118.944Z" fill="#E4E7E9"/>
<path d="M65.3949 16.894H66.1608L66.4201 15.552H65.6542L65.9075 14.2155H63.0672L62.8079 15.552H62.1989L61.9396 16.894H62.5486L61.7165 21.206C61.5536 22.0475 61.4752 22.5865 61.4813 22.812C61.4873 23.043 61.5778 23.241 61.7587 23.417C61.9335 23.5985 62.1567 23.7085 62.422 23.7635C62.6934 23.8075 63.1456 23.835 63.7909 23.835H64.9366L65.2019 22.4655C64.7376 22.4655 64.4783 22.4325 64.4301 22.3665C64.3758 22.3115 64.406 21.998 64.5145 21.437L65.3949 16.894Z" fill="#E4E7E9"/>
<path d="M104.435 19.6C104.435 22.031 102.276 24 99.6106 24C96.9452 24 94.7864 22.031 94.7864 19.6C94.7864 17.169 96.9452 15.2 99.6106 15.2C102.276 15.2 104.435 17.169 104.435 19.6Z" fill="#E4E7E9"/>
</g>
<defs>
<clipPath id="clip0_1054_538">
<rect width="107.556" height="11" fill="white" transform="translate(14.2222 13)"/>
</clipPath>
</defs>
</svg>
