<svg width="25" height="25" viewBox="0 0 25 25" fill="none" xmlns="http://www.w3.org/2000/svg">
<path fill-rule="evenodd" clip-rule="evenodd" d="M11.3096 7.54932V9.54932H13.3096V7.54932H11.3096ZM11.3096 7.54932V9.54932H13.3096V7.54932H11.3096ZM11.3096 9.54932H13.3096V7.54932H11.3096V9.54932Z" fill="#D35630"/>
<path d="M12.2696 22.5091C6.77957 22.5091 2.30957 18.0391 2.30957 12.5491C2.30957 7.05911 6.77957 2.58911 12.2696 2.58911C12.8196 2.58911 13.2696 3.03911 13.2696 3.58911C13.2696 4.13911 12.8196 4.58911 12.2696 4.58911C7.87957 4.58911 4.30957 8.15911 4.30957 12.5491C4.30957 16.9391 7.87957 20.5091 12.2696 20.5091C16.6596 20.5091 20.2296 16.9391 20.2296 12.5491C20.2296 11.9991 20.6796 11.5491 21.2296 11.5491C21.7796 11.5491 22.2296 11.9991 22.2296 12.5491C22.2196 18.0391 17.7596 22.5091 12.2696 22.5091Z" fill="#D35630"/>
<path d="M18.5298 10.4792C17.9798 10.4792 17.5298 10.0292 17.5298 9.47922V2.94922C17.5298 2.39922 17.9798 1.94922 18.5298 1.94922C19.0798 1.94922 19.5298 2.39922 19.5298 2.94922V9.47922C19.5298 10.0292 19.0798 10.4792 18.5298 10.4792Z" fill="#D35630"/>
<path d="M21.7898 7.20923H15.2598C14.7098 7.20923 14.2598 6.75923 14.2598 6.20923C14.2598 5.65923 14.7098 5.20923 15.2598 5.20923H21.7898C22.3398 5.20923 22.7898 5.65923 22.7898 6.20923C22.7898 6.75923 22.3398 7.20923 21.7898 7.20923Z" fill="#D35630"/>
<path d="M12.3096 17.5793C11.7596 17.5793 11.3096 17.1293 11.3096 16.5793V12.5493C11.3096 11.9993 11.7596 11.5493 12.3096 11.5493C12.8596 11.5493 13.3096 11.9993 13.3096 12.5493V16.5793C13.3096 17.1293 12.8596 17.5793 12.3096 17.5793Z" fill="#D35630"/>
</svg>
