<svg width="25" height="25" viewBox="0 0 25 25" fill="none" xmlns="http://www.w3.org/2000/svg">
<path fill-rule="evenodd" clip-rule="evenodd" d="M11.3275 7.2019V9.35034H13.476V7.2019H11.3275ZM11.3275 7.2019V9.35034H13.476V7.2019H11.3275ZM11.3275 9.35034H13.476V7.2019H11.3275V9.35034Z" fill="white"/>
<path d="M12.3587 23.2722C6.46129 23.2722 1.65953 18.4705 1.65953 12.573C1.65953 6.67554 6.46129 1.87378 12.3587 1.87378C12.9496 1.87378 13.433 2.35718 13.433 2.948C13.433 3.53882 12.9496 4.02222 12.3587 4.02222C7.64293 4.02222 3.80797 7.85718 3.80797 12.573C3.80797 17.2888 7.64293 21.1238 12.3587 21.1238C17.0746 21.1238 20.9095 17.2888 20.9095 12.573C20.9095 11.9822 21.3929 11.4988 21.9837 11.4988C22.5746 11.4988 23.058 11.9822 23.058 12.573C23.0472 18.4705 18.2562 23.2722 12.3587 23.2722Z" fill="white"/>
<path d="M19.0834 10.3494C18.4926 10.3494 18.0092 9.86597 18.0092 9.27515V2.2605C18.0092 1.66968 18.4926 1.18628 19.0834 1.18628C19.6742 1.18628 20.1576 1.66968 20.1576 2.2605V9.27515C20.1576 9.86597 19.6742 10.3494 19.0834 10.3494Z" fill="white"/>
<path d="M22.5853 6.83667H15.5707C14.9799 6.83667 14.4965 6.35327 14.4965 5.76245C14.4965 5.17163 14.9799 4.68823 15.5707 4.68823H22.5853C23.1761 4.68823 23.6595 5.17163 23.6595 5.76245C23.6595 6.35327 23.1761 6.83667 22.5853 6.83667Z" fill="white"/>
<path d="M12.4017 17.9763C11.8109 17.9763 11.3275 17.4929 11.3275 16.9021V12.573C11.3275 11.9822 11.8109 11.4988 12.4017 11.4988C12.9926 11.4988 13.476 11.9822 13.476 12.573V16.9021C13.476 17.4929 12.9926 17.9763 12.4017 17.9763Z" fill="white"/>
</svg>
