<svg width="222" height="244" viewBox="0 0 222 244" fill="none" xmlns="http://www.w3.org/2000/svg">
<path d="M48.2812 28.4146C44.4321 34.1977 35.8405 49.9269 48.4025 61.9874L81.1304 51.8262C81.1304 51.8262 77.3967 19.9844 55.4289 22.8622C52.5327 23.242 48.9589 27.3964 48.2812 28.4146Z" fill="#101113"/>
<path d="M202.397 78.1069C199.66 77.3023 196.419 79.5747 193.926 83.5953C193.649 81.6635 192.914 80.3109 191.772 79.9752C189.948 79.4392 187.618 81.6479 185.904 85.2273C185.752 82.8267 184.882 81.0328 183.434 80.6083C181.057 79.9104 178.027 83.1589 176.666 87.8642C176.398 88.79 176.216 89.7025 176.112 90.5779C142.294 128.332 106.601 77.3119 106.601 77.3119C100.561 66.0089 84.9763 60.7351 73.8975 62.1657C73.0373 62.1885 72.1593 62.2856 71.2598 62.4583C71.2467 62.4607 71.2337 62.4631 71.2206 62.4655L70.4389 56.5754C74.8778 52.4959 76.0247 44.7975 72.8148 37.7503C69.0124 29.4055 60.5379 25.1354 53.8873 28.2136C50.0016 30.0123 47.5984 33.9202 47.0297 38.5237C44.4099 40.2049 37.7866 45.5122 49.4448 50.3183C50.8713 52.9084 52.7618 55.0357 54.8879 56.5814L51.7375 61.4978C46.9987 61.6813 -0.80007 66.5473 1.10351 188.368C1.03688 188.964 1 189.584 1 190.219C1 191.096 1.06663 191.943 1.19155 192.738C1.20226 193.163 1.21296 193.589 1.22486 194.017H1.45329C2.15761 196.799 3.61028 198.71 5.289 198.71C6.96771 198.71 8.42038 196.799 9.1247 194.017H9.6351C9.96823 198.05 11.735 201.129 13.867 201.129C15.5695 201.129 17.0412 199.164 17.7336 196.317C18.5153 198.394 19.7657 199.741 21.1743 199.741C22.6936 199.741 24.0273 198.176 24.7888 195.816L21.1743 246.438H63.1506L64.1904 224.463L72.3877 224.818L72.8791 246.437H111.55C111.55 246.437 113.748 172.284 104.552 118.307C184.069 171.717 202.539 105.428 204.433 97.4669C204.852 96.4764 205.225 95.4247 205.544 94.3263C207.796 86.5404 206.388 79.2773 202.398 78.1057L202.397 78.1069Z" fill="#C5DAFF"/>
<path d="M47.8686 63.4995C47.8686 63.4995 73.745 83.91 76.5945 63.4995" stroke="#101113" stroke-miterlimit="10" stroke-linecap="round"/>
<path d="M47.5115 42.7987C47.0779 42.7865 46.6651 42.5081 46.2448 42.3925C45.7948 42.2678 45.2553 42.3149 44.9871 42.7606C44.7397 43.1729 44.8395 43.722 45.0958 44.1039C45.4103 44.5709 45.8842 44.8842 46.3462 45.1809C46.4713 44.9618 46.5965 44.7428 46.7217 44.5237C46.2538 44.3138 45.7322 44.3381 45.3313 44.688C44.9573 45.015 44.8738 45.5475 45.0988 45.9886C45.4744 46.7218 46.5488 47.1097 47.2701 46.7051C47.6904 46.4693 47.3148 45.8122 46.8946 46.0479C46.8365 46.0799 46.7366 46.1058 46.6815 46.1073C46.5414 46.1103 46.4982 46.1073 46.3655 46.0692C46.1509 46.0084 45.9364 45.8852 45.8112 45.7209C45.7009 45.5764 45.6785 45.4197 45.7814 45.301C45.9095 45.152 46.139 45.0881 46.3462 45.1809C46.531 45.263 46.7455 45.2356 46.8558 45.044C46.9601 44.8614 46.8931 44.6332 46.7217 44.5237C46.3834 44.3062 46.0138 44.0841 45.765 43.7555C45.677 43.6399 45.604 43.503 45.5876 43.3554C45.5772 43.2581 45.5996 43.1698 45.6472 43.1272C45.6159 43.1546 45.6875 43.1044 45.6681 43.1135C45.6681 43.1135 45.7292 43.0938 45.7471 43.0907C45.7113 43.0968 45.8201 43.0877 45.8216 43.0877C45.8425 43.0877 45.9036 43.0923 45.908 43.0938C46.0556 43.1151 46.2314 43.185 46.3804 43.2428C46.7485 43.3874 47.1062 43.5486 47.5086 43.5593C47.9884 43.573 47.9884 42.8124 47.5086 42.7987H47.5115Z" fill="#101113"/>
<path d="M70.5459 34.789L62.8943 25.7019L55.3261 25.8982L54.356 25.7226C54.356 25.7226 37.6075 38.5765 45.4005 40.6385C50.0643 41.8725 54.0582 36.5986 56.5152 32.1624C58.868 33.2171 63.0705 34.2561 70.5471 34.789H70.5459Z" fill="#101113"/>
<path d="M64.4994 44.1306C64.4994 44.1306 68.5597 47.0709 69.035 43.8447" stroke="#101113" stroke-miterlimit="10" stroke-linecap="round"/>
<path d="M70.0339 57.4517C70.0339 57.4517 67.0055 59.6935 61.4758 59.1722L70.5471 60.4754L70.0339 57.4526V57.4517Z" fill="#101113"/>
<path d="M64.4994 223.76L72.0588 225.272" stroke="#101113" stroke-miterlimit="10" stroke-linecap="round"/>
<path d="M64.4995 223.76L62.9876 246.438" stroke="#101113" stroke-miterlimit="10"/>
<path d="M105.32 118.244C105.32 118.244 179.215 177.044 204.89 97.1564C204.89 97.1564 211.882 69.5401 197.728 79.1294C189.152 84.939 194.214 102.415 196.514 96.8252C199.462 89.6651 192.362 68.6786 186.419 84.7691C181.445 98.2363 183.285 100.943 183.285 100.943C183.285 100.943 184.436 103.533 186.219 100.943C188.623 97.4525 187.992 75.4116 182.187 80.2335C176.383 85.0555 176.657 90.182 176.657 90.182" stroke="#101113" stroke-miterlimit="10" stroke-linecap="round"/>
<path d="M20.6546 246.438L25.1902 196.546" stroke="#101113" stroke-miterlimit="10"/>
<path d="M66.0115 39.3091C66.0115 39.3091 68.5244 39.524 67.0707 40.821" stroke="#101113" stroke-miterlimit="10" stroke-linecap="round"/>
<path d="M58.5179 38.2512C58.6952 38.4481 58.8726 38.6451 59.0499 38.842C59.1984 38.7151 59.3469 38.5872 59.4953 38.4603C59.419 38.4603 59.6252 38.4735 59.5696 38.4664C59.5469 38.4633 59.5036 38.4542 59.5922 38.4725C59.6438 38.4836 59.6541 38.4857 59.6252 38.4776C59.652 38.4877 59.6788 38.4979 59.7057 38.508C59.6644 38.4887 59.7593 38.5405 59.7552 38.5415C59.7552 38.5415 59.7345 38.5253 59.7345 38.5242C59.718 38.505 59.7696 38.5831 59.7675 38.5618C59.7675 38.5598 59.7613 38.5425 59.7572 38.5415C59.7613 38.5435 59.7675 38.6126 59.7696 38.5831C59.7696 38.5689 59.7778 38.5182 59.7634 38.5709C59.749 38.6247 59.7696 38.573 59.7737 38.5598C59.7861 38.5273 59.7242 38.6044 59.7469 38.5902C59.7551 38.5852 59.7634 38.576 59.7696 38.5699C59.7964 38.5415 59.7304 38.6014 59.7222 38.5994C59.7222 38.5994 59.7531 38.5841 59.7531 38.5831C59.7799 38.5649 59.6541 38.6207 59.6933 38.6065C59.7263 38.5943 59.7943 38.5912 59.6273 38.6187C59.6397 38.6166 59.652 38.6156 59.6644 38.6136C59.6335 38.6166 59.5407 38.6247 59.6252 38.6187C59.6789 38.6146 59.5201 38.6065 59.5696 38.6146C59.584 38.6166 59.6211 38.6248 59.6355 38.6237C59.6191 38.6248 59.5283 38.5953 59.5881 38.6146C59.6067 38.6207 59.6273 38.6268 59.6479 38.6329C59.6995 38.6461 59.5716 38.5984 59.6108 38.6187C59.6273 38.6268 59.6459 38.6349 59.6644 38.643C59.6768 38.6501 59.6892 38.6593 59.7036 38.6643C59.6232 38.6319 59.6562 38.6329 59.685 38.6542C59.7098 38.6725 59.7304 38.6928 59.7531 38.7121C59.7861 38.7425 59.7386 38.7019 59.7366 38.6918C59.7407 38.7039 59.7572 38.7202 59.7634 38.7334C59.9284 38.6268 60.0954 38.5192 60.2604 38.4126C60.1572 38.4075 60.3758 38.4248 60.281 38.4136C60.248 38.4095 60.215 38.4065 60.182 38.4024C60.1531 38.3984 60.1263 38.3943 60.0975 38.3902C60.0789 38.3872 59.9779 38.3679 60.0645 38.3852C60.1531 38.4024 60.0356 38.377 60.0212 38.373C59.9943 38.3659 59.9696 38.3588 59.9449 38.3517C59.9201 38.3446 59.8954 38.3354 59.8706 38.3283C59.7902 38.3029 59.9593 38.3659 59.8809 38.3334C59.8356 38.3141 59.7923 38.2948 59.7531 38.2745C59.7325 38.2644 59.7139 38.2532 59.6953 38.242C59.6294 38.2045 59.7551 38.2867 59.7057 38.2471C59.6747 38.2227 59.6417 38.1994 59.6149 38.173C59.6067 38.1659 59.5489 38.109 59.5922 38.1507C59.6335 38.1923 59.584 38.1365 59.5778 38.1263C59.4128 38.2329 59.2458 38.3405 59.0808 38.4471C59.1324 38.4471 59.2417 38.4644 59.087 38.4441C59.1138 38.4481 59.1448 38.4491 59.1716 38.4522C59.2334 38.4593 59.3015 38.4775 59.3654 38.4806C59.2871 38.4633 59.2726 38.4613 59.3221 38.4715C59.3386 38.4755 59.3572 38.4796 59.3737 38.4836C59.3984 38.4897 59.4252 38.4968 59.45 38.5039C59.4829 38.5141 59.5139 38.5243 59.5469 38.5354C59.452 38.4958 59.6294 38.5618 59.5469 38.5354C59.5984 38.5567 59.6459 38.5801 59.6912 38.6055C59.7716 38.6511 59.6356 38.5638 59.6912 38.6044C59.7098 38.6187 59.7304 38.6319 59.7469 38.6461C59.7655 38.6603 59.7819 38.6745 59.7964 38.6897C59.8046 38.6978 59.8129 38.707 59.8211 38.7151C59.7902 38.6786 59.7819 38.6694 59.7964 38.6867C59.8211 38.7202 59.8418 38.7537 59.8583 38.7892C59.9366 38.6938 60.017 38.5984 60.0954 38.5029C60.0191 38.5212 60.1902 38.4918 60.1325 38.4948C60.1119 38.4958 60.0892 38.5019 60.0686 38.5039C60.0521 38.506 60.0315 38.506 60.017 38.509C60.1304 38.4877 60.114 38.505 60.0603 38.505C60.0212 38.505 59.9778 38.5019 59.9387 38.5029C60.0583 38.4979 60.0356 38.511 59.982 38.505C59.9593 38.5019 59.9387 38.4999 59.916 38.4968C59.8954 38.4938 59.8191 38.4776 59.9016 38.4968C59.918 38.5009 59.9799 38.5141 59.9016 38.4968C59.8809 38.4918 59.8624 38.4867 59.8418 38.4806C59.8232 38.4755 59.7593 38.4501 59.8273 38.4776C59.8974 38.506 59.8005 38.4623 59.7799 38.4532C59.718 38.4258 59.8273 38.4938 59.8005 38.4684C59.7902 38.4593 59.7758 38.4501 59.7634 38.44C59.7551 38.4329 59.749 38.4227 59.7387 38.4166C59.8046 38.4532 59.7696 38.4623 59.7572 38.4339C59.7531 38.4237 59.7469 38.4126 59.7407 38.4024C59.7201 38.3679 59.7407 38.4268 59.7469 38.4309C59.7325 38.4136 59.7407 38.3821 59.7428 38.3649C59.7428 38.3557 59.7469 38.3466 59.7469 38.3385C59.751 38.4045 59.7325 38.3831 59.7448 38.3598C59.751 38.3486 59.7551 38.3385 59.7634 38.3273C59.7696 38.3172 59.8005 38.2786 59.7655 38.3202C59.7304 38.3618 59.7861 38.304 59.8005 38.2918C59.8108 38.2837 59.8603 38.2502 59.8067 38.2857C59.7531 38.3212 59.8067 38.2877 59.8191 38.2816C59.8314 38.2755 59.8459 38.2694 59.8583 38.2633C59.9263 38.2288 59.7572 38.2979 59.8397 38.2715H59.32C59.3345 38.2765 59.4108 38.304 59.3427 38.2786C59.2788 38.2552 59.3386 38.2776 59.351 38.2826C59.386 38.2968 59.4211 38.3121 59.4541 38.3283C59.5221 38.3598 59.5819 38.3943 59.6438 38.4288C59.6892 38.4552 59.6273 38.4227 59.6211 38.4136C59.6294 38.4248 59.6541 38.4349 59.6665 38.4441C59.6933 38.4623 59.718 38.4816 59.7428 38.5009C59.7923 38.5395 59.8356 38.5801 59.8747 38.6217C59.883 38.6308 59.8912 38.641 59.8995 38.6491C59.8892 38.64 59.8583 38.5984 59.883 38.6308C59.8995 38.6522 59.916 38.6735 59.9304 38.6958C59.9593 38.7395 59.982 38.7841 60.0005 38.8288C60.0047 38.841 60.0088 38.8542 60.015 38.8664C60.0273 38.9019 60.0067 38.8532 60.0088 38.844C60.0026 38.8653 60.0191 38.8907 60.0212 38.912C60.0273 38.9608 60.0253 39.0085 60.017 39.0572C60.2335 38.976 60.4521 38.8938 60.6687 38.8126C60.547 38.8034 60.4274 38.7922 60.3099 38.777C60.2604 38.7709 60.2109 38.7638 60.1634 38.7557C60.1346 38.7506 60.1057 38.7456 60.0768 38.7405C60.0583 38.7374 60.0397 38.7334 60.0212 38.7293C60.0975 38.7456 60.1098 38.7476 60.0603 38.7374C60.0108 38.7253 59.9614 38.7141 59.9139 38.6999C59.8686 38.6867 59.8253 38.6664 59.7778 38.6552C59.883 38.6796 59.8335 38.6765 59.7902 38.6582C59.7675 38.6481 59.7469 38.639 59.7263 38.6278C59.7118 38.6207 59.685 38.5994 59.6665 38.5953C59.6809 38.6044 59.6953 38.6146 59.7098 38.6237C59.6974 38.6156 59.6871 38.6075 59.6747 38.5994C59.6603 38.5892 59.6479 38.5781 59.6355 38.5669C59.6108 38.5435 59.6149 38.5192 59.6479 38.5852C59.6355 38.5628 59.617 38.5405 59.6087 38.5182C59.6046 38.51 59.6046 38.5029 59.6005 38.4948C59.6376 38.5709 59.6129 38.5395 59.6087 38.5151C59.6087 38.5029 59.6087 38.4918 59.6087 38.4796C59.6087 38.4542 59.6397 38.4065 59.6005 38.4887C59.6087 38.4694 59.6149 38.4501 59.6252 38.4319C59.6314 38.4207 59.6397 38.4095 59.6479 38.3994C59.6768 38.3557 59.5881 38.4583 59.6335 38.4187C59.6562 38.3994 59.6809 38.3811 59.7036 38.3618C59.6273 38.4227 59.6376 38.4014 59.6644 38.3882C59.685 38.3781 59.7077 38.3689 59.7283 38.3588C59.6356 38.4075 59.6479 38.3872 59.6953 38.374C59.7407 38.3608 59.7861 38.3628 59.652 38.3801C59.6871 38.375 59.7263 38.371 59.7613 38.3649C59.7345 38.3669 59.7077 38.3689 59.683 38.371C59.7057 38.371 59.7283 38.371 59.751 38.371C59.6438 38.3537 59.8624 38.3679 59.751 38.371C59.7613 38.373 59.8479 38.3801 59.85 38.3862C59.782 38.371 59.7716 38.3689 59.8232 38.3811C59.8438 38.3862 59.8644 38.3913 59.8851 38.3974C59.9057 38.4024 60.0088 38.4451 60.0273 38.4441C60.0088 38.4369 59.9902 38.4309 59.9717 38.4237C59.9882 38.4298 60.0047 38.4369 60.0191 38.4441C60.0418 38.4542 60.0645 38.4654 60.0871 38.4765C60.0995 38.4826 60.1346 38.509 60.149 38.511C60.1346 38.5019 60.1201 38.4928 60.1057 38.4847C60.1181 38.4928 60.1305 38.5019 60.1408 38.51C60.1511 38.5192 60.1614 38.5273 60.1717 38.5364C60.182 38.5456 60.1902 38.5547 60.1985 38.5638C60.1676 38.5263 60.1614 38.5202 60.1799 38.5456C60.1841 38.5537 60.1923 38.5841 60.2026 38.5892C60.2006 38.577 60.1964 38.5638 60.1944 38.5517C60.1964 38.5608 60.1985 38.5709 60.1985 38.5801C60.1985 38.6166 60.1634 38.6116 60.2088 38.5669C60.2026 38.574 60.2006 38.5872 60.1964 38.5933C60.1944 38.5973 60.1902 38.6024 60.1882 38.6065C60.1696 38.6319 60.1779 38.6237 60.2109 38.5841C60.1964 38.5923 60.182 38.6095 60.1717 38.6197C60.1263 38.6623 60.2583 38.5781 60.1861 38.6105C60.0871 38.6552 60.2645 38.5943 60.1882 38.6136C60.1779 38.6166 60.149 38.6227 60.1428 38.6268L60.2171 38.6116C60.2006 38.6146 60.1841 38.6166 60.1655 38.6187C60.1944 38.6166 60.2212 38.6156 60.25 38.6136C60.2335 38.6136 60.2171 38.6136 60.1985 38.6136C60.2294 38.6156 60.2583 38.6176 60.2892 38.6197C60.2748 38.6187 60.2583 38.6166 60.2439 38.6136C60.3222 38.6156 60.3532 38.6369 60.283 38.6197C60.2109 38.6014 60.3408 38.6369 60.3325 38.6379C60.3263 38.639 60.2892 38.6146 60.2851 38.6126C60.3408 38.6491 60.3531 38.6572 60.3263 38.6359C60.3181 38.6298 60.3119 38.6227 60.3057 38.6156C60.3181 38.6288 60.3284 38.642 60.3408 38.6552C60.3367 38.6481 60.3325 38.641 60.3284 38.6339C60.3387 38.6836 60.3428 38.6948 60.3387 38.6684C60.3387 38.642 60.3346 38.6542 60.3243 38.7039C60.3284 38.6999 60.3346 38.6867 60.3346 38.6836C60.2934 38.7273 60.2851 38.7374 60.3119 38.7151C60.1634 38.7791 60.1243 38.7983 60.1964 38.773C60.215 38.7679 60.2459 38.7618 60.2624 38.7547C60.1779 38.7709 60.1593 38.775 60.2088 38.7659C60.2253 38.7628 60.2418 38.7608 60.2583 38.7587C60.2789 38.7557 60.2995 38.7547 60.3202 38.7516C60.3614 38.7486 60.3367 38.7496 60.2459 38.7567C60.2624 38.7567 60.281 38.7557 60.2975 38.7557C60.3243 38.7557 60.349 38.7557 60.3738 38.7557C60.4624 38.7567 60.2315 38.7405 60.3635 38.7557C60.3882 38.7588 60.413 38.7628 60.4377 38.7659C60.5264 38.778 60.3284 38.7364 60.4088 38.7598C60.4315 38.7659 60.4542 38.7719 60.4748 38.778C60.5862 38.8126 60.415 38.7466 60.4707 38.776C60.4851 38.7841 60.5057 38.7963 60.5243 38.8034C60.4707 38.7679 60.4604 38.7608 60.4893 38.7821C60.4996 38.7892 60.5078 38.7963 60.5161 38.8034C60.7511 38.6877 60.9862 38.572 61.2213 38.4562C61.0831 38.4065 60.9429 38.3567 60.8047 38.308C60.5862 38.2298 60.2212 38.2857 60.0995 38.3994C59.9572 38.5314 60.05 38.6633 60.2851 38.7466C60.4233 38.7963 60.5614 38.8461 60.7016 38.8948C60.8769 38.9577 61.1842 38.9313 61.3265 38.8552C61.4832 38.7719 61.5265 38.6481 61.4069 38.5476C61.1924 38.3659 60.813 38.2674 60.3985 38.2481C59.9696 38.2278 59.4726 38.3344 59.3386 38.5476C59.2004 38.7638 59.4788 39.0014 59.8871 39.0856C60.3387 39.179 60.8522 39.0623 61.0811 38.8572C61.5533 38.4349 60.7697 37.9283 59.883 37.8695C59.4355 37.84 59.0499 37.9355 58.7963 38.1151C58.5901 38.2603 58.5468 38.4491 58.5983 38.6197C58.6602 38.8268 58.9489 38.9912 59.285 39.1069C59.6046 39.2166 60.0047 39.2745 60.3861 39.3029C60.5552 39.3161 60.6955 39.311 60.8357 39.2572C60.9697 39.2064 61.0254 39.1405 61.0398 39.0582C61.1141 38.575 60.6171 38.1111 59.8314 37.8329C59.6912 37.7832 59.452 37.7872 59.3118 37.8329C58.7468 38.0187 58.5241 38.3994 58.8684 38.6968C59.0334 38.8389 59.32 38.9405 59.6355 38.9872C59.9655 39.0359 60.3037 39.0136 60.6109 38.9415C60.8233 38.8917 60.8934 38.7588 60.8481 38.6552C60.6728 38.2512 59.9016 37.9558 59.0767 37.9405C58.7509 37.9344 58.4808 38.108 58.5798 38.2613C58.6891 38.4309 58.8911 38.5872 59.1736 38.6999C59.4953 38.8278 59.85 38.8988 60.2604 38.9202C60.5965 38.9374 60.8439 38.7445 60.7573 38.5994C60.6563 38.4308 60.4315 38.2603 60.1078 38.1771C59.7531 38.0867 59.3056 38.0867 59.0087 38.2309C58.7757 38.3436 58.6973 38.5141 58.7592 38.6684C58.8293 38.843 59.1365 38.9658 59.4953 38.9689C59.6768 38.9699 59.85 38.9191 59.9407 38.843C60.0418 38.7577 60.017 38.6725 59.9407 38.5872C59.7634 38.3902 59.5861 38.1933 59.4087 37.9964C59.3592 37.9415 59.2128 37.8948 59.1015 37.8796C58.9777 37.8634 58.8128 37.8705 58.7035 37.905C58.5942 37.9395 58.4973 37.9923 58.4663 38.0563C58.4334 38.1273 58.4581 38.1862 58.5179 38.2522V38.2512Z" fill="#101113"/>
<path d="M68.6953 36.703C68.6953 36.703 68.6866 36.7042 68.6822 36.7054C68.7063 36.7019 68.7304 36.6984 68.7544 36.695C68.7238 36.6984 68.6942 36.6984 68.6646 36.695C68.6887 36.6984 68.7128 36.7019 68.7369 36.7054C68.7194 36.7019 68.703 36.6984 68.6866 36.6938C68.6778 36.6915 68.6701 36.688 68.6625 36.6846C68.6767 36.6903 68.6898 36.6973 68.7041 36.703C68.6931 36.703 68.6679 36.6834 68.6581 36.6765C68.6504 36.6719 68.6438 36.6661 68.6362 36.6614C68.6723 36.6915 68.6822 36.6996 68.6657 36.6857C68.6548 36.6742 68.6438 36.6638 68.6329 36.6522C68.599 36.6164 68.6723 36.7146 68.6406 36.6614C68.6329 36.6487 68.6274 36.6326 68.6187 36.6198C68.6373 36.6684 68.6417 36.6788 68.6318 36.651C68.6296 36.6418 68.6263 36.6337 68.6252 36.6245L68.288 36.9804C68.3 36.9839 68.3329 36.9989 68.2847 36.9769C68.2354 36.955 68.2704 36.9711 68.2803 36.9769C68.2934 36.9839 68.3383 37.0185 68.2956 36.9839C68.2529 36.948 68.2956 36.985 68.3066 36.9966C68.3121 37.0035 68.3175 37.0104 68.3241 37.0162C68.3416 37.0347 68.2814 36.9504 68.3033 36.9873C68.3121 37.0012 68.3208 37.0151 68.3274 37.0289C68.3318 37.037 68.3351 37.0451 68.3394 37.0532C68.3548 37.0856 68.3241 37.0162 68.3241 37.0151C68.3241 37.0289 68.3372 37.0544 68.3405 37.0682C68.3449 37.0867 68.3482 37.104 68.3504 37.1225C68.3471 37.0971 68.3438 37.0717 68.3405 37.0463C68.346 37.0902 68.346 37.1352 68.3405 37.1792C68.3438 37.1537 68.3471 37.1283 68.3504 37.1029C68.3482 37.1214 68.3449 37.1387 68.3394 37.1572C68.3372 37.1664 68.334 37.1745 68.3318 37.1838C68.3197 37.2277 68.3416 37.1549 68.346 37.1503C68.3362 37.1607 68.3296 37.1849 68.3208 37.1977C68.3143 37.2081 68.2924 37.2381 68.3241 37.1953C68.3559 37.1514 68.3329 37.1826 68.3241 37.1907C68.3197 37.1965 68.3143 37.2011 68.3088 37.2057C68.2781 37.2392 68.3668 37.1653 68.3296 37.1896C68.3153 37.1988 68.3011 37.2069 68.2869 37.2161C68.2485 37.2404 68.3099 37.2011 68.3175 37.2034C68.3132 37.2034 68.2967 37.2115 68.2924 37.2127C68.2726 37.2184 68.254 37.2231 68.2343 37.2265C68.2584 37.2231 68.2825 37.2196 68.3066 37.2161C68.2661 37.2219 68.2267 37.2219 68.1861 37.2161C68.2102 37.2196 68.2343 37.2231 68.2584 37.2265C68.2365 37.2231 68.2146 37.2196 68.1927 37.2127C68.1774 37.208 68.1117 37.1815 68.162 37.2046C68.2146 37.2277 68.1478 37.1953 68.1347 37.1872C68.1248 37.1815 68.1161 37.1745 68.1062 37.1688C68.0679 37.1433 68.1588 37.2184 68.127 37.1849C68.1128 37.1699 68.0974 37.1561 68.0843 37.1399C68.0525 37.104 68.104 37.1607 68.1029 37.1664C68.1029 37.1618 68.0887 37.1433 68.0854 37.1376C68.0799 37.1272 68.0755 37.1168 68.0701 37.1064C68.1073 37.1688 68.0898 37.1607 68.081 37.1306C68.0734 37.1064 68.069 37.0809 68.0646 37.0555C68.0679 37.0809 68.0712 37.1064 68.0745 37.1318C68.0701 37.0936 68.0712 37.0555 68.0745 37.0174C68.0712 37.0428 68.0679 37.0682 68.0646 37.0936C68.0679 37.0682 68.0734 37.0428 68.0799 37.0185C68.0821 37.0127 68.0876 36.9827 68.092 36.9815C68.092 36.9815 68.0569 37.0567 68.0821 37.0093C68.0931 36.9885 68.1029 36.9677 68.1161 36.9469C68.1303 36.9238 68.1555 36.9076 68.1029 36.9631C68.1117 36.9538 68.1193 36.9434 68.127 36.933C68.1423 36.9157 68.1599 36.9007 68.1763 36.8845C68.1993 36.8625 68.1193 36.9261 68.1555 36.903C68.1664 36.896 68.1763 36.8891 68.1861 36.8822C68.196 36.8764 68.2091 36.8706 68.219 36.8648C68.162 36.903 68.1708 36.8845 68.1993 36.8752C68.2223 36.8671 68.2464 36.8614 68.2705 36.8567C68.2464 36.8602 68.2223 36.8637 68.1982 36.8671C68.2376 36.8614 68.2759 36.8625 68.3142 36.8671C68.2902 36.8637 68.2661 36.8602 68.242 36.8567C68.2672 36.8602 68.2934 36.866 68.3175 36.8741C68.3274 36.8775 68.3438 36.8868 68.3537 36.8879C68.334 36.8868 68.2913 36.8567 68.3351 36.8822C68.357 36.8937 68.3767 36.9076 68.3964 36.9215C68.4205 36.9376 68.3394 36.8706 68.3821 36.9099C68.392 36.9191 68.4018 36.9284 68.4106 36.9376C68.4183 36.9457 68.4259 36.9538 68.4336 36.9631C68.4686 37.0035 68.427 36.9665 68.4237 36.948C68.4281 36.97 68.4555 36.9977 68.4654 37.0185C68.4708 37.0289 68.4763 37.0474 68.4829 37.0555C68.4774 37.0405 68.4708 37.0266 68.4654 37.0116C68.4686 37.0197 68.4708 37.0289 68.4741 37.0382C68.4818 37.0648 68.4873 37.0913 68.4916 37.1191C68.4884 37.0936 68.4851 37.0682 68.4818 37.0428C68.484 37.0613 68.4851 37.0798 68.4862 37.0983C68.6417 37.0301 68.7982 36.9619 68.9537 36.8937C68.8705 36.7967 68.7884 36.6996 68.7052 36.6014C68.6143 36.4939 68.4478 36.495 68.346 36.5782C68.2475 36.6591 68.1949 36.8348 68.2759 36.9515C68.2825 36.9608 68.2891 36.97 68.2945 36.9804C68.3088 37.0058 68.3055 37.0278 68.2858 36.9515C68.2913 36.9723 68.2978 36.992 68.3011 37.0139C68.2978 36.9885 68.2945 36.9631 68.2913 36.9376C68.2945 36.9665 68.2945 36.9954 68.2913 37.0243C68.2945 36.9989 68.2978 36.9735 68.3011 36.948C68.2989 36.9677 68.2945 36.9873 68.2891 37.007C68.2869 37.0162 68.2836 37.0243 68.2814 37.0336C68.2683 37.0775 68.3132 36.9654 68.2924 37.0058C68.2825 37.0243 68.2737 37.0416 68.2628 37.0601C68.2398 37.0994 68.277 37.0382 68.2836 37.0336C68.277 37.037 68.2672 37.0544 68.2628 37.0601C68.2507 37.074 68.2376 37.0867 68.2245 37.0994C68.1927 37.1306 68.2836 37.0578 68.2464 37.0809C68.2376 37.0867 68.2288 37.0936 68.2201 37.0983C68.2124 37.1029 68.2048 37.1064 68.1971 37.111C68.1697 37.1272 68.2672 37.0844 68.2288 37.096C68.2091 37.1017 68.1894 37.1075 68.1697 37.111C68.1938 37.1075 68.2179 37.104 68.242 37.1006C68.2179 37.1029 68.1949 37.104 68.1708 37.1006C68.1949 37.104 68.219 37.1075 68.2431 37.111C68.2212 37.1075 68.2015 37.1017 68.1807 37.0936C68.1172 37.0694 68.0263 37.0879 67.9693 37.1225C67.9124 37.1572 67.8587 37.2265 67.8434 37.2947C67.8084 37.4588 67.8905 37.594 68.035 37.6506C68.2825 37.7477 68.5475 37.6102 68.6997 37.4022C68.8497 37.1965 68.9034 36.881 68.749 36.6591C68.6055 36.7759 68.4621 36.8926 68.3186 37.0093C68.4019 37.1064 68.484 37.2034 68.5672 37.3017C68.6406 37.3872 68.7709 37.4045 68.8661 37.3617C68.9625 37.319 69.0391 37.2127 69.0348 37.0983C69.0183 36.6776 68.7074 36.3367 68.3132 36.2893C67.9606 36.2477 67.6233 36.5413 67.5434 36.896C67.5029 37.0786 67.5204 37.2832 67.6189 37.4438C67.7142 37.5986 67.8565 37.7073 68.023 37.7627C68.1631 37.809 68.3329 37.8113 68.4708 37.7546C68.6548 37.6795 68.7851 37.5409 68.853 37.3444C68.911 37.1757 68.8957 36.9792 68.83 36.8151C68.7544 36.6268 68.6154 36.4835 68.4281 36.4222C68.2245 36.3552 68.0405 36.5713 68.0909 36.7782C68.1314 36.9434 68.2354 37.0798 68.369 37.1722C68.5092 37.2693 68.6712 37.2878 68.8333 37.2612C68.8968 37.2508 68.9658 37.1838 68.9964 37.1283C69.0304 37.0659 69.0457 36.9746 69.0238 36.9053C69.0019 36.8359 68.9614 36.7678 68.8979 36.7331C68.8289 36.695 68.7643 36.6915 68.6866 36.7042L68.6953 36.703Z" fill="#101113"/>
<path d="M221.713 26.4768C221.07 11.2328 208.038 -0.609203 192.604 0.0242756C177.169 0.658945 165.179 13.5297 165.821 28.7737C166.193 37.6103 170.734 45.2977 177.488 50.081C182.015 57.6315 188.365 62.2564 195.213 61.9754C202.062 61.6944 208 56.5646 211.877 48.6676C218.205 43.3473 222.084 35.3133 221.711 26.4768H221.713Z" fill="#FDB022"/>
<path d="M191.721 60.4755C191.721 60.4755 190.656 12.0857 194.583 37.9835C198.51 63.8813 183.304 28.3508 190.379 25.2597C197.453 22.1687 197.546 40.1572 197.546 40.1572C197.546 40.1572 194.342 53.4546 191.221 29.083C188.1 4.71145 197.858 23.6452 197.229 60.3799" stroke="#101113" stroke-miterlimit="10"/>
<path d="M183.939 58.3142L184.42 69.8933H184.431C184.901 75.8111 189.635 80.3534 195.205 80.1215C200.773 79.8896 205.115 74.9682 205.094 69.0308H205.105L204.624 57.4517L183.94 58.3155L183.939 58.3142Z" fill="#101113"/>
<g opacity="0.85">
<mask id="mask0_281_3030" style="mask-type:luminance" maskUnits="userSpaceOnUse" x="1" y="27" width="207" height="220">
<path d="M203.1 78.2511C200.353 77.4474 197.101 79.7171 194.6 83.7332C194.321 81.8036 193.583 80.4526 192.437 80.1172C190.607 79.5818 188.27 81.7881 186.549 85.3634C186.396 82.9655 185.524 81.1736 184.071 80.7496C181.685 80.0525 178.644 83.2973 177.279 87.9973C177.01 88.9219 176.827 89.8334 176.723 90.7078C142.787 128.419 106.969 77.457 106.969 77.457C100.908 66.1669 85.2693 60.8991 74.1518 62.328C73.2887 62.3508 72.4076 62.4478 71.505 62.6203C71.4919 62.6227 71.4787 62.6251 71.4656 62.6275L70.6812 56.7441C75.1356 52.6693 76.2865 44.9796 73.0654 37.9404C69.2497 29.6052 60.7457 25.3399 54.0719 28.4146C50.1726 30.2112 47.761 34.1147 47.1903 38.713C44.5614 40.3922 37.915 45.6935 49.6139 50.4941C51.0454 53.0813 52.9424 55.2061 55.0759 56.7501L51.9145 61.6609C47.1593 61.8441 -0.806351 66.7047 1.10387 188.387C1.03701 188.982 1 189.601 1 190.236C1 191.111 1.06686 191.957 1.19222 192.751C1.20296 193.176 1.21371 193.602 1.22564 194.029H1.45487C2.16165 196.808 3.61939 198.717 5.30396 198.717C6.98854 198.717 8.44627 196.808 9.15305 194.029H9.66523C9.99952 198.057 11.7724 201.133 13.9119 201.133C15.6203 201.133 17.0972 199.17 17.792 196.326C18.5764 198.401 19.8312 199.746 21.2447 199.746C22.7693 199.746 24.1077 198.183 24.8718 195.826L21.2447 246.391L63.3818 246.083L64.4109 224.442L72.6368 224.796L74.9744 245.473L111.919 245.683C111.919 245.683 114.14 172.322 104.912 118.406C184.707 171.756 203.241 105.542 205.142 97.5902C205.562 96.6008 205.937 95.5504 206.257 94.4532C208.517 86.6761 207.103 79.4213 203.1 78.2511Z" fill="white"/>
</mask>
<g mask="url(#mask0_281_3030)">
<path d="M120.989 148.018C115.441 150.683 109.879 153.359 104.644 156.616C99.7072 159.687 95.0618 163.291 91.2604 167.721C87.7492 171.813 84.9245 176.581 83.493 181.811C83.1372 183.113 82.8722 184.437 82.6979 185.777C82.5415 186.984 82.4543 188.244 82.7898 189.431C83.1062 190.55 83.8535 191.477 84.9746 191.847C86.2676 192.273 87.6895 191.937 88.9598 191.593C94.5878 190.069 99.8731 187.323 104.375 183.611C106.225 182.086 108.294 180.052 108.426 177.488C108.486 176.329 107.953 175.266 106.999 174.611C106.007 173.929 104.675 173.691 103.492 173.678C98.5431 173.622 94.7239 178.007 92.8041 182.158C91.7738 184.386 91.1064 186.847 91.0921 189.315C91.079 191.703 91.8036 194.155 93.8404 195.574C94.9877 196.373 96.381 196.742 97.7385 196.983C99.0171 197.209 100.314 197.346 101.611 197.391C104.191 197.482 106.786 197.215 109.299 196.629C114.348 195.452 119.105 192.973 122.914 189.438C123.845 188.573 124.716 187.645 125.52 186.662C125.661 186.489 125.618 186.231 125.389 186.161C119.721 184.443 113.444 185.209 108.245 188.004C105.628 189.412 103.241 191.353 101.445 193.736C100.472 195.027 99.712 196.51 99.5126 198.133C99.3275 199.638 99.6487 201.155 100.287 202.519C101.663 205.462 104.348 207.408 107.288 208.587C110.529 209.885 114.066 210.452 117.482 211.082C124.576 212.392 131.775 213.283 138.997 213.29C146.136 213.298 153.317 212.417 160.119 210.182C160.96 209.905 161.794 209.608 162.62 209.292C162.976 209.157 162.822 208.577 162.461 208.715C155.974 211.193 149.079 212.381 142.157 212.636C135.147 212.895 128.126 212.243 121.21 211.124C117.835 210.577 114.445 209.979 111.124 209.158C107.982 208.382 104.763 207.209 102.52 204.762C100.418 202.469 99.3621 199.245 100.632 196.273C101.258 194.809 102.278 193.537 103.378 192.404C104.378 191.374 105.484 190.451 106.675 189.651C111.447 186.439 117.509 185.12 123.166 186.223C123.863 186.36 124.552 186.532 125.232 186.738C125.188 186.572 125.144 186.404 125.101 186.238C121.958 190.077 117.799 193.022 113.184 194.806C108.562 196.594 103.476 197.256 98.567 196.516C97.2454 196.317 95.8843 196.05 94.7012 195.402C93.6363 194.82 92.8196 193.923 92.3266 192.811C91.3786 190.673 91.6019 188.118 92.1284 185.902C92.6835 183.564 93.7103 181.334 95.1071 179.382C96.4419 177.516 98.1957 175.829 100.327 174.922C101.327 174.497 102.407 174.264 103.494 174.277C104.671 174.291 106.086 174.536 106.985 175.355C108.93 177.126 107.159 180.027 105.779 181.529C104.877 182.511 103.795 183.35 102.736 184.154C101.616 185.004 100.452 185.796 99.2523 186.525C96.8717 187.972 94.3466 189.176 91.7225 190.105C90.4581 190.553 89.1651 190.969 87.8531 191.254C86.5864 191.528 85.0713 191.631 84.0923 190.612C83.2924 189.777 83.142 188.515 83.1599 187.408C83.1802 186.159 83.3999 184.901 83.6566 183.68C84.7227 178.608 87.1558 173.901 90.3125 169.825C93.647 165.52 97.779 161.928 102.264 158.876C107.063 155.611 112.229 152.938 117.436 150.397C118.719 149.772 120.004 149.153 121.291 148.536C121.638 148.369 121.336 147.853 120.991 148.018H120.989Z" fill="white"/>
<path d="M12.4759 79.8154C19.2595 78.8284 26.3524 80.8838 31.7261 85.1131C34.3419 87.172 36.7106 89.7999 38.1253 92.8422C39.4959 95.7911 40.1764 99.8072 37.8197 102.459C36.5649 103.871 34.7466 104.556 32.9821 105.077C30.9381 105.681 28.8608 106.184 26.7762 106.625C22.5176 107.527 18.1946 108.121 13.85 108.401C11.6831 108.541 9.51144 108.604 7.33976 108.587C6.25452 108.578 5.16808 108.551 4.08403 108.504C3.08953 108.461 2.02816 108.491 1.05156 108.28C0.711304 108.207 0.302994 108.086 0.0749607 107.803C-0.356031 107.267 0.103615 106.575 0.40925 106.098C0.841436 105.424 1.35242 104.804 1.92429 104.245C3.08833 103.105 4.49115 102.237 5.97396 101.58C9.01956 100.23 12.4245 99.7066 15.7304 99.5641C19.0196 99.4228 22.4866 99.6934 25.5215 101.073C26.972 101.733 28.2972 102.658 29.3407 103.871C30.5883 105.322 31.5518 107.338 30.9345 109.271C30.3519 111.095 28.6327 112.367 27.1607 113.453C25.6862 114.542 24.1306 115.521 22.5188 116.39C15.845 119.992 8.31039 121.708 0.830692 122.565C-1.0461 122.779 -2.92886 122.944 -4.8152 123.063C-5.28917 123.093 -5.8312 123.154 -6.24189 122.865C-6.60364 122.611 -6.75646 122.155 -6.76482 121.727C-6.78392 120.794 -6.1046 120.1 -5.37394 119.622C-3.73831 118.551 -1.78631 117.848 0.0677986 117.269C1.96847 116.675 3.92286 116.261 5.89277 115.981C9.8708 115.415 13.9217 115.387 17.9283 115.578C20.7579 115.714 24.2094 116.176 26.2629 118.353C29.0291 121.288 26.9362 125.332 24.4195 127.607C21.4622 130.282 17.6585 131.852 13.9276 133.095C9.79559 134.473 5.56445 135.554 1.28317 136.346C0.242104 136.539 -0.802546 136.714 -1.84839 136.872C-2.43578 136.961 -3.02317 137.043 -3.61296 137.12C-4.05708 137.177 -4.5406 137.29 -4.9907 137.246C-6.52126 137.095 -4.95847 135.32 -4.39495 134.926C-3.68698 134.432 -2.85364 134.147 -2.02867 133.923C2.11054 132.795 6.45748 132.178 10.7208 131.771C14.9974 131.362 19.3682 131.171 23.659 131.46C25.1752 131.563 26.9935 131.832 28.0668 133.032C29.4744 134.606 28.7068 136.838 27.766 138.435C25.8677 141.655 23.0047 144.255 19.9699 146.374C16.8825 148.53 13.5241 150.28 10.1478 151.931C6.37271 153.778 2.48422 155.433 -1.58216 156.512C-2.59338 156.78 -3.61296 157.012 -4.64089 157.202C-5.41453 157.344 -6.95464 157.737 -7.29132 156.682C-7.55636 155.849 -6.69677 154.919 -6.13922 154.422C-5.44199 153.801 -4.65044 153.265 -3.88994 152.726C-0.918352 150.621 2.26574 148.82 5.58952 147.338C12.3326 144.334 19.6702 142.66 27.0425 142.424C30.7113 142.306 34.3956 142.54 38.0167 143.153C39.7705 143.45 41.5876 143.762 43.265 144.37C45.0702 145.024 46.3787 146.309 46.5625 148.293C46.7273 150.065 46.1638 151.845 45.5059 153.467C44.8636 155.052 44.0243 156.557 43.0453 157.956C41.0802 160.765 38.5277 163.144 35.7065 165.069C29.207 169.503 21.4419 171.335 13.7247 172.168C9.53293 172.619 5.31732 172.804 1.10767 173.004C-3.37537 173.217 -7.85842 173.429 -12.3415 173.642C-14.5263 173.746 -16.7111 173.849 -18.8971 173.953C-19.8916 174 -20.8945 174.09 -21.8902 174.089C-22.5946 174.089 -23.6297 173.991 -23.8243 173.167C-23.8493 173.264 -23.8756 173.361 -23.9007 173.458C-22.2662 171.698 -19.9967 170.844 -17.7319 170.231C-15.0946 169.517 -12.4047 168.965 -9.7173 168.485C-6.92838 167.986 -4.12155 167.596 -1.30278 167.314C0.901131 167.094 3.20653 166.762 5.40208 167.222C7.22276 167.603 9.12701 168.717 8.92285 170.858C8.79391 172.218 7.86984 173.406 7.01263 174.403C6.23422 175.309 5.42357 176.189 4.59263 177.047C1.22348 180.532 -2.52891 183.639 -6.57499 186.302C-11.1201 189.296 -16.0246 191.722 -21.1607 193.511C-21.5213 193.636 -21.3661 194.215 -21.0019 194.088C-12.0824 190.981 -3.85412 185.971 3.00595 179.461C4.71202 177.843 6.40136 176.144 7.86984 174.303C9.11507 172.743 10.2087 170.589 8.99927 168.683C8.09669 167.263 6.33332 166.717 4.75619 166.509C2.46751 166.209 0.0988388 166.56 -2.1791 166.805C-7.48712 167.378 -12.8238 168.267 -17.979 169.675C-20.0743 170.248 -22.1994 171.033 -23.8243 172.529C-24.118 172.799 -24.4785 173.025 -24.3699 173.454C-24.2791 173.812 -23.9962 174.11 -23.687 174.295C-22.868 174.782 -21.84 174.69 -20.9315 174.647C-15.2426 174.378 -9.55374 174.107 -3.86487 173.837C1.57806 173.579 7.03771 173.412 12.4639 172.893C21.8932 171.993 31.4813 169.718 38.8512 163.413C42.0472 160.679 44.681 157.257 46.2067 153.311C46.9481 151.395 47.5582 149.166 46.9446 147.128C46.3202 145.059 44.4684 144.051 42.5164 143.504C38.1205 142.273 33.431 141.796 28.8775 141.796C24.2941 141.796 19.7084 142.349 15.254 143.427C10.7996 144.504 6.47061 146.11 2.39468 148.211C0.328066 149.276 -1.67169 150.47 -3.58788 151.789C-4.51553 152.427 -5.43483 153.087 -6.31353 153.793C-7.02747 154.367 -7.77126 155.192 -7.90498 156.138C-8.02317 156.97 -7.511 157.7 -6.70154 157.907C-5.70465 158.162 -4.53105 157.802 -3.55684 157.597C-0.995955 157.06 1.50643 156.27 3.94435 155.327C8.60528 153.524 13.1803 151.276 17.4675 148.702C21.356 146.368 25.0415 143.523 27.6346 139.744C28.8058 138.037 30.0332 135.742 29.1521 133.645C28.4047 131.867 26.4587 131.203 24.6941 130.966C22.1607 130.626 19.5162 130.723 16.9661 130.791C14.1855 130.865 11.4085 131.066 8.64707 131.393C5.96799 131.711 3.30204 132.143 0.659967 132.694C-1.35293 133.113 -3.85173 133.426 -5.37275 134.968C-5.93865 135.541 -6.59409 136.568 -6.02938 137.353C-5.4396 138.173 -4.09887 137.785 -3.28703 137.676C-0.58287 137.314 2.10576 136.838 4.76933 136.247C7.47825 135.644 10.1597 134.924 12.8054 134.088C15.1394 133.351 17.458 132.529 19.6583 131.446C21.7703 130.406 23.8536 129.108 25.4952 127.398C26.9613 125.871 28.2017 123.853 28.1934 121.668C28.1779 117.581 24.0852 115.796 20.642 115.25C18.499 114.91 16.3047 114.891 14.1401 114.881C11.6246 114.87 9.10552 114.977 6.60791 115.287C4.14492 115.594 1.70103 116.09 -0.656893 116.875C-1.81257 117.26 -2.94677 117.713 -4.04872 118.236C-5.02293 118.698 -6.07594 119.195 -6.76362 120.059C-7.29371 120.724 -7.51935 121.605 -7.24834 122.431C-6.95464 123.326 -6.18101 123.695 -5.2832 123.688C-2.94199 123.669 -0.54944 123.343 1.77147 123.055C6.44912 122.472 11.1005 121.554 15.5716 120.037C19.9759 118.544 24.2022 116.463 27.9116 113.635C29.5843 112.36 31.4228 110.819 31.6903 108.587C31.9494 106.425 30.7029 104.342 29.2249 102.872C26.35 100.016 22.126 99.0946 18.2113 98.9556C14.1437 98.8119 9.81708 99.3185 6.0432 100.906C4.25595 101.657 2.57018 102.693 1.22348 104.105C0.215839 105.162 -1.89615 107.671 0.264788 108.656C1.2199 109.092 2.4114 109.023 3.43336 109.074C4.80634 109.144 6.18169 109.182 7.55705 109.189C10.2719 109.202 12.9868 109.093 15.691 108.865C21.0909 108.407 26.4515 107.472 31.6855 106.063C33.8572 105.479 36.1972 104.859 37.8746 103.263C39.3049 101.901 39.9615 99.9785 39.9675 98.0274C39.9794 93.8675 37.5952 90.0479 34.8266 87.1301C31.9219 84.0698 28.2507 81.7641 24.2703 80.3939C20.4379 79.074 16.3297 78.6548 12.3171 79.2381C11.9386 79.2932 12.0998 79.8705 12.4759 79.8154Z" fill="white"/>
</g>
</g>
<path d="M1.04777 188.42C1.04777 188.42 0.641269 192.994 2.19992 195.935C3.75737 198.876 8.65701 200.748 11.2235 188.42C13.79 176.093 5.93058 183.909 10.2097 196.641C14.4899 209.373 18.8604 190.912 19.2717 188.6C20.205 183.351 16.8219 179.554 16.0053 186.925C16.0053 186.925 16.1592 198.284 21.3367 199.34C26.2123 200.333 27.0577 183.075 27.2045 183.128L111.368 172.355" stroke="#101113" stroke-miterlimit="10" stroke-linecap="round"/>
<path d="M34.2615 119.439L26.7021 182.939" stroke="#101113" stroke-miterlimit="10" stroke-linecap="round"/>
</svg>
