<svg width="136" height="37" viewBox="0 0 136 37" fill="none" xmlns="http://www.w3.org/2000/svg">
<rect x="0.5" y="1" width="135" height="35" rx="17.5" stroke="#2B3684"/>
<path fill-rule="evenodd" clip-rule="evenodd" d="M95.8215 22.4014C96.5685 23.1486 97.5946 23.5567 98.6556 23.5291C99.7187 23.5589 100.747 23.152 101.497 22.4046C102.247 21.6572 102.652 20.6359 102.617 19.5823C102.617 17.1654 100.815 15.6843 98.6556 15.6843C97.5988 15.6429 96.5728 16.0397 95.8236 16.7793C95.0744 17.519 94.6694 18.5347 94.707 19.5823C94.6705 20.6341 95.0739 21.6541 95.8215 22.4014ZM100.531 19.5538C100.531 20.7582 99.7028 21.7347 98.6805 21.7347L98.6762 21.7388C97.6544 21.7388 96.829 20.7582 96.829 19.5538C96.829 18.3494 97.6502 17.3729 98.6805 17.3729C99.7108 17.3729 100.531 18.3494 100.531 19.5538Z" fill="#E4E7E9"/>
<path fill-rule="evenodd" clip-rule="evenodd" d="M46.7807 15.5134C45.4906 15.5032 44.2427 15.9687 43.2794 16.8195L44.3836 17.9221C44.9538 17.3667 45.7317 17.0718 46.5303 17.1084C47.4457 17.1084 48.2132 17.5193 48.2132 18.4755V18.5325C45.5698 18.4755 42.9305 19.0248 42.9305 21.2546C42.9305 23.0652 44.675 23.5942 45.9064 23.5942C47.614 23.5942 48.3076 22.6869 48.3076 22.6869C48.632 23.3061 49.2918 23.68 49.9946 23.643C50.342 23.6496 50.6843 23.5609 50.9839 23.3867L50.9223 22.0846C50.9223 22.0846 50.1014 22.227 50.1014 21.2098V19.5823C50.1014 16.7829 49.1367 15.5134 46.7807 15.5134ZM47.6837 20.0746H48.1269L48.1229 20.7338C48.0198 21.5803 47.2604 22.1948 46.403 22.1254C45.8899 22.1254 44.9622 22.0684 44.9622 21.1569C44.9622 20.2455 46.559 20.0746 47.6837 20.0746Z" fill="#E4E7E9"/>
<path fill-rule="evenodd" clip-rule="evenodd" d="M66.7171 15.5133C65.4301 15.5052 64.1854 15.9706 63.2241 16.8195L64.3204 17.9222C64.8901 17.3667 65.6683 17.0718 66.4667 17.1084C67.3821 17.1084 68.1498 17.5193 68.1498 18.4755V18.5325C65.5063 18.4755 62.8671 19.0249 62.8671 21.2546C62.8671 23.0653 64.6116 23.5942 65.843 23.5942C67.5505 23.5942 68.244 22.6868 68.244 22.6868C68.5686 23.3061 69.2283 23.68 69.9314 23.643C70.2782 23.6496 70.6207 23.5609 70.9204 23.3867L70.8589 22.0847C70.8589 22.0847 70.0378 22.2271 70.0378 21.2099V19.5823C70.0378 16.7829 69.0737 15.5133 66.7171 15.5133ZM67.6325 20.0746H68.072V20.7337C67.9687 21.5803 67.2095 22.1949 66.3518 22.1253C65.8388 22.1253 64.9112 22.0684 64.9112 21.1569C64.9112 20.2455 66.508 20.0746 67.6325 20.0746Z" fill="#E4E7E9"/>
<path d="M55.2816 17.3403V21.0024C55.2816 21.7144 55.5155 22.0847 56.2502 22.0847C56.5058 22.0872 56.76 22.0459 57.0014 21.9626L57.0343 23.3257C56.5568 23.4866 56.0567 23.5718 55.5524 23.578C53.4755 23.578 53.0896 22.4794 53.0896 20.8396V17.3403H51.8582V15.7494H53.0896V13.2552H55.2898V15.7494H57.1163V17.3403H55.2816Z" fill="#E4E7E9"/>
<path d="M58.9594 23.4559V10H61.0773V23.4559H58.9594Z" fill="#E4E7E9"/>
<path d="M83.136 23.6105C82.7236 23.6215 82.3239 23.4692 82.0253 23.1876C81.7261 22.9058 81.553 22.5178 81.5435 22.1091C81.5615 21.2519 82.2709 20.5682 83.136 20.5751C83.701 20.5461 84.2362 20.8285 84.5279 21.3093C84.8191 21.7903 84.8191 22.3913 84.5279 22.8722C84.2362 23.3531 83.701 23.6355 83.136 23.6064V23.6105Z" fill="#E4E7E9"/>
<path d="M92.6093 17.9304C92.3303 17.5601 91.4525 17.3485 90.9384 17.3485C90.1151 17.3201 89.3405 17.7418 88.9239 18.447C88.5067 19.1523 88.5135 20.0275 88.9408 20.7266C89.3681 21.4257 90.1479 21.8362 90.9717 21.7958C91.4885 21.7958 92.3631 21.6778 92.6749 21.3075L93.7794 22.7154C93.1387 23.3339 92.047 23.5495 90.9061 23.5495C88.4431 23.5495 86.5509 22.158 86.5509 19.6067C86.5509 17.0556 88.4723 15.664 90.8897 15.664C91.9978 15.664 93.1679 15.9244 93.7629 16.5428L92.6093 17.9304Z" fill="#E4E7E9"/>
<path d="M114.081 23.4558V19.2444C114.081 18.3615 113.72 17.6169 112.817 17.6169C111.914 17.6169 111.364 18.4306 111.364 19.2892V23.4558H109.274V19.0613C109.29 18.6797 109.147 18.3084 108.877 18.0356C108.607 17.7628 108.236 17.6128 107.85 17.6209C107.03 17.6209 106.57 18.3493 106.57 19.2769V23.4558H104.481V15.68H106.492V16.8153H106.525C106.881 16.1643 107.678 15.6882 108.852 15.6882C109.855 15.6854 110.768 16.2603 111.192 17.1611C111.693 16.2742 112.629 15.7146 113.654 15.6882C115.76 15.6882 116.167 17.2344 116.167 18.6869V23.4558H114.081Z" fill="#E4E7E9"/>
<path d="M77.5659 23.4558V19.2444C77.5659 18.394 77.1556 17.6169 76.2523 17.6169C75.3491 17.6169 74.8282 18.39 74.8282 19.2729V23.4558H72.739V15.68H74.7911V16.8153H74.8239C75.3597 16.076 76.2338 15.6526 77.1513 15.6882C79.2447 15.6882 79.7006 17.1652 79.7006 18.7114V23.4761L77.5659 23.4558Z" fill="#E4E7E9"/>
<path d="M29.6765 23.4721V19.2404C29.6765 18.39 29.2659 17.6128 28.3629 17.6128C27.4599 17.6128 26.9386 18.3859 26.9386 19.2689V23.4476H24.8493V15.672H26.9017V16.8072H26.9345C27.4701 16.0679 28.3443 15.6445 29.2619 15.6802C31.3552 15.6802 31.8109 17.1571 31.8109 18.7033V23.4721H29.6765Z" fill="#E4E7E9"/>
<path fill-rule="evenodd" clip-rule="evenodd" d="M42.0028 14.0731V15.5623H41.2968C40.4736 15.5623 40.311 15.8771 40.1859 16.1191C40.1688 16.1522 40.1525 16.184 40.1351 16.2134C40.8724 16.5985 41.3338 17.3566 41.3337 18.1827C41.3337 19.9812 40.0202 21.0309 37.4384 21.0309C36.9293 21.0689 36.4187 20.9809 35.9525 20.7746C35.9298 20.7857 35.9032 20.7972 35.874 20.8095C35.7017 20.8829 35.4435 20.9927 35.4435 21.3198C35.4435 21.8506 36.2203 21.8445 36.6385 21.8411C36.6691 21.8409 36.6978 21.8406 36.7242 21.8406H39.2567C39.9977 21.7888 40.731 22.0171 41.3091 22.4795C41.7976 22.9189 42.0192 23.3665 42.0192 24.4448C42.0192 25.8078 40.9356 27 37.4096 27C34.7374 27 33.4199 26.1455 33.4199 24.7377C33.4007 24.0236 33.8032 23.3639 34.4502 23.0491C33.9705 22.725 33.6773 22.1921 33.662 21.6168C33.653 20.9185 34.0602 20.2805 34.7005 19.9893C34.1326 19.5009 33.8161 18.7853 33.8386 18.0403C33.8413 17.3423 34.1572 16.6817 34.7005 16.2378C35.4558 15.6631 36.3931 15.3746 37.3439 15.424C37.859 15.423 38.3725 15.479 38.875 15.5908C39.1348 14.659 40.0061 14.026 40.9807 14.061L42.0028 14.0731ZM35.4886 23.4683C35.4886 23.4683 35.0207 23.7653 35.0207 24.1477C35.0125 24.5439 35.2112 24.9162 35.5461 25.1324C35.9935 25.4376 36.2644 25.4864 37.2331 25.4905H37.82C39.7986 25.4905 39.9299 24.7011 39.9258 24.3186C39.9258 24.042 39.7411 23.5497 38.6615 23.5497H36.642C36.2556 23.5712 35.8681 23.5438 35.4886 23.4683ZM39.1787 18.0972C39.2056 18.459 39.0687 18.8139 38.8052 19.0656C38.4618 19.3514 38.0215 19.4969 37.5738 19.4726C37.1264 19.4948 36.6868 19.3496 36.3424 19.0656C36.0731 18.8358 35.9224 18.4981 35.9319 18.146C35.9407 17.8188 36.09 17.5109 36.3424 17.2997C36.6672 17.0487 37.0722 16.9217 37.4835 16.9416C38.8585 16.9416 39.1787 17.6334 39.1787 18.0972Z" fill="#E4E7E9"/>
<path d="M22.4521 15.68H20.3628V23.4557H22.4521V15.68Z" fill="#E4E7E9"/>
<path d="M21.4259 14.3618C21.0137 14.3727 20.6141 14.2205 20.3152 13.9387C20.0164 13.657 19.843 13.269 19.8333 12.8603C19.8535 12.0047 20.5626 11.3235 21.4259 11.3304C21.9911 11.3014 22.5263 11.5837 22.8177 12.0647C23.1091 12.5456 23.1091 13.1465 22.8177 13.6275C22.5263 14.1084 21.9911 14.3908 21.4259 14.3618Z" fill="#E4E7E9"/>
</svg>
