<svg width="182" height="32" viewBox="0 0 182 32" fill="none" xmlns="http://www.w3.org/2000/svg">
<path d="M73.9011 0V25.3289H77.9015V0H73.9011Z" fill="#A8B0B8"/>
<path d="M66.9545 13.8171V20.7104C66.9545 22.0507 67.3964 22.7478 68.7841 22.7478C69.2669 22.7525 69.747 22.6748 70.203 22.5179L70.265 25.0837C69.3632 25.3867 68.4186 25.547 67.4661 25.5587C63.5432 25.5587 62.8144 23.4907 62.8144 20.404V13.8171H60.4885V10.8224H62.8144V6.12744H66.97V10.8224H70.42V13.8171H66.9545Z" fill="#A8B0B8"/>
<path fill-rule="evenodd" clip-rule="evenodd" d="M44.285 12.8367C46.1044 11.2352 48.4615 10.3589 50.8982 10.3782C55.3483 10.3782 57.1703 12.7678 57.1703 18.0373V21.1009C57.1703 23.0157 58.7209 22.7476 58.7209 22.7476L58.8372 25.1986C58.2713 25.5265 57.6247 25.6935 56.9687 25.6811C55.6412 25.7507 54.3949 25.0468 53.7823 23.8813C53.7823 23.8813 52.4721 25.5892 49.2468 25.5892C46.9209 25.5892 43.626 24.5935 43.626 21.1852C43.626 16.988 48.6111 15.954 53.604 16.0612V15.954C53.604 14.154 52.1542 13.3805 50.4253 13.3805C48.9169 13.3116 47.4475 13.8667 46.3705 14.9123L44.285 12.8367ZM53.441 18.9641H52.6037C50.4794 18.9641 47.4635 19.2857 47.4635 21.0014C47.4635 22.717 49.2157 22.8243 50.1848 22.8243C51.8042 22.9551 53.2387 21.7983 53.4333 20.2048L53.441 18.9641Z" fill="#A8B0B8"/>
<path fill-rule="evenodd" clip-rule="evenodd" d="M81.9561 12.8367C83.7717 11.2388 86.1227 10.3628 88.5537 10.3781C93.0047 10.3781 94.8257 12.7679 94.8257 18.0374V21.101C94.8257 23.0158 96.3767 22.7477 96.3767 22.7477L96.4927 25.1986C95.9267 25.5266 95.2797 25.6935 94.6247 25.6811C93.2967 25.7508 92.0507 25.0469 91.4377 23.8812C91.4377 23.8812 90.1277 25.5892 86.9027 25.5892C84.5767 25.5892 81.2817 24.5936 81.2817 21.1852C81.2817 16.9881 86.2667 15.954 91.2597 16.0613V15.954C91.2597 14.1541 89.8097 13.3805 88.0807 13.3805C86.5727 13.3117 85.1027 13.8667 84.0267 14.9124L81.9561 12.8367ZM91.1127 18.964H90.2827C88.1587 18.964 85.1427 19.2857 85.1427 21.0014C85.1427 22.7171 86.8947 22.8242 87.8637 22.8242C89.4837 22.9552 90.9177 21.7984 91.1127 20.2048V18.964Z" fill="#A8B0B8"/>
<path d="M109.045 25.3287V17.4014C109.045 15.8006 108.27 14.3378 106.564 14.3378C104.858 14.3378 103.874 15.793 103.874 17.4549V25.3287H99.9277V10.6919H103.804V12.8289H103.866C104.878 11.4372 106.529 10.6402 108.262 10.7073C112.216 10.7073 113.077 13.4875 113.077 16.3981V25.3669L109.045 25.3287Z" fill="#A8B0B8"/>
<path d="M18.5916 17.3939V25.3595H22.623V16.3828C22.623 13.4724 21.7624 10.6922 17.8085 10.6922C16.0755 10.6251 14.4243 11.4221 13.4126 12.8137H13.3506V10.6768H9.47412V25.3134H13.4204V17.4475C13.4204 15.7854 14.405 14.3302 16.1106 14.3302C17.8162 14.3302 18.5916 15.7931 18.5916 17.3939Z" fill="#A8B0B8"/>
<path fill-rule="evenodd" clip-rule="evenodd" d="M41.8737 7.6671V10.4703H40.5403C38.9856 10.4703 38.6783 11.0628 38.4421 11.5182L38.4408 11.5208C38.4089 11.5823 38.3784 11.6412 38.3461 11.6958C39.7387 12.4207 40.6102 13.8479 40.61 15.4028C40.61 18.7882 38.1291 20.7642 33.2525 20.7642C32.291 20.8358 31.3265 20.67 30.446 20.2817C30.4032 20.3027 30.3528 20.3242 30.2978 20.3475C29.9723 20.4855 29.4846 20.6923 29.4846 21.308C29.4846 22.3071 30.9519 22.2956 31.7417 22.2893L31.8224 22.2887C31.8505 22.2885 31.8776 22.2884 31.9035 22.2884H36.687C38.0865 22.1909 39.4716 22.6205 40.5635 23.4909C41.4861 24.3181 41.9047 25.1606 41.9047 27.1903C41.9047 29.7561 39.858 32.0002 33.1982 32.0002C28.151 32.0002 25.6624 30.3918 25.6624 27.7417C25.6262 26.3975 26.3864 25.1557 27.6084 24.5632C26.7024 23.9531 26.1486 22.95 26.1198 21.8671C26.1028 20.5526 26.8718 19.3516 28.0813 18.8035C27.0085 17.8842 26.4108 16.5371 26.4532 15.1347C26.4583 13.8208 27.055 12.5774 28.0813 11.7418C29.5078 10.6601 31.2783 10.1169 33.0741 10.2099C34.0469 10.2081 35.0169 10.3134 35.966 10.5239C36.4567 8.7699 38.1024 7.5784 39.9432 7.6442L41.8737 7.6671ZM29.5698 25.3522C29.5698 25.3522 28.686 25.9113 28.686 26.6312C28.6706 27.3769 29.0459 28.0777 29.6784 28.4847C30.5234 29.0592 31.0351 29.1511 32.8647 29.1588H33.9734C37.7104 29.1588 37.9585 27.6729 37.9507 26.9529C37.9507 26.4321 37.6018 25.5054 35.5628 25.5054H31.7484C31.0185 25.5459 30.2865 25.4944 29.5698 25.3522ZM36.5397 15.2419C36.5904 15.923 36.3318 16.5909 35.8342 17.0648C35.1855 17.6027 34.354 17.8766 33.5083 17.8308C32.6632 17.8727 31.833 17.5993 31.1824 17.0648C30.6738 16.6322 30.3891 15.9966 30.4071 15.3338C30.4237 14.7179 30.7058 14.1382 31.1824 13.7407C31.796 13.2683 32.5608 13.0292 33.3377 13.0667C35.9349 13.0667 36.5397 14.3688 36.5397 15.2419Z" fill="#A8B0B8"/>
<path d="M1 10.6919H4.9462V25.3286H1V10.6919Z" fill="#A8B0B8"/>
<path d="M0.9102 7.41414C1.4746 7.94444 2.2294 8.23094 3.0081 8.21044C4.0756 8.26504 5.0865 7.73354 5.6369 6.82824C6.1872 5.92294 6.1872 4.79174 5.6369 3.88644C5.0865 2.98114 4.0756 2.44964 3.0081 2.50434C1.3774 2.49134 0.0380001 3.77354 0 5.38414C0.0181999 6.15344 0.3457 6.88384 0.9102 7.41414Z" fill="#A8B0B8"/>
<path d="M134.303 13.8325C135.274 13.8325 136.932 14.2308 137.459 14.9278L139.638 12.316C138.514 11.1518 136.304 10.6616 134.211 10.6616C129.645 10.6616 126.016 13.2811 126.016 18.0833C126.016 22.8857 129.59 25.5051 134.242 25.5051C136.397 25.5051 138.459 25.0992 139.669 23.935L137.583 21.2849C136.994 21.9819 135.342 22.204 134.366 22.204C132.81 22.2801 131.337 21.5073 130.53 20.1913C129.723 18.8754 129.71 17.2279 130.498 15.9004C131.285 14.5729 132.748 13.779 134.303 13.8325Z" fill="#A8B0B8"/>
<path fill-rule="evenodd" clip-rule="evenodd" d="M143.526 23.3439C144.937 24.7505 146.875 25.5186 148.879 25.4668C150.887 25.5228 152.83 24.7568 154.246 23.35C155.663 21.9432 156.428 20.0207 156.362 18.0374C156.362 13.4879 152.957 10.6999 148.879 10.6999C146.883 10.622 144.945 11.3689 143.53 12.7612C142.115 14.1535 141.35 16.0654 141.421 18.0374C141.352 20.0173 142.114 21.9373 143.526 23.3439ZM152.422 17.9838C152.422 20.2509 150.857 22.089 148.926 22.089L148.918 22.0967C146.988 22.0967 145.429 20.2509 145.429 17.9838C145.429 15.7166 146.98 13.8785 148.926 13.8785C150.872 13.8785 152.422 15.7166 152.422 17.9838Z" fill="#A8B0B8"/>
<path d="M119.566 25.62C118.787 25.6406 118.032 25.354 117.468 24.8238C116.903 24.2935 116.576 23.563 116.558 22.7937C116.592 21.1802 117.932 19.8933 119.566 19.9062C120.633 19.8516 121.644 20.3832 122.195 21.2883C122.745 22.1936 122.745 23.325 122.195 24.2302C121.644 25.1355 120.633 25.667 119.566 25.6123V25.62Z" fill="#A8B0B8"/>
<path d="M178.015 25.3287V17.4014C178.015 15.7394 177.333 14.3378 175.627 14.3378C173.922 14.3378 172.883 15.8695 172.883 17.4856V25.3287H168.936V17.0567C168.966 16.3383 168.695 15.6395 168.185 15.126C167.676 14.6125 166.974 14.33 166.246 14.3453C164.696 14.3453 163.828 15.7164 163.828 17.4626V25.3287H159.882V10.6919H163.68V12.8289H163.742C164.416 11.6034 165.92 10.7073 168.138 10.7073C170.032 10.702 171.757 11.7841 172.557 13.4799C173.504 11.8104 175.272 10.757 177.209 10.7073C181.186 10.7073 181.954 13.6178 181.954 16.352V25.3287H178.015Z" fill="#A8B0B8"/>
</svg>
