<svg width="136" height="37" viewBox="0 0 136 37" fill="none" xmlns="http://www.w3.org/2000/svg">
<rect x="0.5" y="1" width="135" height="35" rx="17.5" stroke="#2B3684"/>
<path d="M55.2241 23.4138C54.49 23.4138 53.8259 23.2263 53.2316 22.8479C52.6373 22.4694 52.167 21.9601 51.8174 21.3199C51.4679 20.6796 51.2931 19.9616 51.2931 19.1622C51.2931 18.3629 51.4615 17.6448 51.8016 17.0046C52.1511 16.3538 52.6215 15.841 53.2157 15.4625C53.8195 15.084 54.4869 14.8965 55.2241 14.8965C55.9614 14.8965 56.6256 15.084 57.2167 15.4625C57.8205 15.841 58.2908 16.3538 58.6308 17.0046C58.9804 17.6448 59.1552 18.3629 59.1552 19.1622C59.1552 19.9616 58.9804 20.6796 58.6308 21.3199C58.2908 21.9601 57.8236 22.4694 57.2294 22.8479C56.6351 23.2263 55.9677 23.4138 55.2209 23.4138H55.2241ZM55.2241 21.5427C55.6118 21.5427 55.955 21.4366 56.2569 21.2279C56.5684 21.0192 56.8131 20.7362 56.991 20.379C57.1785 20.0111 57.2739 19.6079 57.2739 19.1658C57.2739 18.7236 57.1785 18.3098 56.991 17.9526C56.8131 17.5953 56.5684 17.3124 56.2569 17.1037C55.955 16.8844 55.6118 16.7747 55.2241 16.7747C54.8364 16.7747 54.5027 16.8844 54.1913 17.1037C53.8799 17.3124 53.6352 17.5953 53.4572 17.9526C53.2793 18.3098 53.1871 18.713 53.1871 19.1658C53.1871 19.6185 53.2761 20.0111 53.4572 20.379C53.6352 20.7362 53.8799 21.0192 54.1913 21.2279C54.5027 21.4366 54.846 21.5427 55.2241 21.5427Z" fill="#E4E7E9"/>
<path d="M60.4655 23.4138V15.0587H62.3013V15.7472C62.828 15.1813 63.4811 14.8965 64.2575 14.8965C64.8023 14.8965 65.2807 15.0407 65.69 15.3291C66.1084 15.6066 66.4364 15.9959 66.6681 16.5005C66.8999 16.9907 67.0172 17.571 67.0172 18.2342V23.4138H65.1814V18.555C65.1814 18.0108 65.052 17.5818 64.7932 17.2719C64.5344 16.9511 64.1823 16.7925 63.7369 16.7925C63.4239 16.7925 63.147 16.8682 62.9062 17.0159C62.6655 17.1565 62.4638 17.3584 62.3043 17.6251V23.4138H60.4685H60.4655Z" fill="#E4E7E9"/>
<path d="M72.1528 23.4138C71.4413 23.4138 70.7915 23.226 70.2063 22.8469C69.6304 22.4678 69.1745 21.9576 68.8358 21.3164C68.497 20.6751 68.3276 19.9559 68.3276 19.1552C68.3276 18.3544 68.4877 17.6352 68.808 16.994C69.1376 16.3527 69.5811 15.8425 70.1355 15.4634C70.6929 15.0843 71.3151 14.8965 71.9988 14.8965C72.6825 14.8965 73.2923 15.0914 73.822 15.4811C74.3518 15.8708 74.7676 16.3952 75.0694 17.0577C75.3805 17.7203 75.5345 18.4714 75.5345 19.311V19.8779H70.2432C70.3264 20.2039 70.4588 20.4979 70.6406 20.7601C70.8315 21.0223 71.0656 21.2278 71.3397 21.3766C71.623 21.5254 71.9249 21.5963 72.2452 21.5963C72.5655 21.5963 72.858 21.5396 73.1229 21.4227C73.397 21.3057 73.6311 21.1428 73.822 20.9337L75.054 22.2269C74.6167 22.6379 74.1639 22.9355 73.6988 23.1268C73.243 23.3146 72.7256 23.4102 72.1497 23.4102L72.1528 23.4138ZM70.2217 18.3367H73.6896C73.625 18.0108 73.5079 17.7274 73.3324 17.4864C73.1691 17.2349 72.9659 17.04 72.7287 16.9018C72.5008 16.753 72.2452 16.6822 71.9618 16.6822C71.6785 16.6822 71.4044 16.7495 71.1672 16.8877C70.9301 17.0259 70.7299 17.2172 70.5636 17.4723C70.4096 17.7132 70.2925 18.0037 70.2217 18.3403V18.3367Z" fill="#E4E7E9"/>
<path d="M77.087 25.3761C76.9108 25.3761 76.7379 25.3665 76.5684 25.3473C76.4088 25.3377 76.2758 25.3249 76.1695 25.3057V23.6252C76.3656 23.6637 76.6016 23.6829 76.8776 23.6829C77.6189 23.6829 78.1309 23.3468 78.4168 22.6714L78.5365 22.3865L75.5345 14.8965H77.7685L79.69 19.9539L81.8643 14.8965H84.0517L80.5012 22.9147C80.2352 23.5132 79.9427 23.9933 79.6302 24.3518C79.3144 24.7135 78.9487 24.9728 78.5365 25.136C78.1309 25.2961 77.6488 25.3793 77.087 25.3793V25.3761Z" fill="#E4E7E9"/>
<path d="M86.6724 23.4138V13.3603L88.6918 12.931V16.549C89.2712 16.0423 89.9895 15.7873 90.8436 15.7873C91.4428 15.7873 91.9692 15.9164 92.4194 16.1746C92.8795 16.4231 93.2404 16.7717 93.4953 17.2235C93.7502 17.6625 93.8793 18.1821 93.8793 18.7759V23.4138H91.8599V19.0632C91.8599 18.5758 91.7176 18.1918 91.4329 17.9142C91.1482 17.627 90.7609 17.485 90.2709 17.485C89.9266 17.485 89.622 17.5527 89.3572 17.6851C89.0924 17.8109 88.8706 17.9917 88.6951 18.2305V23.4138H86.6757H86.6724Z" fill="#E4E7E9"/>
<path d="M97.9443 23.4138C97.4096 23.4138 96.9319 23.2733 96.5144 22.9958C96.1058 22.7076 95.7784 22.3113 95.5381 21.8105C95.3068 21.3097 95.1896 20.7296 95.1896 20.0775V14.9002H97.0221V19.7568C97.0221 20.2901 97.1513 20.7188 97.4096 21.0395C97.677 21.3601 98.0344 21.5187 98.479 21.5187C98.7824 21.5187 99.0528 21.4502 99.2931 21.3097C99.5424 21.1584 99.7467 20.953 99.9089 20.6828V14.8965H101.741V23.248H99.9089V22.5743C99.3742 23.1292 98.7193 23.4066 97.9443 23.4066V23.4138Z" fill="#E4E7E9"/>
<path d="M49.7677 15.7768C49.1969 15.1944 48.4234 14.8999 47.4658 14.8965H47.4471C46.9199 14.8965 46.4022 15.0371 45.9499 15.3015C45.613 15.4923 45.3198 15.7366 45.0765 16.0345C45.0204 16.1014 44.9424 16.1316 44.8551 16.1383C44.7709 16.1383 44.6898 16.0948 44.6367 16.0245C44.3997 15.7132 44.1065 15.4622 43.7665 15.2781C43.283 15.0237 42.7434 14.8999 42.1976 14.9066C41.7359 14.8999 41.2774 15.0003 40.8688 15.1944C40.6973 15.2748 40.532 15.3785 40.3822 15.4956C40.2949 15.5659 40.1795 15.576 40.0797 15.5224C39.983 15.4689 39.9206 15.3618 39.9206 15.2446V14.9903H37.5345L37.5439 22.7586H39.93L39.9237 18.5414C39.9237 18.0427 40.0579 17.6511 40.3199 17.3767C40.5819 17.1022 40.9499 16.965 41.4147 16.965C41.8794 16.965 42.2444 17.1022 42.5095 17.3733C42.7746 17.6444 42.9088 18.036 42.9088 18.5347L42.915 22.7519H45.2855L45.2793 18.5347C45.2793 18.036 45.4134 17.6444 45.6754 17.37C45.9374 17.0955 46.3055 16.9583 46.7702 16.9583H46.7733C47.235 16.9583 47.5999 17.0955 47.865 17.3666C48.1302 17.6411 48.2643 18.0293 48.2643 18.528V22.7452H50.6379L50.6317 18.2067C50.6317 17.1725 50.3385 16.3525 49.7708 15.7735L49.7677 15.7768Z" fill="#E4E7E9"/>
<path d="M51.2178 21.376C51.083 21.1515 50.9733 20.9175 50.8824 20.674V22.4385C50.8824 22.5935 50.8228 22.7452 50.7131 22.8528C50.6034 22.9634 50.456 23.0235 50.3024 23.0235H48.4841C48.0484 23.501 47.5374 23.9184 46.9512 24.2599C44.2677 25.8221 40.9446 25.2339 38.9289 23.0298H37.1388C36.8191 23.0298 36.5589 22.7674 36.5589 22.4448L36.5495 15.1054C36.5495 14.9473 36.609 14.8018 36.7187 14.6912C36.8285 14.5805 36.9758 14.5204 37.1294 14.5204H38.5997C39.095 13.8848 39.7126 13.3283 40.4524 12.9014C43.4149 11.1748 47.1612 12.076 49.061 14.8777C49.3431 15.0264 49.6002 15.2066 49.8322 15.4279C50.4247 15.9971 50.7664 16.7529 50.8542 17.6794C50.9451 17.417 51.0579 17.164 51.199 16.9237C51.5532 16.326 52.0266 15.8422 52.6034 15.4691C52.1551 14.122 51.3996 12.8571 50.3369 11.7819C46.6596 8.07269 40.697 8.07269 37.0166 11.7819C33.3393 15.4912 33.3393 21.5057 37.0166 25.2181C40.6938 28.9273 46.6565 28.9273 50.3369 25.2181C51.1363 24.4117 51.7601 23.4978 52.2116 22.5207C51.8197 22.1982 51.4811 21.8219 51.2178 21.3792V21.376Z" fill="#E4E7E9"/>
<path d="M84.3793 23.4138C84.1125 23.4138 83.8839 23.2838 83.6878 23.0275C83.4918 22.7712 83.3965 22.4644 83.3965 22.1107C83.3965 21.7569 83.4946 21.4356 83.6878 21.1793C83.8811 20.923 84.1125 20.7931 84.3793 20.7931C84.6461 20.7931 84.8748 20.923 85.0708 21.1793C85.264 21.4356 85.3621 21.7461 85.3621 22.1107C85.3621 22.4752 85.264 22.7676 85.0708 23.0275C84.8775 23.2838 84.6461 23.4138 84.3793 23.4138Z" fill="#E4E7E9"/>
</svg>
