<svg width="143" height="91" viewBox="0 0 143 91" fill="none" xmlns="http://www.w3.org/2000/svg">
<path d="M122.632 42.2184H126.189C126.296 41.1418 126.47 39.6762 126.665 38.1065C127.547 37.8651 128.386 37.5146 129.164 37.0719C130.405 38.0043 131.578 38.9266 132.415 39.6359L135.809 36.2418C135.123 35.405 134.211 34.2445 133.239 32.9969C133.681 32.2188 134.032 31.382 134.273 30.4983C135.809 30.2803 137.29 30.1025 138.385 30.0136V25.2142C137.309 25.1069 135.843 24.9325 134.273 24.738C134.03 23.8559 133.681 23.0174 133.239 22.2393C134.171 20.9984 135.093 19.8245 135.803 18.9877L132.409 15.5936C131.572 16.2795 130.411 17.1917 129.164 18.1643C128.386 17.7216 127.549 17.3712 126.665 17.1297C126.447 15.5936 126.269 14.1129 126.18 13.0178H122.632V21.7932H123.784C127 21.7932 129.608 24.4009 129.608 27.6173C129.608 30.8336 127 33.4413 123.784 33.4413H122.632V42.2167V42.2184Z" fill="white"/>
<path d="M126.19 42.5894H122.634C122.429 42.5894 122.265 42.4234 122.265 42.2205C122.265 42.0175 122.431 41.8515 122.634 41.8515H125.857C125.972 40.7397 126.143 39.3261 126.299 38.0633C126.318 37.9141 126.423 37.7916 126.569 37.7514C127.413 37.52 128.224 37.1846 128.982 36.7519C129.11 36.6782 129.269 36.6882 129.388 36.7771C130.55 37.6508 131.605 38.4775 132.395 39.1366L135.315 36.217C134.615 35.355 133.735 34.2315 132.95 33.2253C132.858 33.1079 132.846 32.9453 132.92 32.8145C133.353 32.0548 133.688 31.2432 133.919 30.4014C133.958 30.2588 134.079 30.1548 134.223 30.133C135.66 29.9285 136.99 29.7675 138.016 29.6752V25.5483C136.899 25.4326 135.487 25.2599 134.23 25.1056C134.08 25.0871 133.958 24.9815 133.919 24.8373C133.688 23.9921 133.351 23.1804 132.92 22.4241C132.846 22.2967 132.856 22.1374 132.945 22.02C133.812 20.8646 134.64 19.8098 135.304 19.0132L132.385 16.0937C131.526 16.7896 130.401 17.6717 129.393 18.4582C129.276 18.5504 129.113 18.5621 128.982 18.4884C128.223 18.0557 127.411 17.7203 126.569 17.4889C126.427 17.4503 126.323 17.3313 126.301 17.1854C126.096 15.7482 125.935 14.4184 125.843 13.3921H122.634C122.429 13.3921 122.265 13.2261 122.265 13.0232C122.265 12.8203 122.431 12.6543 122.634 12.6543H126.182C126.375 12.6543 126.534 12.8018 126.551 12.9947C126.631 13.9925 126.791 15.3525 127 16.8466C127.738 17.0663 128.454 17.3631 129.132 17.7287C130.191 16.9003 131.35 15.9897 132.177 15.3139C132.325 15.1932 132.538 15.2049 132.672 15.3391L136.066 18.7332C136.202 18.869 136.21 19.087 136.086 19.2329C135.434 20.0026 134.583 21.0759 133.68 22.2749C134.045 22.9507 134.342 23.6668 134.563 24.4063C135.885 24.569 137.339 24.7434 138.424 24.8524C138.613 24.8708 138.757 25.0301 138.757 25.2196V30.019C138.757 30.2119 138.61 30.3712 138.419 30.3879C137.422 30.4684 136.061 30.6277 134.567 30.8374C134.347 31.5752 134.05 32.2913 133.685 32.9688C134.51 34.0252 135.42 35.184 136.099 36.0141C136.22 36.1617 136.208 36.3746 136.074 36.5088L132.68 39.9029C132.544 40.0388 132.326 40.0471 132.18 39.923C131.419 39.2774 130.344 38.4272 129.138 37.5166C128.461 37.8839 127.747 38.179 127.007 38.3987C126.844 39.7235 126.668 41.1824 126.561 42.259C126.542 42.4485 126.383 42.5927 126.194 42.5927L126.19 42.5894ZM125.841 33.44C125.692 33.44 125.551 33.3494 125.496 33.2002C125.424 33.009 125.52 32.796 125.711 32.7239C126.425 32.4539 127.064 32.0448 127.609 31.5081C127.755 31.3656 127.988 31.3673 128.132 31.5132C128.275 31.6591 128.273 31.8922 128.127 32.0364C127.507 32.6468 126.782 33.1113 125.971 33.4165C125.927 33.4333 125.883 33.44 125.84 33.44H125.841ZM129.415 29.4857C129.383 29.4857 129.351 29.4824 129.319 29.474C129.122 29.422 129.004 29.2191 129.056 29.0229C129.177 28.5685 129.237 28.0956 129.237 27.621C129.237 24.6126 126.791 22.1659 123.782 22.1659H122.63C122.426 22.1659 122.261 21.9999 122.261 21.797C122.261 21.5941 122.427 21.428 122.63 21.428H123.782C127.198 21.428 129.977 24.2067 129.977 27.6227C129.977 28.1626 129.908 28.6976 129.771 29.2141C129.727 29.3801 129.578 29.4891 129.413 29.4891L129.415 29.4857Z" fill="black"/>
<path d="M47.1408 29.8461V44.9017C46.8658 45.0057 46.5924 45.1147 46.3208 45.2287C46.1849 45.2841 46.0491 45.3428 45.9149 45.4015C45.3733 45.6362 44.8384 45.8878 44.3068 46.1494C44.0401 46.2819 43.7768 46.416 43.5136 46.5535C43.1195 46.7598 42.7254 46.9711 42.3347 47.1891C42.0731 47.3333 41.8148 47.4809 41.5549 47.6301C40.0004 48.5222 38.476 49.4748 36.9618 50.3971C36.7085 50.5497 36.457 50.704 36.2055 50.8549C35.9539 51.0058 35.7024 51.1567 35.4508 51.306C35.3234 51.3798 35.1993 51.4535 35.0735 51.5273C34.9477 51.6011 34.822 51.6749 34.6962 51.747C34.012 52.1763 33.3261 52.6073 32.642 53.0399C32.6302 53.0466 32.6201 53.0533 32.6084 53.0601C32.6084 53.0601 32.6051 53.0617 32.6034 53.0634C32.434 53.1707 32.263 53.2797 32.0919 53.3887C32.0466 53.4189 31.9997 53.4474 31.9544 53.4759C31.8638 53.5346 31.7733 53.5916 31.6827 53.6487L30.9801 54.0981C30.5491 54.3731 30.1198 54.6515 29.6905 54.9282C29.2612 55.2065 28.8336 55.4866 28.406 55.7666C27.1231 56.6118 25.8503 57.4687 24.5943 58.3458C24.2623 58.5772 23.9302 58.812 23.5999 59.0451C23.3047 59.2547 23.0113 59.466 22.7178 59.6773C22.3036 59.9774 21.8911 60.2793 21.4819 60.5845C21.2773 60.7371 21.0727 60.8914 20.8681 61.044C20.8061 60.8662 20.7457 60.6868 20.6837 60.509C20.5478 60.0261 20.4103 59.5414 20.2728 59.0568C20.2376 58.9327 20.2024 58.8103 20.1672 58.6879C20.1621 58.6728 19.872 58.8153 19.3622 59.0769C16.0167 60.7891 3.26526 67.631 0.912512 68.8971C0.694509 69.0145 0.565385 69.0832 0.541908 69.0967C0.528492 68.9608 0.515076 68.8267 0.503337 68.6908C-0.0668232 62.565 -0.0567615 55.8035 0.0723631 49.6777C0.253473 45.17 0.624078 40.2516 3.73984 36.7132C5.90645 34.0972 9.28213 32.9988 12.4884 32.2743C14.0799 31.9339 15.6813 31.6405 17.2895 31.3772C18.8843 31.1173 20.4858 30.8825 22.0873 30.6662C22.0973 30.6662 22.1091 30.6628 22.1208 30.6611L22.8721 30.6226L26.2377 30.4515L28.2769 30.3475L31.4429 30.1866L33.1232 30.101L34.0019 30.0574L35.4928 29.982C39.3715 29.8126 43.2553 29.7707 47.1391 29.8445L47.1408 29.8461Z" fill="#8EBAE9"/>
<path d="M33.512 75.4941L32.8194 76.0643C32.7859 76.0911 32.7523 76.1196 32.7188 76.1465C31.1089 77.4662 29.4957 78.7809 27.8657 80.0738C28.9675 79.6831 30.0709 79.2941 31.1743 78.9067C31.7847 78.692 32.3935 78.4757 33.0039 78.2611L33.73 78.0783C33.9581 78.1101 34.1878 78.1437 34.4159 78.1755C34.436 78.1772 34.4544 78.1806 34.4729 78.1839C34.5869 78.199 34.7009 78.2158 34.815 78.2309C34.9357 78.2477 35.0565 78.2627 35.1772 78.2795C39.1549 78.8128 43.1511 79.2287 47.1405 79.6932V64.7902C45.8627 65.6471 44.6335 66.5862 43.4093 67.5102C40.0537 70.1011 36.7887 72.8026 33.5137 75.4941H33.512Z" fill="#8EBAE9"/>
<path d="M46.383 79.3666L45.0767 37.4799C44.9023 32.3803 44.2248 31.2232 43.2321 29.8095C44.6139 29.8095 45.9286 29.8196 47.141 29.8431V80.2117L46.383 79.3632V79.3666Z" fill="black"/>
<path d="M48.4685 0.00162071H121.303C122.038 0.00162071 122.633 0.596937 122.633 1.33144V89.3592H47.1404V1.32976C47.1404 0.595258 47.7357 -5.53131e-05 48.4702 -5.53131e-05L48.4685 0.00162071Z" fill="white"/>
<path d="M122.631 1.32981V8.62452H47.1388V1.32981C47.1388 0.595314 47.7341 0 48.4686 0H121.303C122.038 0 122.633 0.595314 122.633 1.32981H122.631Z" fill="#8EBAE9"/>
<path d="M55.1269 4.68163H52.266C52.0614 4.68163 51.8971 4.51561 51.8971 4.3127C51.8971 4.10979 52.0631 3.94377 52.266 3.94377H55.1269C55.3315 3.94377 55.4958 4.10979 55.4958 4.3127C55.4958 4.51561 55.3298 4.68163 55.1269 4.68163Z" fill="white"/>
<path d="M61.7083 4.68155H58.8474C58.6429 4.68155 58.4785 4.51554 58.4785 4.31263C58.4785 4.10972 58.6445 3.9437 58.8474 3.9437H61.7083C61.9129 3.9437 62.0772 4.10972 62.0772 4.31263C62.0772 4.51554 61.9112 4.68155 61.7083 4.68155Z" fill="white"/>
<path d="M68.2887 4.68155H65.4279C65.2233 4.68155 65.059 4.51554 65.059 4.31263C65.059 4.10972 65.225 3.9437 65.4279 3.9437H68.2887C68.4933 3.9437 68.6577 4.10972 68.6577 4.31263C68.6577 4.51554 68.4917 4.68155 68.2887 4.68155Z" fill="white"/>
<path d="M62.5634 46.822C61.8272 47.3821 60.8663 47.4727 59.9775 47.6152C59.4208 47.6857 58.864 47.7511 58.3073 47.8098C56.9808 47.954 55.6376 47.8902 54.3296 47.6236C53.689 47.4928 53.0484 47.3771 52.4078 47.2631C51.6783 47.139 50.9438 47.035 50.216 46.9042C50.0953 46.8791 49.9863 46.8405 49.8622 46.8992C49.5654 47.0216 49.5788 47.476 49.8806 47.5817C51.2474 47.85 52.6426 48.0361 54.0177 48.3061C54.0445 48.3112 54.0696 48.3162 54.0965 48.3212C54.135 48.3279 54.1719 48.3363 54.2105 48.3447C54.2491 48.3514 54.286 48.3598 54.3229 48.3682C54.3614 48.3749 54.3983 48.3833 54.4352 48.3917C54.7756 48.4638 55.1127 48.5409 55.4481 48.6281C55.485 48.6382 55.5236 48.6465 55.5605 48.6583C55.7047 48.6969 55.8506 48.7371 55.9948 48.779C56.3687 48.888 56.7377 49.0104 57.1032 49.1479C58.2301 49.6544 58.7316 50.5147 58.537 51.3665C58.3509 52.1832 57.4671 52.6427 56.6739 52.3677C55.8053 52.0675 54.8477 51.9048 54.1082 51.7824C52.718 51.5493 51.3195 51.3967 49.9175 51.2693C49.4346 51.219 49.3608 51.9468 49.8337 52.0038C51.6934 52.1849 53.5548 52.3727 55.3827 52.7802C55.874 52.8842 56.3402 53.015 56.7494 53.181C56.788 53.1961 56.8249 53.2112 56.8618 53.228C56.8802 53.2347 56.897 53.243 56.9171 53.2514C56.9355 53.2598 56.9523 53.2682 56.9708 53.2766C56.9892 53.2833 57.006 53.2917 57.0227 53.3001C57.058 53.3168 57.0932 53.3336 57.1267 53.352C57.1603 53.3705 57.1938 53.3873 57.2273 53.4057C57.2927 53.4409 57.3548 53.4795 57.4151 53.5181C57.4286 53.5281 57.442 53.5365 57.4537 53.5449C57.4856 53.5667 57.5158 53.5868 57.546 53.6086C58.2872 54.1536 58.5219 54.9485 57.7304 56.1157V56.119C57.5225 56.4209 57.1317 56.5416 56.7947 56.4024C55.3475 55.8054 53.6823 55.7601 52.1479 55.5488C51.9466 55.5539 51.6263 55.5153 51.2708 55.4818C50.5531 55.408 49.6995 55.3342 49.4413 55.5924C49.2367 55.8507 49.5017 56.2548 49.8203 56.1727C51.4201 56.2381 54.9568 56.342 56.7259 57.1872L56.7343 57.1922C57.5242 57.5813 57.7472 58.6244 57.1552 59.2767C56.087 60.4522 53.1809 60.9033 52.0154 61.4383C49.7264 62.2315 47.6486 63.5026 45.6866 64.9045C41.4624 67.9565 37.4629 71.297 33.4416 74.6106C33.2102 74.8001 32.9787 74.9913 32.7473 75.1825C32.6685 75.2462 32.5897 75.3099 32.5125 75.3753C32.2744 75.5699 32.0363 75.7661 31.7982 75.9606C30.5572 76.9768 29.3096 77.9863 28.0502 78.9774C27.3274 79.5425 26.5192 80.1865 25.6538 80.8623C25.6237 80.8858 25.5918 80.9093 25.5616 80.9344C25.4895 80.9897 25.4174 81.0468 25.3436 81.1038C25.0887 81.3017 24.8288 81.5012 24.5672 81.7041C24.4599 81.7846 24.3525 81.8685 24.2435 81.9506C24.1614 82.0127 24.0792 82.0747 23.997 82.1368C23.9199 82.1955 23.8427 82.2525 23.7656 82.3112C23.7623 82.3129 23.7589 82.3162 23.7555 82.3179C20.3882 84.8367 16.4877 87.3638 13.2059 87.7679C12.8252 87.7797 12.4462 87.7612 12.074 87.716C12.0605 87.7143 12.0471 87.7126 12.032 87.7109C11.9968 87.7059 11.9633 87.7009 11.9281 87.6975C11.7906 87.6774 11.6547 87.6556 11.5189 87.6271C11.4921 87.622 11.4636 87.617 11.4367 87.612C11.4099 87.6053 11.3814 87.6003 11.3546 87.5935C8.6748 87.0133 6.29019 85.0815 4.71554 82.8981C2.23534 79.3262 1.6853 74.8656 1.1185 70.6564C1.06986 70.1969 1.02123 69.7391 0.975955 69.2797L0.939062 69.0046C0.934031 68.9694 0.92397 68.9342 0.912231 68.904C3.26498 67.6379 16.0165 60.7943 19.362 59.0838L19.5079 59.4662C19.5313 59.5333 19.5582 59.5987 19.5816 59.6641L19.5867 59.6775C19.9858 60.7625 19.6454 61.9782 18.7415 62.6993C18.0808 63.2259 17.4268 63.7625 16.7828 64.3075C14.3764 66.4943 12.0052 69.0231 11.3411 72.3132C11.3495 72.7392 10.7659 73.8292 11.4166 73.9768C11.6715 74.0288 11.8861 73.7906 11.8627 73.5441C11.9264 73.093 12.022 72.6436 12.1259 72.1992C12.5066 70.6531 13.2529 69.2394 14.249 68.0035C16.0181 65.8101 18.2032 64.0057 20.4369 62.2969C20.5643 62.1979 20.6935 62.1007 20.8226 62.0034C20.8997 61.9447 20.9769 61.8877 21.0557 61.829C24.2821 59.4209 27.6578 57.1218 31.0503 54.925C31.1676 54.8496 31.285 54.7724 31.4024 54.6986C31.5014 54.6349 31.5969 54.5729 31.6942 54.5091C31.7143 54.4957 31.7344 54.484 31.7529 54.4706C31.8166 54.4303 31.8787 54.3901 31.9424 54.3498C31.986 54.3213 32.0296 54.2945 32.0732 54.266C32.3013 54.1201 32.531 53.9759 32.7591 53.8317C35.6099 52.0323 38.4657 50.2698 41.4054 48.6029C43.2701 47.5532 45.1584 46.5068 47.1422 45.6985C47.2109 45.6717 47.278 45.6431 47.3468 45.6163C47.3971 45.5962 47.4457 45.5777 47.496 45.5576C47.6235 45.5073 47.7509 45.4587 47.8801 45.41C48.5575 45.1585 49.2451 44.9388 49.9477 44.756C51.5442 44.3217 53.2614 44.2312 54.9148 44.2161C57.0479 44.2161 59.1944 44.1926 61.3174 44.4307C62.7394 44.5263 64.081 45.68 62.5634 46.8237V46.822Z" fill="white"/>
<path d="M29.1803 36.8626C27.9527 37.1862 26.8309 37.9777 25.927 38.8699C25.0315 39.7687 24.1796 40.7262 23.4351 41.7592C23.1567 42.1449 22.5865 42.1366 22.3132 41.7492C20.3277 38.9336 20.3646 34.8754 22.2595 31.9793C22.3149 31.8988 22.3719 31.82 22.4289 31.7412C22.5983 32.2241 22.8129 32.6937 23.0846 33.1364C24.3289 35.1521 26.5122 36.6362 28.8918 36.8424C28.9874 36.8525 29.0847 36.8592 29.1786 36.8626H29.1803Z" fill="white"/>
<path d="M37.3878 39.0089C37.3878 39.0089 37.3878 39.0123 37.3861 39.014C37.2939 39.4248 36.8059 39.5992 36.4688 39.3477C34.9294 38.1956 33.1954 37.2599 31.3256 36.8189C31.0456 36.7518 30.7672 36.7149 30.4922 36.7065C32.2194 36.2202 33.5275 34.6757 34.2737 33.0139C34.6678 32.2123 34.8707 31.3453 34.9361 30.4649C37.3777 32.5192 38.0669 35.9821 37.3895 39.0089H37.3878Z" fill="white"/>
<path d="M34.7226 26.7182C34.7125 26.7551 34.7008 26.7936 34.6907 26.8305C34.6756 26.8725 34.6572 26.9127 34.6421 26.9546C34.6237 26.9965 34.6052 27.0385 34.5868 27.0787C34.5633 27.1307 34.5398 27.1827 34.5147 27.233C34.5029 27.2582 34.4912 27.2833 34.4794 27.3068C34.4442 27.3822 34.4057 27.4577 34.3671 27.5298C34.352 27.56 34.3369 27.5885 34.3201 27.617C34.2816 27.6858 34.2447 27.7528 34.2044 27.8182C34.1877 27.8468 34.1709 27.8753 34.1524 27.9038C34.134 27.9356 34.1139 27.9658 34.0937 27.996C33.7433 28.5477 33.3374 29.0072 32.8864 29.3711C32.8847 29.3728 32.8813 29.3761 32.8796 29.3778C32.8528 29.3996 32.8277 29.4197 32.8008 29.4415C32.7723 29.4633 32.7421 29.4851 32.7136 29.5086C32.7136 29.5086 32.7136 29.5086 32.7119 29.5086C32.6885 29.5254 32.665 29.5438 32.6398 29.5606C32.6298 29.5673 32.618 29.5757 32.608 29.5824C32.5912 29.5941 32.5728 29.6059 32.556 29.6176C32.4772 29.6713 32.395 29.7249 32.3145 29.7736C32.2944 29.7853 32.2743 29.797 32.2541 29.8088C32.1971 29.8423 32.1401 29.8725 32.0831 29.9027C32.063 29.9144 32.0429 29.9245 32.0227 29.9346C31.9992 29.948 31.9758 29.958 31.9523 29.9698C31.9338 29.9798 31.9137 29.9882 31.8953 29.9966C31.8752 30.0067 31.8567 30.015 31.8366 30.0234C31.8299 30.0285 31.8215 30.0301 31.8148 30.0335L31.736 30.0687C31.736 30.0687 31.736 30.0687 31.7343 30.0687C31.7058 30.0821 31.6756 30.0939 31.6471 30.1056C31.6471 30.1056 31.6454 30.1056 31.6437 30.1056C31.6152 30.1173 31.5867 30.1291 31.5599 30.1391C31.5549 30.1408 31.5498 30.1442 31.5465 30.1442C31.5196 30.1542 31.4928 30.166 31.466 30.1744C31.4375 30.1844 31.4106 30.1945 31.3821 30.2045C30.542 30.493 29.6197 30.5584 28.6588 30.4108C28.6185 30.4041 28.5783 30.3974 28.5397 30.3907C28.5045 30.3857 28.4693 30.3789 28.4324 30.3722C28.3804 30.3622 28.3301 30.3521 28.2798 30.3421C28.253 30.337 28.2278 30.332 28.201 30.3253C28.1825 30.3203 28.1641 30.3186 28.1456 30.3135C28.1121 30.3068 28.0819 30.2985 28.0484 30.2901C28.0115 30.2817 27.9729 30.2716 27.936 30.2632C27.8958 30.2532 27.8555 30.2414 27.8153 30.2297C27.7264 30.2062 27.6375 30.1794 27.5486 30.1509C27.5151 30.1408 27.4849 30.1308 27.4514 30.1207C27.4245 30.1123 27.3994 30.1039 27.3726 30.0955C27.3457 30.0855 27.3189 30.0771 27.2921 30.0687C27.1881 30.0335 27.0841 29.9932 26.9785 29.953C26.9584 29.9446 26.9382 29.9379 26.9181 29.9295C26.8913 29.9195 26.8628 29.9077 26.8359 29.896C26.7974 29.8809 26.7605 29.8641 26.7236 29.849C26.7202 29.849 26.7169 29.8457 26.7135 29.8457C26.5928 29.7954 26.4704 29.74 26.3496 29.683C26.1652 29.6025 25.9438 29.6964 25.865 29.8792C25.8583 29.8977 25.8516 29.9144 25.8482 29.9329C25.8449 29.9413 25.8432 29.9496 25.8415 29.958C25.7711 30.2968 26.1937 30.4293 26.4603 30.5315C26.4905 30.545 26.519 30.555 26.5492 30.5684C26.5727 30.5785 26.5961 30.5869 26.6196 30.5953C27.5218 30.9508 28.4743 31.1889 29.4453 31.2308C30.7801 31.3231 32.068 30.8753 33.1278 30.0955C33.1345 30.0905 33.1547 30.0737 33.1848 30.0452C33.5856 29.6847 34.2279 29.9882 34.196 30.5248C34.196 30.5349 34.196 30.5416 34.1944 30.5483C33.9596 32.735 32.4621 35.4601 30.1781 36.0101C30.1563 36.0151 30.1345 36.0202 30.1127 36.0252C30.0976 36.0286 30.0842 36.0319 30.0691 36.0336C30.059 36.0369 30.0473 36.0386 30.0355 36.0403C30.0221 36.0437 30.0087 36.0453 29.9936 36.047C29.9517 36.0554 29.9115 36.0621 29.8695 36.0688C29.8528 36.0722 29.836 36.0738 29.8192 36.0755C29.8142 36.0755 29.8092 36.0772 29.8041 36.0772C29.7656 36.0822 29.7287 36.0873 29.6901 36.0906C29.675 36.0923 29.6599 36.094 29.6465 36.0956C29.6247 36.0973 29.6046 36.1007 29.5845 36.1007C29.5576 36.1023 29.5325 36.104 29.5056 36.1057C29.4872 36.1057 29.4671 36.1057 29.4469 36.1057C26.8611 36.1275 24.4295 34.3567 23.3546 32.0509C23.207 31.7155 23.0863 31.3717 22.9857 31.0246C22.9806 31.0128 22.979 31.0011 22.9756 30.9893C22.9672 30.9592 22.9572 30.9307 22.9505 30.9005C22.9421 30.8703 22.9337 30.8418 22.927 30.8116C22.922 30.7915 22.9169 30.7713 22.9119 30.7512C22.9018 30.7127 22.8901 30.6724 22.8817 30.6322C22.875 30.607 22.8683 30.5802 22.8633 30.5533C22.8566 30.5315 22.8515 30.5081 22.8465 30.4846C22.8398 30.4544 22.8331 30.4259 22.8264 30.3957C22.8197 30.3706 22.813 30.3454 22.8079 30.3186C22.8046 30.3035 22.8012 30.2867 22.7979 30.2716C22.7895 30.2297 22.7811 30.1895 22.7727 30.1492C22.7626 30.0989 22.7526 30.0503 22.7425 30.0016C22.7392 29.9832 22.7358 29.9664 22.7325 29.9496C22.7258 29.9094 22.7174 29.8692 22.7107 29.8272C22.6972 29.7551 22.6838 29.683 22.6721 29.6126C22.6553 29.5136 22.6386 29.4164 22.6251 29.3174C22.6168 29.2655 22.6084 29.2101 22.6017 29.1581C22.5933 29.1028 22.5849 29.0458 22.5782 28.9921C22.5765 28.9787 22.5748 28.9686 22.5732 28.9552C22.5681 28.925 22.5648 28.8965 22.5597 28.8663C22.553 28.8127 22.5446 28.7573 22.5379 28.702C22.4424 27.9742 22.3652 27.2414 22.2512 26.522C22.3065 26.5102 22.3585 26.4968 22.4038 26.4817C22.6872 27.0217 23.0243 27.5315 23.4301 27.9859C23.752 28.3465 24.3021 27.8702 23.9902 27.5047C23.8862 27.3957 23.7889 27.2783 23.6967 27.1592C23.15 26.4113 22.7375 25.5695 22.4524 24.6891C22.3904 24.4962 22.1824 24.3856 21.9896 24.4459C21.7984 24.5063 21.686 24.7176 21.7481 24.9088C21.847 25.2022 21.9544 25.494 22.0768 25.7824C21.2668 25.9317 20.4166 25.5762 19.7056 25.2089C18.7782 24.6757 17.9951 23.8422 17.7553 22.7757C17.6429 22.2139 17.6597 21.5901 17.9532 21.0836C18.3707 20.386 19.2545 19.8964 20.0494 20.2502C20.2506 20.3408 20.4468 20.4464 20.6229 20.5789C20.9079 20.7734 21.2383 21.3067 21.5955 20.9361C21.5955 20.9361 21.5955 20.9344 21.5972 20.9327C21.7028 20.8707 21.78 20.7583 21.7749 20.6141C21.5737 19.8327 21.7514 18.9841 22.1388 18.2848C22.9505 16.8477 24.0556 15.4106 23.9449 13.6682C25.3116 13.7219 26.908 12.9253 27.765 11.8772C28.2815 12.3837 28.9925 12.662 29.6951 12.7962C30.7533 12.9823 31.912 12.9605 32.883 12.4507C32.9283 12.4239 32.9803 12.3971 33.0373 12.3669C33.0775 12.4994 33.1178 12.6335 33.158 12.7677C33.4112 13.6045 33.6561 14.4446 33.8757 15.2915C33.5018 15.1523 33.1044 15.0752 32.7086 15.0651C32.3346 15.0567 31.5884 15.0634 31.7745 15.6319C31.9053 15.9304 32.1988 15.8399 32.452 15.8097C33.0255 15.7728 33.6192 15.917 34.1072 16.2272C34.2195 16.7052 34.3218 17.1831 34.4107 17.666C34.6522 19.0763 34.9238 20.5286 35.0496 21.9825C35.0563 22.0378 35.0597 22.0948 35.0647 22.1502C35.0664 22.177 35.0697 22.2022 35.0714 22.229C35.0748 22.2676 35.0764 22.3061 35.0798 22.3447C35.0815 22.3799 35.0848 22.4168 35.0865 22.4537C35.0865 22.4638 35.0865 22.4755 35.0882 22.4873C35.0915 22.5392 35.0949 22.5929 35.0982 22.6466C35.1016 22.712 35.1049 22.7774 35.1083 22.8428C35.167 24.1474 35.0815 25.4471 34.731 26.7115L34.7226 26.7182Z" fill="white"/>
<path d="M21.2467 23.9657C20.8107 23.2932 20.3093 22.661 19.6938 22.1428C19.454 21.9416 19.2092 21.7454 18.9526 21.5659C18.5703 21.2708 18.9946 20.6939 19.392 20.9723C20.3646 21.6531 21.2249 22.5335 21.847 23.538C22.0265 23.8181 21.78 24.1082 21.5234 24.1082C21.4244 24.1082 21.3255 24.0663 21.2467 23.9657Z" fill="black"/>
<path d="M18.9793 23.4703C18.9005 23.3127 18.9944 23.0712 19.1386 23.0058C19.464 22.8414 19.7926 22.6956 20.1347 22.5698C20.3896 22.4759 20.6479 22.3853 20.9045 22.2948C21.0822 22.4893 21.2499 22.6905 21.4092 22.9001C21.1174 23.0041 20.8256 23.1047 20.5355 23.2104C20.2136 23.3261 19.8983 23.4552 19.5897 23.6045C19.5126 23.6648 19.417 23.695 19.3265 23.695C19.1822 23.695 19.0447 23.6212 18.981 23.4703H18.9793Z" fill="black"/>
<path d="M24.6981 16.6655C24.5941 16.2849 24.9597 16.1859 25.2196 16.097C25.5902 15.9495 25.9507 15.7751 26.3012 15.5822C26.7389 15.329 27.1632 15.054 27.5724 14.7572C27.7099 14.628 27.9346 14.6129 28.0788 14.7437C28.2683 14.9014 28.2297 15.2217 28.0201 15.3424C27.5606 15.6812 27.0793 15.9914 26.5813 16.2698C26.1285 16.5196 25.6522 16.741 25.1626 16.9036C25.1274 16.9154 25.0888 16.9221 25.0536 16.9221C24.8993 16.9221 24.7484 16.8215 24.6981 16.6655Z" fill="black"/>
<path d="M30.6986 22.4088C30.5879 21.8957 31.2889 21.9242 31.5756 21.6676C31.9311 21.4462 32.3353 20.8794 31.973 20.5038C31.5169 20.0695 31.0641 19.5949 30.8126 19.008C30.608 18.5602 30.1519 16.5311 31.1396 16.8816C31.3727 17.0124 31.3157 17.2656 31.2771 17.4803C31.2201 18.3892 31.6578 19.2293 32.3286 19.8213C32.5549 20.0242 32.7646 20.269 32.8283 20.5742C32.9524 21.1578 32.6254 21.7649 32.1877 22.1371C31.9529 22.2998 31.4331 22.6754 31.0625 22.6754C30.8998 22.6754 30.7656 22.6033 30.6969 22.4105L30.6986 22.4088Z" fill="black"/>
<path d="M25.334 23.5591C25.3005 23.3444 25.4732 23.1549 25.6845 23.1365C26.0266 23.0644 26.367 22.9671 26.694 22.8548C26.8885 22.786 27.0797 22.7089 27.2642 22.6166C27.4453 22.5345 27.5258 22.4238 27.717 22.4439C28.0272 22.4707 28.1597 22.9151 27.9014 23.0996C27.2424 23.5155 26.4961 23.715 25.7516 23.876C25.7315 23.8794 25.713 23.8811 25.6946 23.8811C25.5202 23.8811 25.3592 23.7318 25.3357 23.5591H25.334Z" fill="black"/>
<path d="M29.2556 25.8387C28.5278 25.6912 27.8218 25.3273 27.2785 24.8208C26.9565 24.5005 26.6999 24.1182 26.4886 23.7174C26.3427 23.4893 26.2991 23.1674 26.5909 23.0382C26.8542 22.9276 27.0638 23.1271 27.1326 23.3585C27.2919 23.6654 27.4847 23.9555 27.7178 24.2121C28.1471 24.6615 28.7474 24.96 29.3461 25.1059C29.809 25.1763 29.7419 25.8421 29.3025 25.8421C29.2874 25.8421 29.2723 25.8421 29.2556 25.8404V25.8387Z" fill="black"/>
<path d="M33.1796 19.3035C33.1092 19.2901 33.0455 19.2599 32.9885 19.218C32.7487 19.0587 32.643 18.7451 32.581 18.4801C32.5172 18.2101 32.5072 17.9217 32.5541 17.6483C32.5927 17.4236 32.6866 17.204 32.8845 17.0748C33.0656 16.9574 33.3037 16.9893 33.4714 17.1151C33.5553 17.1788 33.6224 17.2643 33.676 17.3532C33.79 17.5427 33.8521 17.7657 33.884 17.9821C33.9091 18.1464 33.9158 18.3124 33.9074 18.4801C33.8974 18.6528 33.8588 18.8239 33.785 18.9782C33.7448 19.0637 33.6844 19.1425 33.6089 19.2029C33.515 19.2783 33.4044 19.3135 33.2886 19.3135C33.2534 19.3135 33.2165 19.3102 33.1796 19.3035Z" fill="black"/>
<path d="M27.1916 19.8817C27.0775 19.8046 26.997 19.6788 26.94 19.5547C26.94 19.5547 26.94 19.5531 26.94 19.5514C26.94 19.5514 26.94 19.5497 26.94 19.548C26.9384 19.543 26.935 19.5363 26.9333 19.5296C26.8294 19.2831 26.7908 19.0064 26.7975 18.7414C26.8042 18.4664 26.8478 18.1746 26.9887 17.9315C27.0524 17.8208 27.1413 17.7151 27.257 17.6548C27.428 17.5659 27.6158 17.5676 27.7852 17.6598C27.9764 17.7654 28.0804 17.9734 28.1474 18.1696C28.2095 18.3524 28.2313 18.5502 28.2363 18.7414C28.2413 18.9225 28.2212 19.1036 28.181 19.2797C28.1441 19.4424 28.0804 19.6034 27.9781 19.7375C27.8842 19.8616 27.745 19.9572 27.589 19.979C27.5655 19.9824 27.5421 19.984 27.5203 19.984C27.4029 19.984 27.2955 19.9421 27.1966 19.8767L27.1916 19.8817Z" fill="black"/>
<path d="M62.3895 43.9143C61.1519 43.5302 59.8204 43.5806 58.5359 43.5101C57.6337 43.4866 56.7298 43.4716 55.8259 43.4716C55.177 43.4716 54.5297 43.4783 53.8824 43.4984C52.742 43.5219 51.6319 43.6594 50.5469 43.8874C49.643 44.0753 48.7576 44.3285 47.8856 44.6286C47.8806 44.6286 47.8789 44.6303 47.8789 44.6303L47.1394 44.9003C46.8643 45.0043 46.591 45.1133 46.3193 45.2273C46.1835 45.2827 46.0477 45.3413 45.9135 45.4C45.3719 45.6348 44.8369 45.8847 44.3053 46.148C44.0387 46.2804 43.7754 46.4146 43.5121 46.5521C43.1181 46.7584 42.724 46.9697 42.3332 47.1877C42.0716 47.3319 41.8134 47.4794 41.5535 47.6287C39.9989 48.5208 38.4746 49.4733 36.9603 50.3956C36.7071 50.5483 36.4556 50.7025 36.204 50.8535C35.9525 51.0044 35.7009 51.1553 35.4494 51.3046C35.322 51.3783 35.1979 51.4521 35.0721 51.5259L34.6948 51.7439C34.0106 52.1732 33.3247 52.6042 32.6405 53.0368C32.6288 53.0435 32.6187 53.0519 32.607 53.0586C32.5885 53.0687 32.5684 53.0804 32.5382 53.0939C32.4208 53.1458 32.3152 53.2196 32.2129 53.2984C32.1743 53.3286 32.1324 53.3571 32.0905 53.3856C32.0452 53.4158 31.9982 53.4443 31.953 53.4728C31.8624 53.5299 31.7719 53.5869 31.6813 53.6456C31.5472 52.0458 31.4147 50.446 31.2805 48.8478C31.1028 46.7349 30.9267 44.6219 30.7489 42.5107C30.6164 40.9192 30.4856 39.3228 30.3498 37.7314C30.3381 37.5905 30.4538 37.4731 30.593 37.4798C30.6097 37.4798 30.6265 37.4815 30.6366 37.4815C32.389 37.6157 34.0324 38.647 35.4997 39.5525C35.8083 39.7655 36.1084 39.9885 36.4019 40.2233C36.412 40.2317 36.4287 40.2451 36.4455 40.2585C36.957 40.6878 37.7435 40.4564 37.9363 39.8175C37.9363 39.8141 37.938 39.8108 37.9397 39.8074C38.9341 36.4016 38.2482 32.3216 35.493 29.9822C35.493 29.9822 35.488 29.9772 35.4846 29.9755C35.1576 29.7508 34.9564 29.3802 34.9262 28.9828C34.9145 28.8385 34.901 28.6927 34.8843 28.5501C34.8742 28.4327 34.8641 28.3137 34.8541 28.1946C35.161 27.6831 35.3941 27.1314 35.54 26.5579C35.8703 25.1761 35.8988 23.7557 35.7999 22.3404C37.4399 20.9603 38.3807 18.6645 37.18 16.6992C37.839 16.3621 38.1409 15.6511 38.2298 14.9484C38.5316 13.2145 37.5925 11.3564 36.1286 10.4039C35.8586 10.2278 35.7378 9.89748 35.8368 9.5906C36.3767 7.89353 35.0687 6.01871 33.5226 5.28589C32.0251 4.5799 30.0631 4.40382 28.584 5.00752C28.3056 5.12826 28.0356 5.26912 27.7791 5.42843C26.7796 5.09975 25.6393 5.06286 24.6599 5.36135C23.3905 5.794 22.1227 6.76328 21.7622 8.10483C19.671 7.5397 13.7716 10.5465 15.6497 15.916C14.4239 16.6673 13.5586 18.0374 13.5653 19.4946C13.6089 20.7054 14.0633 22.1308 15.2406 22.6775C14.7626 24.4466 15.5407 26.7726 17.5447 27.0828C17.5799 28.4176 18.9852 29.7827 20.3251 30.1684C21.0411 30.3562 21.6431 30.5188 22.0322 30.6329C22.054 30.6396 22.0741 30.6513 22.0925 30.6664C22.1194 30.6882 22.1395 30.7201 22.1479 30.757V30.7586C22.1596 30.809 22.1479 30.8609 22.1177 30.9029C22.0557 30.9817 21.9584 31.1091 21.945 31.1259C18.6481 36.7034 20.476 40.5721 21.9064 42.4218C22.4397 43.111 23.362 42.9785 23.9003 42.2927C25.1396 40.7147 27.5007 38.2345 29.3118 37.5955C29.3118 37.5955 29.3118 37.5955 29.3135 37.5955C29.4543 37.5452 29.6052 37.6459 29.6187 37.7968C29.7008 38.7795 29.9792 42.1166 30.1285 43.8858C30.3062 46.0021 30.4823 48.1167 30.66 50.233C30.7674 51.5209 30.8747 52.8088 30.9837 54.0983C30.5527 54.3734 30.1234 54.6517 29.6941 54.9284C29.2648 55.2068 28.8372 55.4868 28.4096 55.7669C27.1284 56.6104 25.8539 57.4673 24.5979 58.346C24.2659 58.5775 23.9338 58.8122 23.6035 59.0453C23.3083 59.2549 23.0149 59.4662 22.7214 59.6775C22.3072 59.9777 21.8947 60.2796 21.4855 60.5848C21.2809 60.7374 21.0763 60.89 20.8717 61.0442C20.8097 60.8665 20.7493 60.6887 20.6873 60.5093C20.5514 60.0263 20.4139 59.5417 20.2764 59.0571C20.2412 58.933 20.206 58.8106 20.1708 58.6881C20.1372 58.5674 20.1037 58.4467 20.0685 58.3276C18.6833 53.4527 17.2747 48.5846 15.9499 43.6929C15.9734 43.267 15.3227 43.1731 15.2221 43.5839C16.1595 47.4073 17.2378 51.209 18.3362 55.0072C18.0696 54.5142 17.7862 54.0296 17.4843 53.555C16.2836 51.541 14.5077 49.9395 12.4367 48.8545C12.0225 48.6097 11.6519 49.2604 12.0644 49.4935C12.7671 49.8842 13.4546 50.3068 14.0935 50.7981C16.6073 52.8373 18.0796 55.7619 19.2451 58.7602L19.3658 59.0789L19.5117 59.4612C19.5352 59.5283 19.562 59.5937 19.5855 59.6591L19.5905 59.6725C19.9897 60.7575 19.6492 61.9733 18.7454 62.6943C18.0847 63.2209 17.4306 63.7575 16.7867 64.3025C14.3803 66.4893 12.0091 69.0181 11.345 72.3083C11.3534 72.7342 10.7698 73.8242 11.4205 73.9718C11.6754 74.0238 11.89 73.7856 11.8666 73.5391C11.9303 73.088 12.0259 72.6386 12.1298 72.1942C12.5105 70.6481 13.2567 69.2344 14.2528 67.9985C16.022 65.8051 18.2071 64.0007 20.4408 62.2919C20.5682 62.1929 20.6973 62.0957 20.8265 61.9984C20.9036 61.9397 20.9807 61.8827 21.0596 61.824C24.286 59.4159 27.6617 57.1168 31.0541 54.92C31.1715 54.8446 31.2889 54.7674 31.4063 54.6937C31.5052 54.6299 31.6008 54.5679 31.6981 54.5042C31.7182 54.4907 31.7383 54.479 31.7568 54.4656C31.8205 54.4253 31.8825 54.3851 31.9463 54.3449C31.9899 54.3163 32.0335 54.2895 32.0771 54.261C32.3051 54.1151 32.5349 53.9709 32.7629 53.8267C35.6137 52.0273 38.4696 50.2648 41.4093 48.598C43.274 47.5482 45.1623 46.5018 47.1461 45.6935C47.2148 45.6667 47.2819 45.6382 47.3507 45.6113C47.401 45.5912 47.4496 45.5728 47.4999 45.5526C47.6274 45.5023 47.7548 45.4537 47.8839 45.4051C48.5614 45.1535 49.249 44.9338 49.9516 44.7511C51.548 44.3167 53.2652 44.2262 54.9187 44.2111C57.0518 44.2111 59.1983 44.1876 61.3213 44.4257C62.7433 44.5213 64.0849 45.6751 62.5672 46.8187C61.8311 47.3788 60.8702 47.4694 59.9814 47.6119C59.4247 47.6824 58.8679 47.7478 58.3112 47.8064C56.9847 47.9507 55.6415 47.8869 54.3334 47.6203C53.6929 47.4895 53.0523 47.3738 52.4117 47.2598C51.6822 47.1357 50.9477 47.0317 50.2199 46.9009C50.0992 46.8757 49.9902 46.8372 49.8661 46.8959C49.5693 47.0183 49.5827 47.4727 49.8845 47.5784C51.2512 47.8467 52.6464 48.0328 54.0215 48.3028C54.0484 48.3079 54.0735 48.3129 54.1004 48.3179C54.1389 48.3246 54.1758 48.333 54.2144 48.3414C54.253 48.3481 54.2899 48.3565 54.3267 48.3649C54.3653 48.3716 54.4022 48.38 54.4391 48.3883C54.7795 48.4605 55.1166 48.5376 55.452 48.6248C55.4889 48.6349 55.5274 48.6432 55.5643 48.655C55.7085 48.6936 55.8544 48.7338 55.9987 48.7757C56.3726 48.8847 56.7415 49.0071 57.1071 49.1447C58.234 49.6511 58.7354 50.5114 58.5409 51.3632C58.3548 52.1799 57.471 52.6394 56.6778 52.3644C55.8092 52.0642 54.8516 51.9015 54.1121 51.7791C52.7219 51.546 51.3233 51.3934 49.9214 51.266C49.4385 51.2157 49.3647 51.9435 49.8376 52.0005C51.6973 52.1816 53.5587 52.3694 55.3866 52.7769C55.8779 52.8809 56.3441 53.0117 56.7533 53.1777C56.7919 53.1928 56.8287 53.2079 56.8656 53.2247C56.8841 53.2314 56.9009 53.2397 56.921 53.2481C56.9394 53.2565 56.9562 53.2649 56.9746 53.2733C56.9931 53.28 57.0098 53.2884 57.0266 53.2968C57.0618 53.3135 57.0971 53.3303 57.1306 53.3487C57.1641 53.3672 57.1977 53.384 57.2312 53.4024C57.2966 53.4376 57.3587 53.4762 57.419 53.5148C57.4324 53.5248 57.4459 53.5332 57.4576 53.5416C57.4895 53.5634 57.5196 53.5835 57.5498 53.6053C58.291 54.1503 58.5258 54.9452 57.7343 56.1123V56.1157C57.5263 56.4176 57.1356 56.5383 56.7986 56.3991C55.3514 55.8021 53.6862 55.7568 52.1517 55.5455C51.9505 55.5506 51.6302 55.512 51.2747 55.4785C50.557 55.4047 49.7034 55.3309 49.4452 55.5891C49.2406 55.8474 49.5055 56.2515 49.8242 56.1694C51.424 56.2348 54.9606 56.3387 56.7298 57.1839L56.7382 57.1889C57.528 57.578 57.7511 58.6211 57.1591 59.2734C56.0909 60.4489 53.1847 60.9 52.0193 61.435C49.7302 62.2282 47.6525 63.4993 45.6905 64.9012C41.4663 67.9532 37.4668 71.2937 33.4454 74.6074C33.214 74.7969 32.9826 74.988 32.7512 75.1792C32.6724 75.2429 32.5936 75.3066 32.5164 75.372C32.2783 75.5666 32.0402 75.7628 31.802 75.9573C30.5611 76.9735 29.3135 77.983 28.0541 78.9741C27.3313 79.5392 26.523 80.1832 25.6577 80.859C25.6275 80.8825 25.5957 80.9059 25.5655 80.9311C25.4934 80.9864 25.4213 81.0435 25.3475 81.1005C25.0926 81.2984 24.8327 81.4979 24.5711 81.7008C24.4637 81.7813 24.3564 81.8652 24.2474 81.9473C24.1653 82.0094 24.0831 82.0714 24.0009 82.1335C23.9238 82.1922 23.8466 82.2492 23.7695 82.3079C23.7661 82.3096 23.7628 82.3129 23.7594 82.3146C20.3921 84.8333 16.4916 87.3605 13.2098 87.7646C12.8291 87.7764 12.4501 87.7579 12.0778 87.7127C12.0644 87.711 12.051 87.7093 12.0359 87.7076C12.0007 87.7026 11.9672 87.6976 11.932 87.6942C11.7944 87.6741 11.6586 87.6523 11.5228 87.6238C11.4959 87.6188 11.4674 87.6137 11.4406 87.6087C11.4138 87.602 11.3853 87.597 11.3584 87.5902C8.67868 87.01 6.29407 85.0782 4.71942 82.8948C2.23922 79.3229 1.68918 74.8622 1.12238 70.6531C1.07375 70.1936 1.02512 69.7358 0.979838 69.2763L0.942945 69.0013C0.937914 68.9661 0.927852 68.9309 0.916113 68.9007C0.845682 68.7448 0.674635 68.6576 0.50694 68.6945C0.473401 68.7012 0.439863 68.7129 0.406324 68.7297C0.290615 68.7934 0.218506 68.9158 0.218506 69.0483C0.218506 69.0617 0.218506 69.0751 0.220183 69.0902C0.23863 69.2529 0.260429 69.4474 0.270491 69.5296C0.275522 69.5715 0.278876 69.6134 0.283907 69.6553C0.793697 74.2032 1.33535 78.9305 3.80716 82.8579C5.50423 85.4941 8.20411 87.6322 11.288 88.3382C11.2545 88.6786 11.2243 89.019 11.1924 89.3594H47.1444V79.6952C43.1549 79.229 39.1605 78.8148 35.1811 78.2799C35.0603 78.2631 34.9396 78.2463 34.8189 78.2312C34.7065 78.2161 34.5925 78.1994 34.4784 78.1843C34.46 78.1826 34.4399 78.1792 34.4198 78.1776C34.19 78.1457 33.9619 78.1138 33.7339 78.0803C33.7339 78.0702 33.7322 78.0585 33.7305 78.0484C33.7305 78.035 33.7289 78.025 33.7272 78.0099C33.6567 77.1731 33.5863 76.3346 33.5176 75.4978C34.3376 74.8237 35.1543 74.1512 35.9726 73.4788C38.0202 71.7985 40.0744 70.1249 42.1588 68.4899C42.5764 68.1629 42.994 67.8375 43.4132 67.5139C43.7201 67.2825 44.0253 67.0511 44.3322 66.8196C45.2545 66.1254 46.1835 65.4378 47.1427 64.7939L47.8822 64.3109C48.9119 63.6586 49.9768 63.0683 51.102 62.5887C52.7655 61.8542 54.5515 61.4635 56.2334 60.7927C57.6773 60.2007 59.0658 58.455 57.9037 57.095C58.338 56.6154 58.6851 56.0587 58.8713 55.4382C59.1295 54.4136 58.7958 53.6892 58.177 53.166C59.0993 52.3744 59.6863 51.1788 59.1094 50.01C58.7941 49.4146 58.2894 48.9552 57.7091 48.6298C59.2502 48.494 60.788 48.328 62.2537 47.8484C64.3163 47.0166 64.6919 44.7125 62.3912 43.9159L62.3895 43.9143ZM37.3879 39.0092C37.3879 39.0092 37.3879 39.0126 37.3863 39.0142C37.294 39.4251 36.806 39.5995 36.469 39.3479C34.9295 38.1959 33.1956 37.2602 31.3258 36.8191C31.0457 36.752 30.7674 36.7151 30.4924 36.7068C32.2196 36.2205 33.5276 34.676 34.2739 33.0141C34.6679 32.2126 34.8709 31.3456 34.9363 30.4652C37.3779 32.5194 38.0671 35.9823 37.3896 39.0092H37.3879ZM25.9277 38.87C25.0322 39.7689 24.1803 40.7264 23.4358 41.7594C23.1574 42.1451 22.5872 42.1367 22.3139 41.7493C20.3284 38.9337 20.3653 34.8755 22.2602 31.9795C22.3156 31.899 22.3726 31.8202 22.4296 31.7413C22.599 32.2243 22.8136 32.6938 23.0853 33.1366C24.3296 35.1522 26.513 36.6363 28.8926 36.8426C28.9881 36.8527 29.0854 36.8594 29.1793 36.8627C27.9518 37.1864 26.8299 37.9779 25.926 38.87H25.9277ZM30.11 36.0326C30.0949 36.036 30.0815 36.0393 30.0664 36.041C30.0563 36.0444 30.0446 36.0461 30.0329 36.0477C30.0195 36.0511 30.006 36.0528 29.9909 36.0544C29.949 36.0628 29.9088 36.0695 29.8669 36.0762C29.8501 36.0796 29.8333 36.0813 29.8165 36.0829C29.8115 36.0829 29.8065 36.0846 29.8015 36.0846C29.7629 36.0897 29.726 36.0947 29.6874 36.098C29.6723 36.0997 29.6572 36.1014 29.6438 36.1031C29.622 36.1047 29.6019 36.1081 29.5818 36.1081C29.5549 36.1098 29.5298 36.1115 29.503 36.1131C29.4845 36.1131 29.4644 36.1131 29.4443 36.1131C26.8584 36.1349 24.4269 34.3641 23.3519 32.0583C23.2044 31.7229 23.0836 31.3791 22.983 31.032C22.978 31.0203 22.9763 31.0085 22.9729 30.9968C22.9646 30.9666 22.9545 30.9381 22.9478 30.9079C22.9394 30.8777 22.931 30.8492 22.9243 30.819C22.9193 30.7989 22.9143 30.7788 22.9092 30.7586C22.8992 30.7201 22.8874 30.6798 22.879 30.6396C22.879 30.6346 22.8757 30.6295 22.874 30.6228C22.869 30.6027 22.8639 30.5826 22.8589 30.5608C22.8522 30.539 22.8472 30.5155 22.8421 30.492C22.8354 30.4618 22.8287 30.4333 22.822 30.4031C22.8153 30.378 22.8086 30.3528 22.8036 30.326C22.8002 30.3109 22.7969 30.2941 22.7935 30.279C22.7851 30.2371 22.7767 30.1969 22.7684 30.1566C22.7583 30.1063 22.7482 30.0577 22.7382 30.0091C22.7348 29.9906 22.7315 29.9738 22.7281 29.9571C22.7214 29.9168 22.713 29.8766 22.7063 29.8347C22.6929 29.7625 22.6795 29.6904 22.6677 29.62C22.651 29.5211 22.6342 29.4238 22.6208 29.3249C22.6124 29.2729 22.604 29.2175 22.5973 29.1656C22.5889 29.1102 22.5805 29.0532 22.5738 28.9995C22.5722 28.9861 22.5705 28.9761 22.5688 28.9626C22.5638 28.9325 22.5604 28.904 22.5554 28.8738C22.5487 28.8201 22.5403 28.7648 22.5336 28.7094C22.438 27.9816 22.3609 27.2488 22.2468 26.5294C22.3022 26.5177 22.3541 26.5042 22.3994 26.4892C22.6828 27.0291 23.0199 27.5389 23.4257 27.9934C23.7477 28.3539 24.2977 27.8777 23.9858 27.5121C23.8818 27.4031 23.7846 27.2857 23.6924 27.1666C23.1457 26.4187 22.7331 25.5769 22.4481 24.6965C22.386 24.5037 22.1781 24.393 21.9852 24.4533C21.7941 24.5137 21.6817 24.725 21.7437 24.9162C21.8427 25.2096 21.95 25.5014 22.0724 25.7899C21.2625 25.9391 20.4123 25.5836 19.7012 25.2164C18.7739 24.6831 17.9907 23.8496 17.7509 22.7831C17.6386 22.2213 17.6554 21.5975 17.9488 21.0911C18.3664 20.3935 19.2501 19.9038 20.045 20.2576C20.2462 20.3482 20.4424 20.4538 20.6185 20.5863C20.9036 20.7808 21.234 21.3141 21.5911 20.9435C21.5911 20.9435 21.5911 20.9418 21.5928 20.9401C21.6985 20.8781 21.7756 20.7657 21.7706 20.6215C21.5693 19.8401 21.7471 18.9915 22.1345 18.2923C22.9461 16.8551 24.0512 15.418 23.9405 13.6756C25.3072 13.7293 26.9037 12.9327 27.7606 11.8847C28.2771 12.3911 28.9881 12.6695 29.6908 12.8036C30.7489 12.9898 31.9077 12.968 32.8786 12.4582C32.9239 12.4313 32.9759 12.4045 33.0329 12.3743C33.0732 12.5068 33.1134 12.641 33.1537 12.7751C33.4069 13.6119 33.6517 14.4521 33.8714 15.2989C33.4974 15.1597 33.1 15.0826 32.7042 15.0725C32.3303 15.0641 31.584 15.0708 31.7702 15.6393C31.901 15.9378 32.1945 15.8473 32.4477 15.8171C33.0212 15.7802 33.6148 15.9244 34.1028 16.2346C34.2152 16.7126 34.3175 17.1905 34.4063 17.6735C34.6478 19.0838 34.9195 20.536 35.0453 21.9899C35.052 22.0453 35.0553 22.1023 35.0603 22.1576C35.062 22.1844 35.0654 22.2096 35.0671 22.2364C35.0704 22.275 35.0721 22.3136 35.0754 22.3521C35.0771 22.3874 35.0805 22.4242 35.0821 22.4611C35.0821 22.4712 35.0821 22.4829 35.0838 22.4947C35.0872 22.5467 35.0905 22.6003 35.0939 22.654C35.0972 22.7194 35.1006 22.7848 35.1039 22.8502C35.1626 24.1549 35.0771 25.4545 34.7266 26.7189C34.7166 26.7558 34.7048 26.7944 34.6948 26.8313C34.6797 26.8732 34.6612 26.9134 34.6461 26.9553C34.6277 26.9973 34.6093 27.0392 34.5908 27.0794C34.5673 27.1314 34.5438 27.1834 34.5187 27.2337C34.507 27.2589 34.4952 27.284 34.4835 27.3075C34.4483 27.383 34.4097 27.4584 34.3711 27.5305C34.356 27.5607 34.3409 27.5892 34.3242 27.6177C34.2856 27.6865 34.2487 27.7536 34.2085 27.819C34.1917 27.8475 34.1749 27.876 34.1565 27.9045C34.138 27.9364 34.1179 27.9665 34.0978 27.9967C33.7473 28.5484 33.3415 29.0079 32.8904 29.3718C32.8887 29.3735 32.8853 29.3769 32.8837 29.3785C32.8568 29.4003 32.8317 29.4205 32.8049 29.4423C32.7763 29.4641 32.7462 29.4859 32.7177 29.5093C32.7177 29.5093 32.7177 29.5093 32.716 29.5093C32.6925 29.5261 32.669 29.5445 32.6439 29.5613C32.6338 29.568 32.6221 29.5764 32.612 29.5831C32.5952 29.5949 32.5768 29.6066 32.56 29.6183C32.4812 29.672 32.399 29.7257 32.3185 29.7743C32.2984 29.786 32.2783 29.7978 32.2582 29.8095C32.2012 29.843 32.1441 29.8732 32.0871 29.9034C32.067 29.9151 32.0469 29.9252 32.0268 29.9353C32.0033 29.9487 31.9798 29.9587 31.9563 29.9705C31.9379 29.9805 31.9178 29.9889 31.8993 29.9973C31.8792 30.0074 31.8607 30.0158 31.8406 30.0242C31.8339 30.0292 31.8255 30.0309 31.8188 30.0342L31.74 30.0694C31.74 30.0694 31.74 30.0694 31.7383 30.0694C31.7098 30.0828 31.6796 30.0946 31.6511 30.1063C31.6511 30.1063 31.6494 30.1063 31.6478 30.1063C31.6193 30.1181 31.5907 30.1298 31.5639 30.1399C31.5589 30.1415 31.5539 30.1449 31.5505 30.1449C31.5237 30.155 31.4968 30.1667 31.47 30.1751C31.4633 30.1768 31.4566 30.1801 31.4499 30.1818C31.4281 30.1885 31.408 30.1969 31.3862 30.2036C30.546 30.492 29.6237 30.5574 28.6628 30.4098C28.6226 30.4031 28.5823 30.3964 28.5437 30.3897C28.5085 30.3847 28.4733 30.378 28.4364 30.3713C28.3844 30.3612 28.3341 30.3512 28.2838 30.3411C28.257 30.3361 28.2318 30.331 28.205 30.3243C28.1866 30.3193 28.1681 30.3176 28.1497 30.3126C28.1161 30.3059 28.0859 30.2975 28.0524 30.2891C28.0155 30.2807 27.9769 30.2707 27.94 30.2623C27.8998 30.2522 27.8596 30.2405 27.8193 30.2287C27.7304 30.2053 27.6416 30.1784 27.5527 30.1499C27.5191 30.1399 27.489 30.1298 27.4554 30.1197C27.4286 30.1113 27.4034 30.103 27.3766 30.0946C27.3498 30.0845 27.3229 30.0761 27.2961 30.0677C27.1921 30.0325 27.0882 29.9923 26.9825 29.952C26.9624 29.9437 26.9423 29.9369 26.9221 29.9286C26.8953 29.9185 26.8668 29.9068 26.84 29.895C26.8014 29.8799 26.7645 29.8632 26.7276 29.8481C26.7243 29.8481 26.7209 29.8447 26.7176 29.8447C26.5968 29.7944 26.4744 29.7391 26.3537 29.6821C26.1692 29.6016 25.9478 29.6955 25.869 29.8783C25.8623 29.8967 25.8556 29.9135 25.8523 29.9319C25.8489 29.9403 25.8472 29.9487 25.8455 29.9571C25.7936 30.212 26.0166 30.3495 26.2447 30.4451C26.3201 30.4786 26.3973 30.5054 26.4643 30.5306C26.4945 30.544 26.523 30.5541 26.5532 30.5675C26.5767 30.5775 26.6002 30.5859 26.6236 30.5943C27.5258 30.9498 28.4783 31.1879 29.4493 31.2299C30.7841 31.3221 32.072 30.8744 33.1302 30.0946C33.1369 30.0895 33.157 30.0728 33.1872 30.0443C33.4421 29.8145 33.7943 29.8548 34.0089 30.051C34.133 30.1633 34.2101 30.3277 34.1984 30.5239C34.1984 30.5339 34.1984 30.5406 34.1967 30.5474C33.9619 32.7341 32.4644 35.4591 30.1804 36.0092C30.1586 36.0142 30.1368 36.0192 30.115 36.0243L30.11 36.0326ZM33.0027 78.2631C32.3923 78.4777 31.7836 78.6924 31.1732 78.9087C30.6215 79.1032 30.0698 79.2978 29.5181 79.4923C28.9663 79.6868 28.4163 79.8813 27.8663 80.0759C29.4946 78.7829 31.1095 77.4682 32.7177 76.1501C32.7512 76.1233 32.7847 76.0948 32.8183 76.068C32.8803 76.8008 32.9407 77.5336 33.0027 78.2664V78.2631Z" fill="black"/>
<path d="M32.0769 87.1004C32.0769 87.1004 32.0769 87.0937 32.0769 87.0904C32.3788 87.0082 32.6823 86.9243 32.9791 86.8288C34.8858 86.21 35.9792 84.4794 36.0982 82.5291C36.1536 81.3267 35.9942 80.1277 35.8266 78.9404C35.7997 78.7459 35.7712 78.5514 35.7444 78.3568C35.9976 78.3904 36.2508 78.4222 36.504 78.4558C36.5242 78.6017 36.5443 78.7476 36.5661 78.8935C37.0088 81.6722 37.2318 84.9791 34.6393 86.7969C34.0305 87.2346 33.3346 87.528 32.6102 87.7092C32.476 87.7494 32.3117 87.8047 32.1608 87.8265C32.1339 87.5851 32.1054 87.3436 32.0786 87.1021L32.0769 87.1004Z" fill="white"/>
<path d="M31.426 82.594C31.426 82.594 31.426 82.589 31.426 82.5856C31.426 82.5789 31.426 82.5722 31.4243 82.5655C31.4092 82.433 31.3874 82.3005 31.3706 82.1697C31.327 81.8561 31.2851 81.5409 31.2432 81.2273C31.1476 80.5246 31.052 79.8237 30.9564 79.121C30.9514 79.0774 30.9447 79.0355 30.938 78.9936C31.0168 78.9651 31.0973 78.9383 31.1761 78.9098C31.3337 78.8544 31.4897 78.7991 31.6473 78.7437C31.7161 79.2485 31.7865 79.7533 31.8553 80.258C31.9408 80.8885 32.028 81.5191 32.1135 82.1496C32.1286 82.2569 32.1454 82.3643 32.1571 82.4733C32.1689 82.5739 32.1521 82.6695 32.0934 82.7516C32.0364 82.8304 31.9509 82.8841 31.8553 82.9009C31.8352 82.9042 31.8167 82.9059 31.7966 82.9059C31.6222 82.9059 31.4511 82.7785 31.4277 82.599L31.426 82.594Z" fill="white"/>
<path d="M32.4187 90.0989C32.3801 89.7635 32.3416 89.4281 32.303 89.0927C32.2275 88.4287 32.1521 87.7646 32.0749 87.1022C32.0095 86.5321 31.9374 85.9619 31.8787 85.3917C31.8787 85.3884 31.8787 85.3867 31.8787 85.3833C31.8586 85.1821 31.9995 84.9943 32.2024 84.9708C32.4003 84.9473 32.5931 85.0932 32.6132 85.2928C32.6132 85.2928 32.6132 85.2928 32.6132 85.2945C32.6132 85.2995 32.6132 85.3045 32.6132 85.3096C32.6753 85.9099 32.7508 86.5086 32.8195 87.1072C32.9017 87.825 32.9839 88.541 33.066 89.2588C33.0979 89.5388 33.1297 89.8189 33.1616 90.1006H32.417L32.4187 90.0989Z" fill="white"/>
<path d="M33.2174 43.2354C33.0933 43.2236 32.9743 43.1767 32.8736 43.1062C32.7864 43.0442 32.7194 42.9654 32.6707 42.8849C32.664 42.8748 32.659 42.8631 32.6523 42.853C32.6506 42.8497 32.6473 42.8446 32.6456 42.8413C32.4745 42.5193 32.6037 42.0883 32.9139 41.9039C33.2208 41.7211 33.6132 41.7831 33.8479 42.0548C34.1062 42.355 34.0592 42.8514 33.7373 43.0895C33.6048 43.1867 33.4522 43.2421 33.2895 43.2421C33.266 43.2421 33.2426 43.2421 33.2208 43.2387L33.2174 43.2354Z" fill="black"/>
<path d="M33.6393 49.4346C33.5471 49.4111 33.4616 49.3726 33.3861 49.3172C33.3777 49.3122 33.371 49.3055 33.3626 49.3005C33.361 49.3005 33.3593 49.2971 33.3576 49.2954C33.3543 49.2921 33.3509 49.2904 33.3476 49.287C33.1161 49.0925 33.0407 48.7303 33.1849 48.462C33.2704 48.3044 33.4079 48.1752 33.5823 48.1232C33.7517 48.0713 33.9295 48.0813 34.0904 48.1585C34.4543 48.3362 34.5784 48.8074 34.3587 49.1428C34.2363 49.3306 34.0133 49.4514 33.7903 49.4514C33.74 49.4514 33.6896 49.4447 33.6393 49.4329V49.4346Z" fill="black"/>
<path d="M47.1393 79.4723V80.2152C42.6149 79.5796 38.0905 78.939 33.546 78.4661C33.115 78.4376 33.0815 77.7954 33.5191 77.73C33.6952 77.7199 33.8747 77.7736 34.0507 77.782C37.7886 78.1677 41.5131 78.6724 45.2343 79.2023C45.8682 79.2946 46.5037 79.3851 47.1393 79.4723Z" fill="black"/>
<path d="M26.8799 80.7313C26.8027 80.5451 26.8933 80.3254 27.0794 80.2483C28.1275 79.8089 29.1773 79.3763 30.227 78.9403C30.7603 78.7189 31.2936 78.4976 31.8268 78.2762C32.0851 78.1689 32.345 78.0616 32.6033 77.9526C32.7743 77.8805 32.9487 77.8134 33.1181 77.7379C33.3026 77.6558 33.5256 77.7547 33.601 77.9375C33.6799 78.1253 33.586 78.3399 33.4032 78.4204C33.1583 78.5294 32.9085 78.625 32.662 78.729C32.3182 78.8715 31.9744 79.0141 31.6323 79.1583C30.9582 79.4383 30.2857 79.7184 29.6116 79.9984C28.862 80.3087 28.1141 80.6189 27.3662 80.9325C27.3209 80.9509 27.2739 80.9593 27.227 80.9593C27.0811 80.9593 26.9419 80.8738 26.8832 80.7329L26.8799 80.7313Z" fill="black"/>
<path d="M35.3619 75.9404C35.32 75.8549 35.2965 75.7626 35.2915 75.6704V75.667C35.2915 75.6436 35.2915 75.6201 35.2915 75.5949C35.2915 75.5765 35.2949 75.5597 35.2982 75.5429C35.3116 75.4306 35.3502 75.3216 35.419 75.231C35.5229 75.0918 35.6571 75.003 35.8231 74.956C36.0076 74.904 36.2189 74.9493 36.3765 75.0533C36.5241 75.1522 36.6196 75.2998 36.6649 75.4692C36.7672 75.8448 36.5006 76.2372 36.1283 76.316C36.083 76.3261 36.0361 76.3294 35.9908 76.3294C35.7292 76.3294 35.4776 76.1785 35.3619 75.9404Z" fill="black"/>
<path d="M47.1409 66.4474L28.272 79.7506L38.8921 70.685L47.1409 64.3445V66.4474Z" fill="black"/>
<path d="M122.632 89.7281C122.427 89.7281 122.263 89.562 122.263 89.3591V77.852C122.263 77.6474 122.429 77.483 122.632 77.483C122.835 77.483 123.001 77.649 123.001 77.852V89.3591C123.001 89.5637 122.835 89.7281 122.632 89.7281Z" fill="black"/>
<path d="M122.261 46.2608C122.261 46.4647 122.425 46.6315 122.629 46.6315L122.632 46.6298C122.834 46.6298 123 46.4647 123 46.2591V1.00094C123 0.79688 122.835 0.631459 122.631 0.631459C122.426 0.631459 122.261 0.796879 122.261 1.00094V46.2608Z" fill="black"/>
<path d="M47.7356 44.6432V0.999263C47.7356 0.79613 47.5709 0.631459 47.3678 0.631459C47.1647 0.631459 47 0.79613 47 0.999262V44.6432C47 44.8471 47.1655 45.0139 47.3678 45.0139C47.5701 45.0139 47.7356 44.8488 47.7356 44.6432Z" fill="black"/>
<path d="M47.1391 89.7282C46.9345 89.7282 46.7701 89.5622 46.7701 89.3593V64.346C46.7701 64.1414 46.9362 63.9771 47.1391 63.9771C47.342 63.9771 47.508 64.1431 47.508 64.346V89.3593C47.508 89.5639 47.342 89.7282 47.1391 89.7282Z" fill="black"/>
<path d="M113.14 17.0718H83.6405C83.0626 17.0718 82.5941 17.5403 82.5941 18.1182V39.8682C82.5941 40.4461 83.0626 40.9146 83.6405 40.9146H113.14C113.718 40.9146 114.186 40.4461 114.186 39.8682V18.1182C114.186 17.5403 113.718 17.0718 113.14 17.0718Z" fill="#8EBAE9"/>
<path d="M113.14 41.2828H83.641C82.8596 41.2828 82.224 40.6473 82.224 39.8658V18.1159C82.224 17.3344 82.8596 16.6988 83.641 16.6988H113.14C113.922 16.6988 114.557 17.3344 114.557 18.1159V39.8658C114.557 40.6473 113.922 41.2828 113.14 41.2828ZM83.641 17.44C83.2671 17.44 82.9635 17.7436 82.9635 18.1175V39.8675C82.9635 40.2414 83.2671 40.545 83.641 40.545H113.14C113.514 40.545 113.818 40.2414 113.818 39.8675V18.1175C113.818 17.7436 113.514 17.44 113.14 17.44H83.641Z" fill="black"/>
<path d="M102.352 35.1591L101.96 37.0825H93.1522L93.5245 35.1591H96.7426L98.5268 26.2562H95.349L95.7213 24.3327H101.304L99.1356 35.1591H102.352Z" fill="#101113"/>
<path d="M99.6691 20.2666H102.161L101.67 22.621H99.1996L99.6691 20.2666Z" fill="#101113"/>
<path d="M73.1015 17.0718H56.6322C56.0543 17.0718 55.5858 17.5403 55.5858 18.1182V39.8682C55.5858 40.4461 56.0543 40.9146 56.6322 40.9146H73.1015C73.6794 40.9146 74.1479 40.4461 74.1479 39.8682V18.1182C74.1479 17.5403 73.6794 17.0718 73.1015 17.0718Z" fill="white"/>
<path d="M73.1012 41.2828H56.632C55.8505 41.2828 55.215 40.6473 55.215 39.8658V18.1159C55.215 17.3344 55.8505 16.6988 56.632 16.6988H73.1012C73.8827 16.6988 74.5166 17.3344 74.5166 18.1159V39.8658C74.5166 40.6473 73.881 41.2828 73.1012 41.2828ZM56.632 17.44C56.258 17.44 55.9545 17.7436 55.9545 18.1175V39.8675C55.9545 40.2414 56.258 40.545 56.632 40.545H73.1012C73.4752 40.545 73.7787 40.2414 73.7787 39.8675V18.1175C73.7787 17.7436 73.4752 17.44 73.1012 17.44H56.632Z" fill="black"/>
<path d="M113.14 80.2263H75.6891C75.4845 80.2263 75.3202 80.0603 75.3202 79.8573C75.3202 79.6544 75.4862 79.4884 75.6891 79.4884H113.14C113.514 79.4884 113.818 79.1849 113.818 78.8109V75.7975C113.818 75.5929 113.984 75.4285 114.187 75.4285C114.39 75.4285 114.556 75.5946 114.556 75.7975V78.8109C114.556 79.5924 113.92 80.2279 113.139 80.2279L113.14 80.2263Z" fill="black"/>
<path d="M74.5941 48.0043H65.8253C65.6208 48.0043 65.4564 47.8383 65.4564 47.6354C65.4564 47.4325 65.6224 47.2665 65.8253 47.2665H74.5941C74.7987 47.2665 74.963 47.4325 74.963 47.6354C74.963 47.8383 74.797 48.0043 74.5941 48.0043Z" fill="black"/>
<path d="M114.187 48.0043H78.8181C78.6136 48.0043 78.4492 47.8383 78.4492 47.6354C78.4492 47.4325 78.6152 47.2665 78.8181 47.2665H114.187C114.391 47.2665 114.555 47.4325 114.555 47.6354C114.555 47.8383 114.389 48.0043 114.187 48.0043Z" fill="black"/>
<path d="M108.321 53.598H61.7458C61.5412 53.598 61.3768 53.432 61.3768 53.2291C61.3768 53.0262 61.5429 52.8602 61.7458 52.8602H108.321C108.526 52.8602 108.69 53.0262 108.69 53.2291C108.69 53.432 108.524 53.598 108.321 53.598Z" fill="black"/>
<path d="M95.4019 59.1912H61.1704C60.9659 59.1912 60.8015 59.0251 60.8015 58.8222C60.8015 58.6193 60.9675 58.4533 61.1704 58.4533H95.4019C95.6065 58.4533 95.7708 58.6193 95.7708 58.8222C95.7708 59.0251 95.6048 59.1912 95.4019 59.1912Z" fill="black"/>
<path d="M105.839 59.1912H99.626C99.4214 59.1912 99.2571 59.0251 99.2571 58.8222C99.2571 58.6193 99.4231 58.4533 99.626 58.4533H105.839C106.044 58.4533 106.208 58.6193 106.208 58.8222C106.208 59.0251 106.042 59.1912 105.839 59.1912Z" fill="black"/>
<path d="M141.226 81.84C140.284 82.7825 138.756 82.7825 137.814 81.84L128.027 72.0534L131.44 68.6408L141.226 78.4275C142.169 79.3699 142.169 80.8976 141.226 81.84Z" fill="#8EBAE9"/>
<path d="M129.339 70.2248C133.546 66.0185 133.546 59.1986 129.339 54.9923C125.133 50.786 118.313 50.786 114.107 54.9923C109.901 59.1986 109.901 66.0185 114.107 70.2248C118.313 74.4311 125.133 74.4311 129.339 70.2248Z" fill="white"/>
<path d="M121.735 57.5763C121.723 57.6118 121.718 57.6253 121.706 57.6574C121.717 57.6304 121.725 57.6033 121.735 57.5763Z" fill="black"/>
<path d="M118.931 73.7194C118.879 73.7194 118.826 73.7076 118.774 73.6842C118.589 73.597 118.51 73.3773 118.596 73.1928L128.044 53.1148C128.131 52.9303 128.351 52.8515 128.535 52.937C128.72 53.0242 128.798 53.2439 128.713 53.4284L119.265 73.5064C119.201 73.6406 119.069 73.7194 118.93 73.7194H118.931Z" fill="black"/>
<path d="M115.582 72.0154C115.53 72.0154 115.477 72.0037 115.425 71.9802C115.24 71.893 115.161 71.6733 115.247 71.4889L120.122 61.1304C120.209 60.9459 120.429 60.8671 120.613 60.9526C120.797 61.0399 120.876 61.2595 120.791 61.444L115.916 71.8025C115.852 71.9366 115.72 72.0154 115.58 72.0154H115.582Z" fill="black"/>
<path d="M121.922 58.5392C121.87 58.5392 121.817 58.5274 121.765 58.504C121.58 58.4168 121.501 58.1971 121.587 58.0126L124.694 51.4105C124.782 51.226 125.001 51.1472 125.186 51.2327C125.37 51.3199 125.449 51.5396 125.363 51.7241L122.256 58.3262C122.192 58.4604 122.06 58.5392 121.921 58.5392H121.922Z" fill="black"/>
<path d="M121.41 52.6717C121.004 52.6968 120.604 52.7438 120.203 52.8092C119.753 52.893 119.311 53.0037 118.875 53.1395C118.455 53.2787 118.045 53.4447 117.644 53.6309C117.253 53.8237 116.876 54.0384 116.509 54.2731C116.146 54.5163 115.799 54.7796 115.467 55.063C115.135 55.3565 114.823 55.6667 114.528 55.997C114.251 56.319 113.991 56.6544 113.752 57.0032C113.53 57.3419 113.327 57.6891 113.141 58.0463C112.952 58.4336 112.782 58.8277 112.636 59.2319C112.506 59.6176 112.395 60.01 112.306 60.4074C112.216 60.8518 112.154 61.2995 112.113 61.7506C112.088 62.1514 112.083 62.5505 112.098 62.9513C112.123 63.3706 112.169 63.7881 112.239 64.2023C112.325 64.645 112.43 65.0794 112.566 65.5103C112.707 65.9296 112.871 66.3387 113.059 66.7412C113.25 67.1252 113.46 67.4975 113.691 67.8597C113.933 68.222 114.194 68.5657 114.474 68.8994C114.759 69.2248 115.063 69.5316 115.383 69.8218C115.724 70.1169 116.079 70.3919 116.452 70.6451C116.777 70.8581 117.112 71.0593 117.461 71.2371C117.488 71.2505 117.513 71.2639 117.538 71.2757C117.9 71.4501 118.268 71.6043 118.645 71.7419C119.047 71.8777 119.455 71.9934 119.871 72.0856C120.285 72.1695 120.701 72.2298 121.122 72.2684C121.283 72.2802 121.445 72.2885 121.608 72.2936C121.871 72.3003 122.136 72.2986 122.4 72.2885C122.826 72.2634 123.25 72.2131 123.669 72.141C124.088 72.0588 124.499 71.9565 124.907 71.8307C125.032 71.7888 125.155 71.7452 125.279 71.6999C125.421 71.6463 125.564 71.5909 125.703 71.5322C125.844 71.4735 125.983 71.4132 126.122 71.3494C126.184 71.3193 126.248 71.2874 126.31 71.2555C126.639 71.0878 126.958 70.9051 127.269 70.7055C127.632 70.4624 127.98 70.2007 128.316 69.919C128.487 69.7681 128.651 69.6138 128.812 69.4545L128.864 69.4025C128.923 69.3438 128.982 69.2835 129.039 69.2231C129.04 69.2214 129.042 69.2197 129.042 69.2197C129.117 69.1409 129.193 69.0604 129.265 68.9799C129.34 68.8927 129.414 68.8039 129.488 68.7116C129.545 68.6429 129.6 68.5724 129.656 68.5003C129.706 68.4366 129.755 68.3729 129.803 68.3075C129.879 68.2085 129.951 68.1079 130.023 68.0056C130.256 67.6535 130.471 67.2896 130.667 66.9156C130.86 66.5232 131.031 66.1241 131.178 65.7132C131.306 65.3359 131.415 64.9519 131.504 64.5629C131.589 64.1386 131.655 63.7127 131.695 63.28C131.725 62.8406 131.732 62.403 131.715 61.9619C131.687 61.546 131.64 61.1335 131.569 60.721C131.484 60.2783 131.373 59.8439 131.239 59.4146C131.106 59.0222 130.952 58.6382 130.778 58.2609C130.581 57.8618 130.368 57.4778 130.129 57.1055C129.875 56.7282 129.602 56.3693 129.31 56.0239C129.017 55.6952 128.708 55.3866 128.381 55.0915C128.068 54.8232 127.742 54.5716 127.402 54.3369C127.045 54.1021 126.678 53.8858 126.299 53.6912C125.933 53.5135 125.557 53.3542 125.175 53.2167C124.773 53.0775 124.363 52.9635 123.947 52.8712C123.547 52.7907 123.141 52.7304 122.799 52.6985C122.775 52.6951 122.752 52.6935 122.728 52.6918H122.725C122.701 52.6901 122.678 52.6884 122.655 52.6868C122.403 52.6683 122.153 52.6616 121.902 52.6616C121.739 52.6616 121.578 52.665 121.415 52.6717H121.41ZM118.549 75.2685C117.012 74.8895 115.534 74.2388 114.228 73.34C112.833 72.3791 111.627 71.1734 110.678 69.7681C110.572 69.6105 110.47 69.4512 110.373 69.2885C110.346 69.2449 110.321 69.2013 110.294 69.1577C108.645 66.3941 108.018 63.01 108.65 59.8439C108.803 59.0742 109.013 58.3179 109.294 57.5851C109.579 56.8456 109.928 56.1429 110.329 55.4604C110.718 54.798 111.183 54.1641 111.692 53.589C112.207 53.0087 112.759 52.4688 113.364 51.9824C114.604 50.9981 115.994 50.2082 117.501 49.7135C119.007 49.2172 120.605 48.9656 122.193 49.0327C122.514 49.0461 122.831 49.0679 123.131 49.0998C123.139 49.0998 123.148 49.1031 123.158 49.1031H123.166C124.331 49.2406 125.477 49.5039 126.57 49.9366C127.662 50.3692 128.676 50.9344 129.627 51.6202C130.885 52.5409 131.962 53.6879 132.827 54.9808C133.711 56.2989 134.324 57.778 134.697 59.3174C134.913 60.2062 135.02 61.1285 135.04 62.0407V62.0961C135.057 63.6154 134.832 65.1112 134.358 66.5551C133.868 68.0459 133.092 69.4461 132.114 70.6703C132.109 70.677 132.104 70.682 132.101 70.6871C131.774 71.0946 131.423 71.4803 131.051 71.8441C130.719 72.1695 130.367 72.478 130.001 72.7681L129.973 72.7916C129.649 73.0532 129.309 73.2981 128.956 73.5261C128.509 73.8162 128.043 74.0778 127.563 74.3093C127.258 74.4568 126.946 74.5943 126.631 74.7168C125.13 75.3054 123.537 75.6257 122.024 75.6475H121.902C121.836 75.6508 121.771 75.6508 121.707 75.6508C120.642 75.6508 119.584 75.5133 118.549 75.2651V75.2685Z" fill="black"/>
<path d="M139.519 82.9152C138.806 82.9152 138.094 82.6435 137.552 82.1019L127.765 72.3152C127.621 72.171 127.621 71.9363 127.765 71.792L131.178 68.3795C131.317 68.2403 131.562 68.2403 131.701 68.3795L141.488 78.1661C142.013 78.691 142.303 79.3903 142.303 80.1331C142.303 80.876 142.013 81.5753 141.488 82.1002C140.946 82.6419 140.233 82.9135 139.521 82.9135L139.519 82.9152ZM128.548 72.0536L138.073 81.5787C138.87 82.3752 140.166 82.3752 140.963 81.5787C141.349 81.193 141.561 80.6798 141.561 80.1331C141.561 79.5865 141.349 79.075 140.963 78.6876L131.438 69.1626L128.548 72.052V72.0536Z" fill="black"/>
<path d="M64.8305 21.3576H64.589C61.2284 21.3576 59.4156 22.9054 59.4156 25.8065V27.2571H62.4861V25.8065C62.4861 24.4532 63.2592 23.7992 64.589 23.7992H64.8305C66.1603 23.7992 66.9585 24.4515 66.9585 25.7814V26.0715C66.9585 28.7059 63.0429 27.4432 63.0429 31.9156H66.1134C66.1134 29.1252 70.029 30.0089 70.029 25.949V25.6589C70.029 22.8786 68.1911 21.3559 64.8322 21.3559L64.8305 21.3576Z" fill="#101113"/>
<path d="M66.1122 33.8522H63.0417V36.6275H66.1122V33.8522Z" fill="#101113"/>
<path d="M73.2659 85.1687L67.1032 80.822L60.9387 85.1687V65.4679H73.2659V85.1687Z" fill="#8EBAE9"/>
<path d="M58.8271 80.2265H56.632C55.8505 80.2265 55.215 79.591 55.215 78.8095V66.5142C55.215 65.7327 55.8505 65.0972 56.632 65.0972H105.839C106.043 65.0972 106.207 65.2632 106.207 65.4661C106.207 65.669 106.041 65.835 105.839 65.835H56.632C56.258 65.835 55.9545 66.1386 55.9545 66.5125V78.8079C55.9545 79.1818 56.258 79.4853 56.632 79.4853H58.8271C59.0317 79.4853 59.196 79.6514 59.196 79.8543C59.196 80.0572 59.03 80.2232 58.8271 80.2232V80.2265Z" fill="black"/>
<path d="M105.838 70.6466H88.4501C88.2455 70.6466 88.0812 70.4806 88.0812 70.2777C88.0812 70.0748 88.2472 69.9088 88.4501 69.9088H105.838C106.043 69.9088 106.207 70.0748 106.207 70.2777C106.207 70.4806 106.041 70.6466 105.838 70.6466Z" fill="#8EBAE9"/>
<path d="M85.2829 70.6466H75.6891C75.4845 70.6466 75.3202 70.4806 75.3202 70.2777C75.3202 70.0748 75.4862 69.9088 75.6891 69.9088H85.2829C85.4875 69.9088 85.6518 70.0748 85.6518 70.2777C85.6518 70.4806 85.4858 70.6466 85.2829 70.6466Z" fill="#8EBAE9"/>
<path d="M109.141 74.9596H75.6891C75.4845 74.9596 75.3202 74.7936 75.3202 74.5907C75.3202 74.3878 75.4862 74.2217 75.6891 74.2217H109.141C109.345 74.2217 109.51 74.3878 109.51 74.5907C109.51 74.7936 109.344 74.9596 109.141 74.9596Z" fill="#8EBAE9"/>
<path d="M73.2655 82.4553C73.0609 82.4553 72.8966 82.2893 72.8966 82.0864V77.6307C72.8966 77.4261 73.0626 77.2618 73.2655 77.2618C73.4684 77.2618 73.6345 77.4278 73.6345 77.6307V82.0864C73.6345 82.2909 73.4684 82.4553 73.2655 82.4553Z" fill="black"/>
<path d="M73.2655 74.9593C73.0609 74.9593 72.8966 74.7932 72.8966 74.5903V65.4694C72.8966 65.2649 73.0626 65.1005 73.2655 65.1005C73.4684 65.1005 73.6345 65.2665 73.6345 65.4694V74.5903C73.6345 74.7949 73.4684 74.9593 73.2655 74.9593Z" fill="black"/>
<path d="M60.9385 75.6887C60.7339 75.6887 60.5696 75.5227 60.5696 75.3198V65.4694C60.5696 65.2649 60.7356 65.1005 60.9385 65.1005C61.1414 65.1005 61.3074 65.2665 61.3074 65.4694V75.3198C61.3074 75.5244 61.1414 75.6887 60.9385 75.6887Z" fill="black"/>
<path d="M48.9954 29.6446C48.5947 29.4735 48.1922 29.3058 47.7914 29.1348C47.5885 29.0224 47.2883 28.9855 47.2112 28.7357C47.1558 28.5512 47.2615 28.3214 47.4577 28.2745C47.6237 28.2275 47.7679 28.3131 47.9121 28.3818C48.3549 28.5797 48.8059 28.7608 49.252 28.9503C49.5975 29.0861 49.5287 29.5205 49.2721 29.6395C49.195 29.6747 49.1011 29.6831 48.9971 29.6446H48.9954Z" fill="black"/>
<path d="M48.9954 33.327C48.5947 33.4981 48.1922 33.6658 47.7914 33.8368C47.5885 33.9492 47.2883 33.9861 47.2112 34.2359C47.1558 34.4204 47.2615 34.6501 47.4577 34.6971C47.6237 34.744 47.7679 34.6585 47.9121 34.5898C48.3549 34.3919 48.8059 34.2108 49.252 34.0213C49.5975 33.8854 49.5287 33.4511 49.2721 33.332C49.195 33.2968 49.1011 33.2884 48.9971 33.327H48.9954Z" fill="black"/>
<path d="M48.7052 31.9066C47.8918 31.8781 47.0785 31.8899 46.2635 31.8882C46.0623 31.8882 45.8963 31.7138 45.898 31.5142C45.8996 31.3113 46.0707 31.1486 46.2719 31.1486C47.1138 31.152 47.9573 31.1369 48.7957 31.1721C49.2116 31.2275 49.2049 31.7624 48.898 31.8865C48.8427 31.9083 48.7773 31.9184 48.7035 31.9083L48.7052 31.9066Z" fill="black"/>
<path d="M85.7893 29.6444C86.1901 29.4734 86.5925 29.3057 86.9933 29.1346C87.1962 29.0223 87.4964 28.9854 87.5735 28.7355C87.6289 28.551 87.5232 28.3213 87.327 28.2744C87.161 28.2274 87.0168 28.3129 86.8726 28.3817C86.4299 28.5796 85.9788 28.7607 85.5327 28.9502C85.1872 29.086 85.256 29.5203 85.5126 29.6394C85.5897 29.6746 85.6836 29.683 85.7876 29.6444H85.7893Z" fill="black"/>
<path d="M85.7894 33.327C86.1902 33.4981 86.5926 33.6658 86.9934 33.8368C87.1963 33.9492 87.4965 33.9861 87.5737 34.2359C87.629 34.4204 87.5233 34.6501 87.3271 34.6971C87.1611 34.744 87.0169 34.6585 86.8727 34.5898C86.43 34.3919 85.9789 34.2108 85.5328 34.0213C85.1874 33.8854 85.2561 33.4511 85.5127 33.332C85.5898 33.2968 85.6837 33.2884 85.7877 33.327H85.7894Z" fill="black"/>
<path d="M86.0791 31.9066C86.8924 31.8781 87.7057 31.8899 88.5207 31.8882C88.7219 31.8882 88.888 31.7138 88.8863 31.5142C88.8846 31.3113 88.7136 31.1486 88.5123 31.1486C87.6705 31.152 86.827 31.1369 85.9885 31.1721C85.5727 31.2275 85.5794 31.7624 85.8862 31.8865C85.9416 31.9083 86.007 31.9184 86.0808 31.9083L86.0791 31.9066Z" fill="black"/>
</svg>
