<svg width="156" height="48" viewBox="0 0 156 48" fill="none" xmlns="http://www.w3.org/2000/svg">
<path d="M63.3439 10.2856V31.9961H66.7728V10.2856H63.3439Z" fill="white"/>
<path d="M57.3896 22.1289V28.0375C57.3896 29.1863 57.7684 29.7838 58.9579 29.7838C59.3717 29.7878 59.7832 29.7212 60.1741 29.5867L60.2272 31.786C59.4542 32.0457 58.6446 32.1831 57.8281 32.1931C54.4657 32.1931 53.841 30.4206 53.841 27.7748V22.1289H51.8473V19.562H53.841V15.5377H57.4029V19.562H60.3601V22.1289H57.3896Z" fill="white"/>
<path fill-rule="evenodd" clip-rule="evenodd" d="M37.9586 21.2886C39.5181 19.9159 41.5384 19.1647 43.627 19.1813C47.4414 19.1813 49.0031 21.2295 49.0031 25.7462V28.3722C49.0031 30.0134 50.3322 29.7836 50.3322 29.7836L50.4319 31.8845C49.9468 32.1655 49.3926 32.3087 48.8303 32.2981C47.6925 32.3577 46.6242 31.7544 46.0991 30.7554C46.0991 30.7554 44.9761 32.2193 42.2116 32.2193C40.2179 32.2193 37.3937 31.3658 37.3937 28.4444C37.3937 24.8468 41.6667 23.9605 45.9463 24.0524V23.9605C45.9463 22.4177 44.7036 21.7547 43.2217 21.7547C41.9288 21.6956 40.6693 22.1714 39.7462 23.0677L37.9586 21.2886ZM45.8066 26.5406H45.0889C43.2681 26.5406 40.683 26.8163 40.683 28.2869C40.683 29.7574 42.1849 29.8494 43.0156 29.8494C44.4036 29.9615 45.6332 28.9699 45.8 27.6041L45.8066 26.5406Z" fill="white"/>
<path fill-rule="evenodd" clip-rule="evenodd" d="M70.2482 21.2886C71.8044 19.9189 73.8195 19.1681 75.9032 19.1812C79.7184 19.1812 81.2792 21.2296 81.2792 25.7463V28.3722C81.2792 30.0135 82.6087 29.7837 82.6087 29.7837L82.7081 31.8845C82.223 32.1656 81.6684 32.3087 81.107 32.298C79.9687 32.3578 78.9007 31.7544 78.3752 30.7553C78.3752 30.7553 77.2524 32.2193 74.4881 32.2193C72.4944 32.2193 69.6701 31.3659 69.6701 28.4444C69.6701 24.8469 73.943 23.9605 78.2227 24.0525V23.9605C78.2227 22.4178 76.9798 21.7547 75.4978 21.7547C74.2052 21.6957 72.9452 22.1714 72.023 23.0677L70.2482 21.2886ZM78.0967 26.5405H77.3852C75.5647 26.5405 72.9795 26.8163 72.9795 28.2869C72.9795 29.7575 74.4812 29.8493 75.3118 29.8493C76.7004 29.9616 77.9295 28.97 78.0967 27.6041V26.5405Z" fill="white"/>
<path d="M93.467 31.996V25.2011C93.467 23.829 92.8027 22.5752 91.3404 22.5752C89.8781 22.5752 89.0347 23.8225 89.0347 25.247V31.996H85.6524V19.4501H88.9747V21.2818H89.0278C89.8952 20.089 91.3104 19.4058 92.7958 19.4633C96.185 19.4633 96.923 21.8464 96.923 24.3412V32.0287L93.467 31.996Z" fill="white"/>
<path d="M15.9357 25.1947V32.0223H19.3912V24.328C19.3912 21.8334 18.6535 19.4504 15.2645 19.4504C13.7791 19.3928 12.3637 20.076 11.4966 21.2688H11.4434V19.4372H8.12071V31.9828H11.5033V25.2406C11.5033 23.816 12.3472 22.5686 13.8091 22.5686C15.2711 22.5686 15.9357 23.8226 15.9357 25.1947Z" fill="white"/>
<path fill-rule="evenodd" clip-rule="evenodd" d="M35.8918 16.8574V19.2602H34.7488C33.4163 19.2602 33.1529 19.768 32.9504 20.1584L32.9493 20.1606C32.922 20.2133 32.8958 20.2638 32.8681 20.3106C34.0617 20.932 34.8088 22.1553 34.8086 23.488C34.8086 26.3898 32.6821 28.0835 28.5022 28.0835C27.678 28.1449 26.8513 28.0028 26.0966 27.67C26.0599 27.688 26.0167 27.7064 25.9696 27.7264C25.6906 27.8446 25.2725 28.0219 25.2725 28.5496C25.2725 29.406 26.5302 29.3962 27.2072 29.3908L27.2763 29.3903C27.3005 29.3901 27.3237 29.39 27.3459 29.39H31.446C32.6456 29.3064 33.8328 29.6746 34.7687 30.4207C35.5595 31.1297 35.9183 31.8519 35.9183 33.5916C35.9183 35.7909 34.164 37.7144 28.4556 37.7144C24.1294 37.7144 21.9964 36.3358 21.9964 34.0642C21.9653 32.9121 22.6169 31.8477 23.6644 31.3398C22.8878 30.8169 22.4131 29.9571 22.3884 29.0289C22.3738 27.9022 23.033 26.8727 24.0697 26.4029C23.1502 25.615 22.6378 24.4603 22.6742 23.2582C22.6785 22.132 23.19 21.0663 24.0697 20.35C25.2924 19.4229 26.81 18.9573 28.3492 19.037C29.1831 19.0354 30.0145 19.1257 30.828 19.3061C31.2486 17.8027 32.6592 16.7814 34.237 16.8378L35.8918 16.8574ZM25.3456 32.0161C25.3456 32.0161 24.588 32.4953 24.588 33.1124C24.5748 33.7516 24.8965 34.3522 25.4386 34.7011C26.1629 35.1935 26.6015 35.2723 28.1698 35.2789H29.1201C32.3232 35.2789 32.5359 34.0053 32.5292 33.3881C32.5292 32.9417 32.2301 32.1474 30.4824 32.1474H27.2129C26.5873 32.1821 25.9599 32.138 25.3456 32.0161ZM31.3198 23.3501C31.3632 23.9339 31.1416 24.5064 30.715 24.9126C30.159 25.3737 29.4463 25.6084 28.7214 25.5692C27.997 25.6051 27.2854 25.3708 26.7278 24.9126C26.2918 24.5418 26.0478 23.997 26.0632 23.4289C26.0775 22.901 26.3193 22.4041 26.7278 22.0634C27.2537 21.6585 27.9093 21.4535 28.5752 21.4857C30.8014 21.4857 31.3198 22.6018 31.3198 23.3501Z" fill="white"/>
<path d="M0.857178 19.4501H4.23963V31.9959H0.857178V19.4501Z" fill="white"/>
<path d="M0.780172 16.6407C1.26394 17.0952 1.91091 17.3408 2.57837 17.3232C3.49337 17.37 4.35986 16.9144 4.83163 16.1385C5.30331 15.3625 5.30331 14.3929 4.83163 13.6169C4.35986 12.8409 3.49337 12.3854 2.57837 12.4323C1.18063 12.4211 0.0325715 13.5201 0 14.9007C0.0155999 15.5601 0.296315 16.1861 0.780172 16.6407Z" fill="white"/>
<path d="M115.117 22.1421C115.949 22.1421 117.37 22.4835 117.822 23.081L119.69 20.8423C118.726 19.8444 116.832 19.4242 115.038 19.4242C111.124 19.4242 108.014 21.6695 108.014 25.7857C108.014 29.902 111.077 32.1472 115.064 32.1472C116.912 32.1472 118.679 31.7993 119.716 30.8014L117.928 28.5299C117.423 29.1273 116.007 29.3177 115.171 29.3177C113.837 29.3829 112.574 28.7205 111.883 27.5925C111.191 26.4646 111.18 25.0525 111.855 23.9146C112.53 22.7768 113.784 22.0963 115.117 22.1421Z" fill="white"/>
<path fill-rule="evenodd" clip-rule="evenodd" d="M123.022 30.2947C124.232 31.5004 125.893 32.1587 127.61 32.1143C129.332 32.1623 130.997 31.5058 132.211 30.2999C133.425 29.0941 134.081 27.4463 134.024 25.7463C134.024 21.8467 131.106 19.457 127.61 19.457C125.9 19.3902 124.238 20.0304 123.026 21.2238C121.813 22.4172 121.157 24.056 121.218 25.7463C121.159 27.4433 121.812 29.0891 123.022 30.2947ZM130.647 25.7003C130.647 27.6436 129.306 29.2191 127.651 29.2191L127.644 29.2257C125.99 29.2257 124.653 27.6436 124.653 25.7003C124.653 23.757 125.983 22.1815 127.651 22.1815C129.319 22.1815 130.647 23.757 130.647 25.7003Z" fill="white"/>
<path d="M102.485 32.2457C101.817 32.2633 101.17 32.0177 100.687 31.5632C100.202 31.1087 99.9222 30.4825 99.9067 29.8231C99.9359 28.4401 101.084 27.3371 102.485 27.3481C103.4 27.3013 104.266 27.757 104.738 28.5328C105.21 29.3087 105.21 30.2785 104.738 31.0544C104.266 31.8304 103.4 32.2859 102.485 32.2391V32.2457Z" fill="white"/>
<path d="M152.584 31.996V25.2012C152.584 23.7766 152 22.5752 150.537 22.5752C149.076 22.5752 148.185 23.8881 148.185 25.2733V31.996H144.802V24.9057C144.828 24.2899 144.596 23.691 144.158 23.2508C143.722 22.8107 143.12 22.5685 142.496 22.5816C141.168 22.5816 140.424 23.7569 140.424 25.2536V31.996H137.042V19.4502H140.297V21.2819H140.35C140.928 20.2314 142.217 19.4634 144.118 19.4634C145.742 19.4588 147.22 20.3863 147.906 21.8399C148.718 20.4089 150.233 19.506 151.893 19.4634C155.302 19.4634 155.96 21.9581 155.96 24.3017V31.996H152.584Z" fill="white"/>
</svg>
